<svg xmlns="http://www.w3.org/2000/svg" viewBox="0 0 1400 1400"><defs><style>.cls-1{fill:#8fd0f2;}.cls-2{fill:#b3d897;}.cls-3{fill:#f37b7d;}.cls-4{fill:#f7a4a5;}.cls-5{fill:#f15a5b;}.cls-6{fill:#57b1e3;}.cls-7{fill:#87c65b;}.cls-8{fill:#83caf0;}.cls-9{fill:#94cb6b;}.cls-10{fill:#100f0f;}</style></defs><g id="Layer_24" data-name="Layer 24"><path class="cls-1" d="M269.75,457.92c.37,0,.74,0,1.11.05.42,2,.84,4.09,1.35,6.53h4.71q99.63,0,199.27-.09c2.47,0,4.94-1.27,7.41-2-.89,1.29-1.51,3.2-2.73,3.73a16.46,16.46,0,0,1-6.36.94q-98.72.06-197.42,0a65.34,65.34,0,0,1-7.34-.8Z"/><path class="cls-2" d="M269.75,534.59a41.36,41.36,0,0,1,5.92-.84q100.5-.07,201-.1c4.63,0,6.49,1,7.56,6.2,2.3,11.16,6.13,22,9.27,33,.63,2.2,1,4.48,1.45,6.72-1-1.25-2.33-2.37-3-3.79a49.54,49.54,0,0,1-2.81-8.28c-2.2-9.06-4.23-18.16-6.32-27.25-.59-1.27-1.18-2.54-1.75-3.81a38.42,38.42,0,0,0-5.81-.86q-98.1-.07-196.2,0c-7.3,0-7.28,0-7.68,6.69,0,.25-.34.49-.53.74l-1.12,0Z"/><path class="cls-3" d="M1126.17,530.84q-3.35,26.58-6.74,53.19a18,18,0,0,1-1.45,3.85c-.21-2.16-.86-4.37-.56-6.47.86-6.07,2.36-12,3.13-18.12,1.23-9.64,2.39-19.3,3-29,.83-12.65,1.33-25.35,1.56-38,.13-8-.56-16.1-.74-24.14,0-1,.86-2,1.33-3.05l.45,2.9q.48,8.88,1,17.75v21.51Q1126.65,521,1126.17,530.84Z"/><path class="cls-1" d="M669.94,71.83c6.06-.33,12.12-.6,18.17-1,2-.14,4.07-.6,6.12-.91h6.54c1.75.31,3.49.77,5.25.92,19.07,1.62,38.15,3.18,57.21,4.79a7.77,7.77,0,0,1,2.06.82l-1.85.94-3.8-.09-1.81-.85c-1.27,0-2.53-.06-3.8-.09l-2.72-.86-13.18-1-2.78-.8-12.18-.11-5.54-.85-17.84-.11-6.47,0-16.89.07C674.27,72.41,672.11,72.11,669.94,71.83Z"/><path class="cls-4" d="M728.81,929.11c0,.32,0,.65,0,1h-29c0-.55.08-1.1.13-1.65l9.23,0,12.14-.14,5.57-.1Z"/><path class="cls-4" d="M668.05,930.08c0-.32,0-.65,0-1,.32-.33.65-.65,1-1l5.58.12,12.14.14,9.22,0c0,.55.09,1.08.14,1.63Z"/><path class="cls-4" d="M1126.17,530.84c.31-6.55.64-13.08.95-19.63v19.64Z"/><path class="cls-4" d="M1127.12,489.71c-.31-5.92-.64-11.83-.95-17.75l.95,0Z"/><path class="cls-3" d="M696.1,930.08c-.05-.55-.09-1.08-.14-1.63l4,0c-.05.55-.09,1.1-.14,1.65Z"/><path class="cls-5" d="M700,928.43c-1.33,0-2.66,0-4,0l-9.22,0-12.14-.14-5.58-.12c-1.06-.59-2.09-1.6-3.19-1.69-2.73-.18-5.48,0-8.23.12-.58,0-1.16,0-1.74,0l-4.64-.18-2.77-.07c-1.82-3-4.17-2.1-6.58-.92l-1.79-.1-2.88-.76-1.84-.1L626,922.65l-2.77-.11c-.76-.59-1.44-1.54-2.3-1.71q-11.5-2.51-23.07-4.75c-2.44-.47-4.93-.65-7.4-1l-1.8-.13c-.46-.55-.83-1.41-1.41-1.59q-8.36-2.52-16.79-4.85c-4.56-1.27-9.14-2.44-13.71-3.66h0c-.59-.29-1.2-.57-1.8-.85l-2.78.53-1.8-.79c-.6-.56-1.11-1.36-1.82-1.66-5.68-2.3-11.57-4.15-17.09-6.77-11.12-5.26-22-11-33.1-16.36a56.21,56.21,0,0,0-6.84-2.34l0,0L484.91,873l0,0-1.94-1c-.59-.31-1.19-.61-1.77-.93l-2.82-1.8v0L459.7,857l0,0-2.81-1.82h0l-2.79-1.86h0c-1.86-1.25-3.72-2.49-5.57-3.75l0,0L441,843.91l0,0-3.77-3.73c-.76-1.23-1.27-2.74-2.3-3.66-3.54-3.13-7.27-6.06-11.16-9.25,4.05-4.31,7.65-8.36,11.48-12.17,8.35-8.35,16.9-16.51,25.22-24.88,9.81-9.9,19.36-20.07,29.2-30,13.9-13.94,28-27.69,41.89-41.61,1.1-1.1,1.41-3,2.09-4.48,4-4.31,7.76-8.78,11.89-12.92Q619.75,627,694,552.75,741.89,504.9,789.71,457a5.11,5.11,0,0,1,1.18-.7c3.13.75,4.36-.44,3.65-3.6,2.68-2.71,5.36-5.4,8.06-8.11,2.9,1.52,1.74-1,2.12-2.09,1.21-1.2,2.4-2.41,3.61-3.6.91-.07,2.2.26,2.69-.23,5.24-5.05,10.4-10.17,15.44-15.43.77-.81.77-2.36,1.12-3.57.5-.48,1-1,1.48-1.46,1.87-1,4.1-1.67,5.55-3.11Q927.25,322.63,1019.77,230c4-4,5-4,7.92.06,10.82,15.06,22.13,29.79,32.19,45.34,8.73,13.49,16.36,27.72,23.87,41.95,4.21,8,7.33,16.57,10.62,25,3.94,10.11,7.89,20.25,11.19,30.58,3.1,9.7,5.45,19.64,8,29.52,1.88,7.45,4,14.88,5.11,22.44,2,13.31,3.21,26.71,4.9,40.06.11.87,1.4,1.58,2.14,2.38,0,.55,0,1.11.09,1.66-.46,1-1.36,2-1.34,3.05.18,8.05.88,16.1.74,24.14q-.32,19-1.56,38c-.64,9.68-1.79,19.36-3,29-.77,6.09-2.27,12.07-3.13,18.13-.3,2.08.35,4.3.56,6.47-.17.91-.36,1.81-.55,2.72-3.61.93-3.1,2.68-.93,4.76l-.9,3.67c-3.56.92-3.46,2.63-1,4.83-.07.55-.13,1.1-.19,1.65-3,1.26-4.64,2.88-1.68,5.83-.29.87-.57,1.76-.85,2.63-2.37.33-3.8,1-1,3.06-.3,1.16-.6,2.32-.89,3.48-.77.42-2,.67-2.21,1.28q-5.88,17.13-11.47,34.37c-.34,1,.3,2.4.49,3.63-.29.61-.58,1.21-.86,1.82l-2,.87,1,1.3c-.24.54-.47,1.09-.7,1.64-2.64.13-2.91,1.5-1.87,3.57,0,.4-.08.81-.13,1.21-.83,1.2-1.65,2.43-2.47,3.64a6.54,6.54,0,0,0-.84,1.08c-6.89,13.35-13.27,27-20.79,40-7,12-14.9,23.54-22.85,35-6.27,9-12.52,18.2-20,26.18-14.79,15.84-30,31.4-45.85,46.15a305.69,305.69,0,0,1-36.4,29.11c-15.63,10.58-32.15,19.89-48.6,29.19a227.87,227.87,0,0,1-29.41,14.18c-18.07,7-36.47,13.11-54.73,19.61-.86-.21-1.81-.76-2.58-.59-6.26,1.46-12.5,3-18.72,4.65a52,52,0,0,0-5.9,2.33l-1.83.09-8.44,1.8-1.84.12c-3.35-.6-6.69-1.16-9.38,1.75l-2.77.1c-3.7-1-7.27-1.1-10.31,1.78l-3.7.1-3.83.76-3.66.09c-3.56-.93-7.15-2.45-10.33.89l-5.57.1-12.14.14C706.12,928.42,703.05,928.43,700,928.43Z"/><path class="cls-6" d="M676.44,72.7l16.89-.08,6.47,0,17.84.11c1.42,3.12,3.49,1.93,5.55.85l12.18.11,2.78.8c4.38.35,8.78.7,13.17,1l2.73.86,3.81.09c.59.29,1.2.56,1.8.85l3.8.08,3.71.8c5.88,1.3,11.8,2.42,17.64,3.9,15.82,4.06,31.85,7.52,47.34,12.62,16,5.26,31.47,12.18,47.18,18.36,2.64,1.5,5.29,3,7.91,4.49,13,7.63,26,15.48,39.15,22.85,15.63,8.74,29.22,20.23,43.34,31,3.11,2.37,2.21,3.83.06,5.82-4.42,4.14-8.92,8.19-13.19,12.48-9,9-17.8,18.24-26.75,27.33-9.14,9.29-18.36,18.51-27.5,27.8-.37.39-.37,1.15-.55,1.73h0l-4.67,4.68L860.5,288.85c-2.91,3-5.81,6-8.71,9l-.61.72L850,299.75l-.72.72-.21.21c-.24.21-.49.41-.72.63q-11.14,10.77-22.31,21.54l-7.49-2.67-2.68-1.79c-1-.68-1.94-1.34-2.92-2l-2.68-1.75c-.84-2.95-2.4-4.58-5.67-3-.47-.24-.93-.48-1.41-.71,1-3.38-1.77-2.3-3.23-2.78-5.06-2.69-10-5.7-15.22-8-16.95-7.48-34.83-12-52.87-15.9-2.12-.46-4.5.26-6.75.43-.58,0-1.15-.08-1.72-.12-1.34-.49-2.67-1-4-1.47-2.8-3.46-6-2-9.26-.81H684.93c-3.52-1.17-7-2.63-10.2.81l-4,1.48-1.72.16c-1.34-.23-2.78-.94-4-.64-15.07,3.75-30.64,6.28-45,11.83-21.23,8.19-41.27,19.07-59.12,33.65A229.47,229.47,0,0,0,516,378.26c-13,19.06-22,40.14-28.71,62.16-.31,1,.22,2.28.36,3.43-.06.58-.14,1.15-.2,1.74-2.68,1.68-3.17,3.93-1.71,6.67-.05.59-.11,1.16-.16,1.75-2.69,1.68-3.15,3.92-1.7,6.67-.06.58-.12,1.15-.18,1.74-2.47.69-4.94,1.95-7.41,2q-99.63.17-199.27.08h-4.71c-.5-2.44-.93-4.48-1.35-6.53.27-3.38.55-6.75.82-10.15,3.68-1.68,1.36-4.35,1.11-6.68.1-.89.2-1.79.29-2.69.7-1.32,1.74-2.57,2-4q2.57-12.88,4.77-25.83c.6-3.48.8-7,1.19-10.56.07-.59.13-1.19.21-1.77,2.29-1.4,3.2-3.19,1.67-5.71.06-.59.14-1.19.2-1.77a13.4,13.4,0,0,0,3.55-11.32c.06-.59.13-1.17.2-1.77.77-.7,1.95-1.25,2.25-2.11,3.22-9,6.23-18.16,9.44-27.21,7.35-20.73,17.21-40.27,28.17-59.31,2.81-4.89,5.09-10.09,7.63-15.15l0,0a25.55,25.55,0,0,0,3.87-3.68c4.7-6.72,8.91-13.81,13.91-20.31A529.76,529.76,0,0,1,403,190.38c.88-.86,1.13-2.39,1.67-3.63L407.4,184l4.6-3.76,1-.93c1.53-1.25,3.08-2.49,4.61-3.75l1.94-1.87,4.61-3.76h0l5.59-4.66,2.89-2.77,3.67-2.79,0,0,3.71-2.76,0,0,6.49-4.68,0,0c5-3,10-5.85,14.87-9a51.32,51.32,0,0,0,5.7-5l0,0,7.46-4.64,0,0a53.66,53.66,0,0,0,5.6-2.1c17.69-8.79,35.14-18.09,53.09-26.29a268.1,268.1,0,0,1,34.87-12.74c15.67-4.66,31.64-8.33,47.48-12.43l2.81-.78,3.79-.15,1.91-.75,2.73-.19c.93-.26,1.87-.52,2.8-.8l3.79-.14,2.76-.79,3.79-.17,1.83-.77,4.71-.16c2.07,1.25,4.1,2.27,5.56-.78l3.74-.19,3.75-.75,8.41-.16C671,74.64,673.92,76,676.44,72.7Z"/><path class="cls-7" d="M270.87,543c.19-.25.51-.49.53-.74.4-6.69.4-6.69,7.68-6.69q98.09,0,196.2,0a39,39,0,0,1,5.81.86c.59,1.27,1.17,2.55,1.75,3.82,2.09,9.09,4.12,18.19,6.32,27.25a51.42,51.42,0,0,0,2.81,8.28c.63,1.42,1.95,2.53,3,3.79.37,1.5.76,3,1.13,4.53.64,2,.94,4.25,1.95,6.09,6,10.93,12,21.91,18.49,32.58,2.34,3.87,2,6-1.15,9.13-25.51,25.28-50.84,50.74-76.23,76.12Q407,740.15,374.8,772.24c-1.27,1.28-2.64,2.46-3.79,3.53l-6.72-5.62-1.83-2c-.63-.9-1.27-1.79-1.91-2.68l0,0a32.39,32.39,0,0,0-2.28-5c-9.91-14.77-20.72-29-29.63-44.37a538.48,538.48,0,0,1-26.12-51.65,265.49,265.49,0,0,1-17.25-50.91c-3.33-15.08-6.61-30.18-10-45.25a39.76,39.76,0,0,0-2.26-5.82l-.24-3.61c-.23-1-.48-2-.72-2.94-.08-1.19-.15-2.39-.24-3.6l-.48-2.06Q271.07,546.62,270.87,543Z"/><path class="cls-3" d="M1125.65,467.41c-.75-.79-2-1.51-2.15-2.38-1.68-13.34-2.94-26.76-4.9-40.06-1.12-7.57-3.21-15-5.11-22.44-2.5-9.87-4.85-19.82-7.94-29.52-3.3-10.33-7.25-20.47-11.19-30.58-3.29-8.44-6.41-17-10.62-25-7.51-14.24-15.14-28.48-23.88-41.95-10.07-15.55-21.38-30.28-32.18-45.34-2.93-4.08-3.94-4-7.92-.07Q927.2,322.64,834.6,415.14c-1.45,1.44-3.68,2.09-5.55,3.11a41.05,41.05,0,0,1,3.09-3.95q93.68-93.74,187.38-187.42c4.73-4.72,5-4.58,9,.63,5.87,7.58,12.38,14.71,17.85,22.56,7.69,11,15.37,22.19,21.82,34,9.3,17,18,34.34,26,51.94,11.39,24.85,19,51,24.17,77.81,3,15.77,5.06,31.72,7.43,47.62C1126.16,463.34,1125.73,465.4,1125.65,467.41Z"/><path class="cls-2" d="M364.28,770.14l6.72,5.62c1.15-1.07,2.52-2.26,3.79-3.53Q407,740.13,439.1,708q38.1-38.09,76.24-76.12c3.11-3.09,3.49-5.26,1.14-9.13C510,612.09,504,601.11,498,590.17c-1-1.83-1.33-4-1.95-6.08a28.27,28.27,0,0,1,3.07,3.73c6.77,11.83,13.3,23.81,20.28,35.51,2,3.31,1.9,5.27-.85,8q-34.27,34-68.33,68.24Q425,724.77,399.8,750c-8.4,8.44-16.71,17-25,25.5-3.16,3.22-5,3.14-7.71-.7C366,773.32,365.2,771.7,364.28,770.14Z"/><path class="cls-1" d="M487.55,443.9c-.14-1.15-.66-2.42-.36-3.43,6.74-22,15.73-43.1,28.71-62.16a229.47,229.47,0,0,1,44.91-48.71C578.68,315,598.7,304.14,619.93,296c14.4-5.55,30-8.08,45-11.83,1.2-.3,2.65.41,4,.64-3.69.8-7.39,1.57-11.07,2.41a266.69,266.69,0,0,0-47.51,15c-33,14.17-59.83,35.7-82.35,63.25-16.27,19.9-27.54,42.46-36.28,66.44C490.3,435.82,489,439.87,487.55,443.9Z"/><path class="cls-8" d="M901.79,246.62c.18-.59.16-1.35.55-1.74,9.15-9.28,18.36-18.51,27.5-27.8,8.94-9.08,17.76-18.28,26.75-27.32,4.27-4.29,8.77-8.34,13.19-12.48,2.13-2,3-3.45-.06-5.82-14.12-10.81-27.7-22.32-43.35-31-13.19-7.37-26.1-15.22-39.14-22.85-2.62-1.54-5.27-3-7.92-4.49l.12-1.46c16.51,9.1,33.44,17.54,49.44,27.5,14,8.73,26.92,19.15,40.34,28.82.12.09.24.21.35.31,6.39,5.28,6.41,5.51.62,11.29q-32,32-64,63.94A37.12,37.12,0,0,1,901.79,246.62Z"/><path class="cls-3" d="M533.64,714.16c-.68,1.51-1,3.38-2.09,4.48-13.91,13.92-28,27.67-41.89,41.61-9.85,9.88-19.39,20-29.2,30-8.32,8.39-16.87,16.54-25.22,24.88-3.83,3.83-7.43,7.87-11.48,12.17,3.89,3.19,7.62,6.12,11.16,9.25,1,.92,1.55,2.43,2.3,3.66l-1,.13c-4.3-3.28-8.61-6.54-12.87-9.84-2.76-2.13-2.44-4.23,0-6.58,8.9-8.78,17.71-17.67,26.55-26.52q40-40,79.91-80C530.93,716.18,532.34,715.24,533.64,714.16Z"/><path class="cls-2" d="M273,562.47a44.13,44.13,0,0,1,2.26,5.83c3.4,15.07,6.68,30.16,10,45.25a265.26,265.26,0,0,0,17.25,50.91,540.8,540.8,0,0,0,26.12,51.65c8.91,15.35,19.72,29.59,29.63,44.37a32.91,32.91,0,0,1,2.28,5c-3.32-3.82-7-7.41-9.89-11.5C336,733.4,322.38,712.17,311.8,689.23c-7.12-15.41-13.34-31.23-19.64-47-9.77-24.49-14.32-50.36-19.38-76.08A14,14,0,0,1,273,562.47Z"/><path class="cls-1" d="M879.43,111.61l-.12,1.46c-15.7-6.19-31.16-13.11-47.17-18.37-15.49-5.1-31.51-8.56-47.35-12.61-5.83-1.5-11.75-2.62-17.64-3.91,0-.51,0-1,0-1.54,4.59.61,9.23,1,13.74,1.89,20.12,4.19,40,9.35,59.24,16.61,11,4.14,21.91,8.5,32.82,12.88A57.38,57.38,0,0,1,879.43,111.61Z"/><path class="cls-1" d="M725.12,284.71c2.26-.17,4.64-.89,6.76-.43,18,3.89,35.91,8.42,52.86,15.9,5.24,2.31,10.16,5.31,15.23,8,0,.36-.07.71-.09,1.07-9.77-4.29-19.27-9.49-29.4-12.65-14.08-4.4-28.66-7.26-43-10.81A12.66,12.66,0,0,1,725.12,284.71Z"/><path class="cls-4" d="M491.48,876.66a58.65,58.65,0,0,1,6.84,2.35c11.06,5.39,22,11.09,33.1,16.35,5.52,2.62,11.4,4.48,17.09,6.77.71.29,1.22,1.09,1.82,1.66-6-2-12.13-3.53-17.8-6.13-13.08-6-25.92-12.52-38.82-18.89A10.8,10.8,0,0,1,491.48,876.66Z"/><path class="cls-3" d="M590.45,915.15c2.46.31,5,.47,7.4.94q11.55,2.25,23.06,4.75c.85.19,1.54,1.12,2.31,1.72l-1.91.93-6.46-1.18-2.89-.69-2.7-.29c-.66-.21-1.31-.42-2-.65l-1.79-.25-2-.68-6.46-1.18-2-.69c-1.52-.39-3-.78-4.57-1.15C590.52,916.19,590.48,915.67,590.45,915.15Z"/><path class="cls-3" d="M827.57,419.7c-.35,1.21-.35,2.75-1.13,3.56Q818.9,431.14,811,438.7c-.5.48-1.78.16-2.69.22Z"/><path class="cls-3" d="M556.75,904.9c4.57,1.22,9.15,2.39,13.71,3.66q8.41,2.34,16.79,4.85c.58.18.94,1,1.41,1.59l-1,.94-1.77-.25c-3.17-1.28-6.28-2.81-9.53-3.79-4.57-1.37-9.27-2.31-13.92-3.45l-4.69-1.78C557.41,906.1,557.09,905.5,556.75,904.9Z"/><path class="cls-1" d="M684.88,282.32h25.24c0,.47,0,1,0,1.43H684.84C684.87,283.27,684.87,282.79,684.88,282.32Z"/><path class="cls-4" d="M459.69,857l18.65,12.16Z"/><path class="cls-4" d="M562.42,908.46c4.65,1.14,9.35,2.09,13.93,3.46,3.26,1,6.35,2.5,9.52,3.79Z"/><path class="cls-3" d="M657.6,926.58c2.74-.07,5.5-.3,8.23-.12,1.1.08,2.13,1.09,3.19,1.69l-1,1-10.17-.31C657.8,928.06,657.7,927.33,657.6,926.58Z"/><path class="cls-8" d="M684.88,282.32c0,.47,0,1,0,1.43l-7.46.22-2.7-.85C677.83,279.69,681.36,281.14,684.88,282.32Z"/><path class="cls-8" d="M710.15,283.74c0-.47,0-1,0-1.43,3.22-1.21,6.46-2.65,9.26.81l-2.7.85Z"/><path class="cls-3" d="M626,922.65l9.37,1.77-1.89.91-3.66-.26Z"/><path class="cls-8" d="M818.58,320.21l7.49,2.66C822.18,325.88,820.86,321.7,818.58,320.21Z"/><path class="cls-4" d="M441,843.94l7.44,5.61Z"/><path class="cls-3" d="M641.87,925.39c2.4-1.18,4.76-2.08,6.58.93-1,.29-1.88.59-2.83.91l-3.63-.29C642,926.42,641.91,925.9,641.87,925.39Z"/><path class="cls-4" d="M626,922.65l3.82,2.42-8.5-1.61,1.91-.92C624.14,922.59,625.06,922.63,626,922.65Z"/><path class="cls-1" d="M483.78,460.72c-1.47-2.74-1-5,1.7-6.66C484.91,456.27,484.35,458.49,483.78,460.72Z"/><path class="cls-1" d="M485.63,452.31c-1.46-2.74-1-5,1.71-6.67C486.78,447.86,486.2,450.08,485.63,452.31Z"/><path class="cls-8" d="M804.62,311.67c3.26-1.59,4.82.05,5.67,3Z"/><path class="cls-4" d="M484.89,873l6.56,3.68C489.27,875.42,487.09,874.18,484.89,873Z"/><path class="cls-1" d="M674.68,283.12l2.69.85-6.69.63Z"/><path class="cls-1" d="M716.69,284c.9-.29,1.8-.58,2.71-.85l4,1.47Z"/><path class="cls-3" d="M794.56,452.72c.71,3.17-.54,4.34-3.66,3.6Z"/><path class="cls-3" d="M651.22,926.37l4.64.18c-.61.53-1.23,1.06-1.82,1.59-.9-.08-1.81-.15-2.71-.24C651.29,927.4,651.26,926.88,651.22,926.37Z"/><path class="cls-8" d="M897.12,251.29l4.67-4.67Z"/><path class="cls-4" d="M651.22,926.37l.11,1.53-5.71-.7,2.83-.91C649.37,926.33,650.3,926.35,651.22,926.37Z"/><path class="cls-4" d="M448.45,849.56l5.58,3.75C452.17,852.07,450.31,850.81,448.45,849.56Z"/><path class="cls-4" d="M556.75,904.9c.32.6.66,1.18,1,1.78-1.87-.7-3.74-1.4-5.59-2.11l2.78-.53,1.8.85Z"/><path class="cls-4" d="M436.2,840.31c.34,0,.67-.09,1-.12l3.76,3.72Z"/><path class="cls-8" d="M767.13,76.63c0,.51,0,1,0,1.54l-3.7-.8,1.85-.93Z"/><path class="cls-4" d="M654,928.14l1.82-1.59c.58,0,1.16,0,1.74,0,.1.75.19,1.48.29,2.22Z"/><path class="cls-8" d="M799.88,309.26c0-.36.06-.71.09-1.07,1.45.47,4.26-.61,3.22,2.77C802.1,310.38,801,309.82,799.88,309.26Z"/><path class="cls-3" d="M637.19,924.53l2.88.76-1,1-1.77-.22C637.26,925.57,637.23,925,637.19,924.53Z"/><path class="cls-4" d="M637.19,924.53c0,.51.07,1,.1,1.55l-3.82-.74,1.89-.91Z"/><path class="cls-8" d="M813,316.42l2.92,2Z"/><path class="cls-3" d="M804.72,442.52c-.37,1.05.78,3.62-2.12,2.1Z"/><path class="cls-4" d="M587.65,916c.34-.32.66-.64,1-1l1.8.14c0,.52.07,1,.1,1.58Z"/><path class="cls-2" d="M272,555.93c.23,1,.48,2,.72,2.94C272.49,557.9,272.24,556.91,272,555.93Z"/><path class="cls-4" d="M612,921.6c1,.24,1.93.48,2.89.7Z"/><path class="cls-4" d="M639.08,926.3c.33-.33.67-.67,1-1l1.8.1c0,.51.09,1,.12,1.55Z"/><path class="cls-4" d="M478.36,869.21l2.82,1.81Z"/><path class="cls-2" d="M360.54,765.46l1.91,2.68Z"/><path class="cls-4" d="M456.84,855.2c.94.61,1.89,1.2,2.82,1.82C458.73,856.4,457.79,855.79,456.84,855.2Z"/><path class="cls-4" d="M454,853.33l2.79,1.85Z"/><path class="cls-4" d="M603.55,919.73l2,.69Z"/><path class="cls-2" d="M271.28,550.28l.49,2.06Z"/><path class="cls-4" d="M607.29,920.67c.66.21,1.31.42,2,.65C608.61,921.09,608,920.88,607.29,920.67Z"/><path class="cls-4" d="M482.94,872c.64.34,1.29.66,1.94,1Z"/><path class="cls-4" d="M595.13,917.88l2,.69Z"/><path class="cls-1" d="M851.17,298.64c.19-.24.41-.49.61-.72C851.58,298.15,851.36,298.39,851.17,298.64Z"/><path class="cls-1" d="M848.36,301.33c.24-.21.49-.41.72-.62C848.85,300.92,848.61,301.13,848.36,301.33Z"/><path class="cls-1" d="M849.31,300.5l.72-.73Z"/><path class="cls-1" d="M615.69,80.05c-15.84,4.09-31.81,7.76-47.48,12.43a268.1,268.1,0,0,0-34.87,12.74c-18,8.21-35.41,17.51-53.1,26.3a55.78,55.78,0,0,1-5.59,2.09c6.63-4.13,13-8.85,20-12.27,16.65-8.15,33.34-16.33,50.51-23.26,12.66-5.11,26.06-8.45,39.23-12.24,9-2.59,18.17-4.6,27.29-6.82a32.24,32.24,0,0,1,4.08-.49C615.71,79.05,615.7,79.54,615.69,80.05Z"/><path class="cls-8" d="M404.59,186.82c-.54,1.22-.79,2.75-1.67,3.62A528,528,0,0,0,352.18,248c-5,6.49-9.21,13.57-13.91,20.3-1,1.44-2.57,2.46-3.87,3.68,5.31-8.29,10.16-16.93,16-24.79,8.32-11.15,17-22.12,26.27-32.47C385.46,204.93,395.25,196.08,404.59,186.82Z"/><path class="cls-8" d="M334.36,272c-2.53,5.06-4.81,10.27-7.63,15.15-11,19-20.8,38.58-28.16,59.31-3.2,9.05-6.22,18.16-9.45,27.21-.31.86-1.47,1.41-2.24,2.11,2-6.72,3.54-13.67,6.21-20.12,7.27-17.63,14.62-35.25,22.72-52.5,4.77-10.13,11-19.57,16.65-29.29A10.21,10.21,0,0,1,334.36,272Z"/><path class="cls-8" d="M281.06,398.11c-.39,3.51-.59,7.07-1.19,10.56q-2.22,12.93-4.77,25.83c-.28,1.39-1.34,2.64-2,4Q277.06,418.27,281.06,398.11Z"/><path class="cls-1" d="M640.05,76.29l-3.79.17-2.76.79-3.79.15c0-.32,0-.66,0-1q13.11-1.75,26.22-3.54c0,.52,0,1,0,1.53l-3.74.18-5.56.79-4.71.16C641.28,75.79,640.67,76,640.05,76.29Z"/><path class="cls-1" d="M467.13,138.3a50.47,50.47,0,0,1-5.7,5c-4.86,3.16-9.9,6-14.87,9,4.35-3.28,8.63-6.66,13.09-9.78A82.46,82.46,0,0,1,467.13,138.3Z"/><path class="cls-8" d="M286.69,377.54a13.4,13.4,0,0,1-3.55,11.32Q284.91,383.19,286.69,377.54Z"/><path class="cls-1" d="M668.05,73.49c-2.81,0-5.6.11-8.4.16l-1.89-.94L668.07,72C668.06,72.49,668.06,73,668.05,73.49Z"/><path class="cls-8" d="M668.05,73.49c0-.5,0-1,0-1.51l1.87-.17,6.5.88C673.92,76,671,74.64,668.05,73.49Z"/><path class="cls-1" d="M626.91,78.2l-2.73.17-1.91.75-3.79.15c0-.32,0-.65,0-1l8.45-1.63C626.92,77.16,626.92,77.67,626.91,78.2Z"/><path class="cls-8" d="M272.78,441.14c.26,2.33,2.57,5-1.11,6.68C272,445.6,272.42,443.37,272.78,441.14Z"/><path class="cls-1" d="M474.61,133.63l-7.46,4.64Q470.9,136,474.61,133.63Z"/><path class="cls-1" d="M446.53,152.3,440,157C442.21,155.41,444.38,153.86,446.53,152.3Z"/><path class="cls-1" d="M429.69,165.37c-1.85,1.56-3.72,3.11-5.58,4.67Z"/><path class="cls-8" d="M282.94,390.63c1.52,2.52.61,4.31-1.67,5.71C281.82,394.43,282.38,392.52,282.94,390.63Z"/><path class="cls-1" d="M424.1,170.05l-4.62,3.75Z"/><path class="cls-1" d="M417.55,175.67c-1.53,1.25-3.08,2.49-4.61,3.75Z"/><path class="cls-1" d="M412,180.35l-4.6,3.75C408.87,182.85,410.41,181.61,412,180.35Z"/><path class="cls-8" d="M657.76,72.72l1.89.94-3.76.75c0-.51,0-1,0-1.52C656.53,72.82,657.15,72.77,657.76,72.72Z"/><path class="cls-8" d="M618.48,78.28c0,.33,0,.65,0,1l-2.8.78c0-.51,0-1,0-1.52Z"/><path class="cls-8" d="M626.91,78.2c0-.51,0-1,0-1.54l2.77-.23c0,.32,0,.66,0,1C628.78,77.66,627.84,77.92,626.91,78.2Z"/><path class="cls-1" d="M440,157q-1.86,1.38-3.71,2.77C437.53,158.85,438.78,157.93,440,157Z"/><path class="cls-1" d="M436.28,159.8l-3.68,2.79Z"/><path class="cls-4" d="M810.2,914.29c18.26-6.49,36.66-12.61,54.73-19.61a227.87,227.87,0,0,0,29.41-14.18c16.45-9.3,33-18.61,48.6-29.19a305.29,305.29,0,0,0,36.4-29.11c15.89-14.75,31.06-30.31,45.85-46.15,7.46-8,13.72-17.17,20-26.18,7.94-11.43,15.88-22.94,22.85-35,7.52-13,13.9-26.63,20.79-40a8.57,8.57,0,0,1,.84-1.09l1.23.28c-4.31,9.26-7.89,19-13.09,27.7-11.6,19.5-23.5,38.84-36.29,57.57-7.38,10.81-16.35,20.62-25.25,30.28a386.12,386.12,0,0,1-29.57,29.48c-13.13,11.48-26.76,22.51-40.94,32.64a451,451,0,0,1-43.88,27.77,355.61,355.61,0,0,1-43.44,20c-17.55,6.78-35.65,12.11-53.53,18a4,4,0,0,1-1.37-.06C805.75,916.47,808,915.38,810.2,914.29Z"/><path class="cls-3" d="M1096.73,659.77c-.19-1.21-.83-2.58-.49-3.62q5.57-17.25,11.47-34.37c.21-.61,1.44-.86,2.21-1.29-3,9.94-6,19.91-9.14,29.8A102.25,102.25,0,0,1,1096.73,659.77Z"/><path class="cls-3" d="M810.2,914.29l-6.68,3.26-1.78.3-2,.71-2.72.23-2,.66-1.77.27-5.7,1.6-2.7.28-1.91-.92a53.86,53.86,0,0,1,5.9-2.32c6.21-1.66,12.45-3.19,18.72-4.65C808.39,913.53,809.34,914.07,810.2,914.29Z"/><path class="cls-3" d="M726.91,928.17c3.18-3.34,6.77-1.82,10.33-.89,0,.51-.09,1-.13,1.53l-8.3.31C728.19,928.8,727.55,928.48,726.91,928.17Z"/><path class="cls-3" d="M748.43,926.32c3-2.88,6.6-2.77,10.31-1.79,0,.51-.06,1-.1,1.55l-1.78.22-2.91.63-3.64.3C749.69,926.94,749.07,926.63,748.43,926.32Z"/><path class="cls-3" d="M761.51,924.43c2.69-2.91,6-2.34,9.38-1.74l-.09,1.53c-.6.06-1.19.14-1.79.21l-2,.61-3.64.3Z"/><path class="cls-3" d="M772.74,922.56l8.44-1.79c0,.52-.06,1.05-.1,1.57l-1.78.22-2,.6-3.62.35C773.38,923.2,773.06,922.89,772.74,922.56Z"/><path class="cls-3" d="M1112.7,611.34c-3-3-1.28-4.59,1.68-5.83Z"/><path class="cls-3" d="M1116.5,595.35c-2.17-2.07-2.68-3.83.93-4.76Z"/><path class="cls-3" d="M1114.57,603.86c-2.42-2.2-2.52-3.92,1-4.83C1115.25,600.63,1114.91,602.24,1114.57,603.86Z"/><path class="cls-4" d="M748.43,926.32l1.88.92-5.69.71.11-1.53Z"/><path class="cls-4" d="M737.11,928.81c0-.51.09-1,.13-1.53l3.66-.09,1.93,1C740.93,928.38,739,928.6,737.11,928.81Z"/><path class="cls-4" d="M787.61,921.32l5.7-1.6C791.41,920.24,789.52,920.78,787.61,921.32Z"/><path class="cls-3" d="M1090.89,674.1l-1.23-.28c.82-1.21,1.64-2.43,2.47-3.64C1091.71,671.49,1091.3,672.8,1090.89,674.1Z"/><path class="cls-3" d="M742.83,928.17l-1.93-1c1.27-.27,2.56-.52,3.83-.76l-.11,1.53Z"/><path class="cls-4" d="M761.51,924.43l1.89.91-4.76.74c0-.53.06-1,.1-1.55C759.66,924.51,760.59,924.47,761.51,924.43Z"/><path class="cls-3" d="M1092.28,669c-1-2.07-.78-3.44,1.87-3.56C1093.51,666.59,1092.89,667.79,1092.28,669Z"/><path class="cls-3" d="M1110.81,617c-2.76-2.07-1.33-2.73,1-3.06C1111.51,615,1111.16,616,1110.81,617Z"/><path class="cls-4" d="M781.08,922.35c0-.52.06-1.05.1-1.57l1.83-.09c.64.31,1.27.61,1.9.93C783.64,921.85,782.36,922.1,781.08,922.35Z"/><path class="cls-4" d="M772.74,922.56l1,1-2.89.71c0-.51.06-1,.1-1.53Z"/><path class="cls-4" d="M754,926.94l2.9-.62C755.9,926.51,754.93,926.73,754,926.94Z"/><path class="cls-3" d="M1094.84,663.75l-1-1.3,2-.87Z"/><path class="cls-4" d="M795.09,919.45l2-.66Z"/><path class="cls-4" d="M799.78,918.57l2-.71Z"/><path class="cls-4" d="M777.33,923.17l2-.59Z"/><path class="cls-4" d="M767,925l2-.61Z"/><path class="cls-9" d="M482.84,540.23c-.59-1.27-1.18-2.54-1.75-3.81C481.66,537.69,482.25,539,482.84,540.23Z"/><path class="cls-8" d="M699.79,72.59l-6.47,0Z"/><path class="cls-8" d="M723.17,73.55c-2,1.08-4.12,2.27-5.54-.85Z"/><path class="cls-8" d="M754,76.35l-2.73-.86C752.22,75.79,753.13,76.07,754,76.35Z"/><path class="cls-8" d="M738.13,74.46l-2.78-.8Z"/><path class="cls-8" d="M759.65,77.29l-1.81-.85Z"/><path class="cls-3" d="M709.2,928.41l12.14-.14Z"/><path class="cls-3" d="M674.59,928.27l12.15.14Z"/><path class="cls-3" d="M556.72,904.9c-.59-.29-1.2-.58-1.8-.85C555.53,904.32,556.13,904.61,556.72,904.9Z"/><path class="cls-8" d="M646.61,75.37l5.56-.79C650.7,77.64,648.66,76.61,646.61,75.37Z"/><path class="cls-8" d="M633.5,77.24l2.76-.79C635.35,76.73,634.43,77,633.5,77.24Z"/><path class="cls-8" d="M640.05,76.29l1.83-.76C641.28,75.79,640.67,76,640.05,76.29Z"/><path class="cls-8" d="M622.28,79.12l1.91-.75Z"/><path class="cls-10" d="M1216,1211.85a21.24,21.24,0,0,1-3.2-13q.39-7.39,8.4-12.6a18.06,18.06,0,0,1,11.79-3q6.2.6,11.8,6.19a88.85,88.85,0,0,0,25,19.59q13.79,7.2,33.38,7.2a79.82,79.82,0,0,0,16.39-2.6,31.82,31.82,0,0,0,14.39-8q6-5.79,6-17,0-10-6.4-16a48.64,48.64,0,0,0-16.79-9.8q-10.39-3.8-22.39-7-12.8-3.6-25.78-8a97.56,97.56,0,0,1-23.39-11.39,55.54,55.54,0,0,1-17-18.19q-6.59-11.19-6.59-27.59,0-18.8,10.59-32.39a71.12,71.12,0,0,1,27.59-21.19,89.62,89.62,0,0,1,37-7.59,106.9,106.9,0,0,1,24.39,3,102.21,102.21,0,0,1,24.79,9.39,70.65,70.65,0,0,1,20.79,16.79,23.06,23.06,0,0,1,4.6,12.4q.6,7.2-6.6,12.79a15.94,15.94,0,0,1-11.59,3.6,17.55,17.55,0,0,1-11.2-4.4,51.48,51.48,0,0,0-19.59-15,65.57,65.57,0,0,0-27.19-5.4,61.13,61.13,0,0,0-15.79,2.2,30.15,30.15,0,0,0-13.79,7.8q-5.61,5.6-5.6,16.39,0,10,6.6,16t17.39,10a223.37,223.37,0,0,0,23.59,7.19q12.39,3.21,24.59,7.6a90.76,90.76,0,0,1,22,11.4,55,55,0,0,1,16,18q6.19,11,6.19,27.78,0,19.61-11.39,33.39a72.77,72.77,0,0,1-28.79,21,94.68,94.68,0,0,1-36.58,7.19,132.34,132.34,0,0,1-45.38-8.19Q1231.61,1232.25,1216,1211.85Z"/><path class="cls-10" d="M1164.85,1034.34a19.33,19.33,0,0,1,14.19,5.79,19.84,19.84,0,0,1,5.8,14.6v105.15q0,41.58-23.19,65t-65.57,23.39q-42,0-65-23.39t-23-65V1054.73a20.16,20.16,0,0,1,5.6-14.6,20.53,20.53,0,0,1,28.58,0,19.8,19.8,0,0,1,5.8,14.6v105.15q0,26,12.2,38.78t35.78,12.79q24,0,36.38-12.79t12.4-38.78V1054.73a20.2,20.2,0,0,1,5.59-14.6A19.14,19.14,0,0,1,1164.85,1034.34Z"/><path class="cls-10" d="M962.14,1041.73a19.14,19.14,0,0,0-14.39-5.79,18.78,18.78,0,0,0-14.39,6,20.73,20.73,0,0,0-3.44,4.92,1.62,1.62,0,0,0-.17.75V1143h0c0,.31,0,.62,0,.92q0,20.8-8.4,37.39a64.53,64.53,0,0,1-23.19,26q-14.79,9.4-34.38,9.4t-34.39-9.6a66.24,66.24,0,0,1-23.18-26q-8.4-16.39-8.4-37.19t8.4-37.18a66.41,66.41,0,0,1,23.18-26q14.79-9.59,34.39-9.59t34.38,9.39a60.67,60.67,0,0,1,6,4.37,1.66,1.66,0,0,0,2.72-1.27V1050a1.82,1.82,0,0,0-.76-1.39c-7.38-4.8-9.54-5.86-16.76-8.67a86.51,86.51,0,0,0-31.59-5.59q-27.59,0-49.77,14.19t-35.39,38.78q-13.18,24.59-13.19,56.57t13.19,56.58q13.2,24.58,35.59,38.78T859,1253.43a79.33,79.33,0,0,0,26.59-4.59,91.32,91.32,0,0,0,23-11.8,70.65,70.65,0,0,0,16.19-15.79h0a1.66,1.66,0,0,1,3,1v15.22q0,25.57-16.19,40.38t-48.18,14.79A81,81,0,0,1,843.8,1290a167,167,0,0,1-18.79-5.8q-8.4-3.21-12.4-4.4-8.79-3.21-15.59-1.2t-10.79,10.8a14.82,14.82,0,0,0,.2,12.79q3,6.35,12.07,11.13a1.07,1.07,0,0,1,.22.15q4.42,3.55,15.69,7.11a222.62,222.62,0,0,0,25,6.2,128.22,128.22,0,0,0,23.59,2.6q28.38,0,52.17-10A84.62,84.62,0,0,0,953.35,1288q14.39-21.4,14.39-55.38V1056.33A20.2,20.2,0,0,0,962.14,1041.73Z"/><path class="cls-10" d="M504.77,1091.31a103.15,103.15,0,0,0-53.18-54,90.9,90.9,0,0,0-37.18-7.79A94,94,0,0,0,366,1042.93q-22.78,13.39-37,38.38t-14.2,60.18q0,31.18,13.4,55.37a96.69,96.69,0,0,0,37.78,38q24.39,13.8,57.57,13.79a101.58,101.58,0,0,0,39.79-8q19-8,29.78-18.39,8.79-7.2,8.8-16a16.48,16.48,0,0,0-4.8-11.79,16,16,0,0,0-12-5,23.07,23.07,0,0,0-11.8,3.49,2.22,2.22,0,0,0-.35.25c-3.16,2.62-6.85,5.38-11,8.26a59.66,59.66,0,0,1-16,7.39q-9.58,3-24.39,3a67.64,67.64,0,0,1-34.38-9,65.86,65.86,0,0,1-24.79-25.39,66.62,66.62,0,0,1-3.62-7.57l-.12-.28c-.48-1.19-.92-2.4-1.33-3.63l-.12-.34c-.41-1.25-.8-2.52-1.15-3.81h0v0c-.21-.78-.41-1.56-.6-2.35,0,0,0,0,0-.07v0q-.81-3.49-1.34-7.19h0c0-.17,0-.34-.07-.52v-.06c-.06-.43-.12-.87-.17-1.31h0c0-.21-.05-.42-.08-.63s0-.5-.07-.75c-.06-.61-.12-1.21-.17-1.82,0-.34-.05-.68-.07-1,0-.54-.08-1.07-.11-1.61s0-1-.06-1.44,0-.81-.05-1.22c0-.9,0-1.8,0-2.71q0-20.4,5-34.19c.29-.78.59-1.52.89-2.27h0a56.53,56.53,0,0,1,12.71-19.92,52.3,52.3,0,0,1,19.59-12.19,70,70,0,0,1,23-3.8,60.74,60.74,0,0,1,26,5.8,57,57,0,0,1,20.79,16.39,42.63,42.63,0,0,1,9.19,24.49v.2h0a2.7,2.7,0,0,1-2.7,2.7H386.87a10.36,10.36,0,0,0-9.87,8.34,86.62,86.62,0,0,0-.92,14.45v1.17a10,10,0,0,0,10,10H492.77a20.66,20.66,0,0,0,14-5.2,17.88,17.88,0,0,0,6.39-13,2.71,2.71,0,0,0,0-.29A106.74,106.74,0,0,0,504.77,1091.31Z"/><path class="cls-10" d="M580.52,1238.84a19.8,19.8,0,0,0,5.8-14.59V1054.73a19.84,19.84,0,0,0-5.8-14.6,20.53,20.53,0,0,0-28.58,0,20.16,20.16,0,0,0-5.6,14.6v169.52a20.12,20.12,0,0,0,5.6,14.59,20.5,20.5,0,0,0,28.58,0Z"/><path class="cls-10" d="M720.46,1072.92q-6.21-19.8-21.79-31.59t-44-11.79a75.37,75.37,0,0,0-26.39,4.6,85.35,85.35,0,0,0-14.86,7.18c-3.09,1.9-4.26,2.94-4.27,6.57,0,10,0,13.48,0,14.71v8.73a2.32,2.32,0,0,0,3.47,2l.07,0q12.39-7,28.79-7,17.58,0,27.38,7a37.23,37.23,0,0,1,13.8,18.39,77.76,77.76,0,0,1,4,25.79v106.75a20.16,20.16,0,0,0,5.6,14.59,19.11,19.11,0,0,0,14.39,5.8,19.3,19.3,0,0,0,14.2-5.8,19.8,19.8,0,0,0,5.8-14.59V1117.1Q726.66,1092.71,720.46,1072.92Z"/><path class="cls-10" d="M254.65,1023l-18.39,18.4a8.73,8.73,0,0,0-1.59,10.11l0,.06q11.79,23.6,11.79,53.17t-11.79,53.18q-11.8,23.59-32.58,37.18t-48,13.59q-26.79,0-47.58-13.59a90.17,90.17,0,0,1-7.55-5.52,8.66,8.66,0,0,0-11.57.64l-17,17a8.73,8.73,0,0,0,.77,13,131.24,131.24,0,0,0,28.92,17.51q24.8,11,54,11,29.58,0,54.37-11a129.82,129.82,0,0,0,43-30.58,139.79,139.79,0,0,0,28.19-45.78,165.19,165.19,0,0,0,0-113.15,146.52,146.52,0,0,0-11.44-23.54A8.71,8.71,0,0,0,254.65,1023Z"/><path class="cls-10" d="M55.28,1092.91a8.71,8.71,0,0,0,8.61-7.53,110,110,0,0,1,10.29-34.05,91.86,91.86,0,0,1,32.38-37q20.79-13.59,47.58-13.6,27.18,0,48,13.6a89.77,89.77,0,0,1,10,7.54,8.64,8.64,0,0,0,11.79-.46l17-17a8.72,8.72,0,0,0-.56-12.82,130.9,130.9,0,0,0-31.78-19.88q-24.8-11-54.37-11a131.8,131.8,0,0,0-54,11,130,130,0,0,0-43,30.59,137,137,0,0,0-28,45.78,152.93,152.93,0,0,0-8.51,35.09,8.68,8.68,0,0,0,8.64,9.69Z"/><path class="cls-10" d="M74.18,1157.88a111.84,111.84,0,0,1-10.37-34.57,8.7,8.7,0,0,0-8.61-7.55h-26a8.68,8.68,0,0,0-8.64,9.66,153.11,153.11,0,0,0,8.6,35.86A141.93,141.93,0,0,0,42.44,1188a8.69,8.69,0,0,0,13.46,1.43l18.29-18.29a8.7,8.7,0,0,0,1.51-10.25C75.18,1159.89,74.67,1158.89,74.18,1157.88Z"/></g></svg>