<svg xmlns="http://www.w3.org/2000/svg" viewBox="0 0 1400 1400"><defs><style>.cls-1{fill:#8fd0f2;}.cls-2{fill:#b3d897;}.cls-3{fill:#f37b7d;}.cls-4{fill:#f7a4a5;}.cls-5{fill:#f15a5b;}.cls-6{fill:#57b1e3;}.cls-7{fill:#87c65b;}.cls-8{fill:#83caf0;}.cls-9{fill:#94cb6b;}.cls-10{fill:#fcf6e4;}</style></defs><g id="Layer_18" data-name="Layer 18"><path class="cls-1" d="M272.15,457.92c.37,0,.73,0,1.11.05.42,2,.83,4.09,1.34,6.53h4.72q99.63,0,199.27-.09c2.47,0,4.94-1.27,7.41-2-.89,1.29-1.51,3.2-2.73,3.73a16.46,16.46,0,0,1-6.36.94q-98.71.06-197.42,0a65.34,65.34,0,0,1-7.34-.8Z"/><path class="cls-2" d="M272.15,534.59a41.36,41.36,0,0,1,5.92-.84q100.49-.07,201-.1c4.63,0,6.48,1,7.56,6.2,2.3,11.16,6.13,22,9.27,33,.62,2.2,1,4.48,1.45,6.72-1-1.25-2.33-2.37-3-3.79a49.54,49.54,0,0,1-2.81-8.28c-2.2-9.06-4.23-18.16-6.33-27.25-.58-1.27-1.17-2.54-1.74-3.81a38.61,38.61,0,0,0-5.81-.86q-98.1-.07-196.21,0c-7.29,0-7.28,0-7.68,6.69,0,.25-.33.49-.52.74l-1.12,0Z"/><path class="cls-3" d="M1128.57,530.84q-3.35,26.58-6.74,53.19a18,18,0,0,1-1.45,3.85c-.21-2.16-.86-4.37-.56-6.47.86-6.07,2.35-12,3.13-18.12,1.23-9.64,2.39-19.3,3-29,.83-12.65,1.33-25.35,1.55-38,.14-8-.56-16.1-.73-24.14,0-1,.86-2,1.33-3.05l.45,2.9c.31,5.92.64,11.83,1,17.75v21.51Q1129.05,521,1128.57,530.84Z"/><path class="cls-1" d="M672.34,71.83c6.06-.33,12.12-.6,18.16-1,2.06-.14,4.08-.6,6.13-.91h6.54c1.75.31,3.49.77,5.25.92,19.07,1.62,38.15,3.18,57.21,4.79a7.58,7.58,0,0,1,2,.82l-1.84.94L762,77.3l-1.81-.85c-1.27,0-2.53-.06-3.8-.09l-2.72-.86-13.18-1-2.78-.8-12.18-.11L720,72.71l-17.83-.11-6.47,0-16.9.07C676.67,72.41,674.51,72.11,672.34,71.83Z"/><path class="cls-4" d="M731.21,929.11c0,.32,0,.65,0,1h-29c0-.55.08-1.1.13-1.65l9.23,0,12.14-.14,5.57-.1Z"/><path class="cls-4" d="M670.45,930.08c0-.32,0-.65,0-1,.32-.33.65-.65,1-1l5.57.12,12.15.14,9.22,0c0,.55.09,1.08.14,1.63Z"/><path class="cls-4" d="M1128.57,530.84c.31-6.55.64-13.08,1-19.63v19.64Z"/><path class="cls-4" d="M1129.52,489.71c-.31-5.92-.64-11.83-1-17.75l1,0Z"/><path class="cls-3" d="M698.5,930.08c0-.55-.09-1.08-.14-1.63l4,0c-.05.55-.09,1.1-.14,1.65Z"/><path class="cls-5" d="M702.37,928.43c-1.33,0-2.67,0-4,0l-9.22,0L677,928.27l-5.57-.12c-1.06-.59-2.09-1.6-3.19-1.69-2.73-.18-5.49,0-8.23.12-.58,0-1.16,0-1.74,0l-4.64-.18-2.77-.07c-1.82-3-4.17-2.1-6.58-.92l-1.8-.1-2.88-.76-1.83-.1-9.37-1.77-2.77-.11c-.76-.59-1.45-1.54-2.31-1.71q-11.49-2.51-23.06-4.75c-2.44-.47-4.94-.65-7.4-1l-1.8-.13c-.46-.55-.83-1.41-1.41-1.59q-8.35-2.52-16.79-4.85c-4.56-1.27-9.14-2.44-13.71-3.66h0l-1.81-.85-2.78.53-1.79-.79c-.6-.56-1.11-1.36-1.82-1.66-5.69-2.3-11.57-4.15-17.09-6.77-11.12-5.26-22-11-33.1-16.36a56.8,56.8,0,0,0-6.84-2.34l0,0L487.3,873v0l-1.94-1c-.59-.31-1.19-.61-1.77-.93l-2.82-1.8v0L462.1,857l0,0-2.81-1.82h0l-2.79-1.86h0c-1.86-1.25-3.72-2.49-5.57-3.75l0,0-7.44-5.61,0,0-3.77-3.73c-.76-1.23-1.27-2.74-2.31-3.66-3.54-3.13-7.26-6.06-11.15-9.25,4-4.31,7.65-8.36,11.48-12.17,8.35-8.35,16.9-16.51,25.22-24.88,9.81-9.9,19.36-20.07,29.19-30,13.9-13.94,28-27.69,41.9-41.61,1.1-1.1,1.41-3,2.08-4.48,4-4.31,7.77-8.78,11.9-12.92Q622.15,627,696.44,552.75,744.29,504.9,792.1,457a5.4,5.4,0,0,1,1.19-.7c3.13.75,4.36-.44,3.65-3.6,2.68-2.71,5.36-5.4,8-8.11,2.91,1.52,1.75-1,2.12-2.09,1.21-1.2,2.41-2.41,3.62-3.6.91-.07,2.19.26,2.69-.23,5.24-5.05,10.4-10.17,15.44-15.43.77-.81.77-2.36,1.12-3.57.5-.48,1-1,1.48-1.46,1.87-1,4.1-1.67,5.55-3.11Q929.65,322.63,1022.17,230c4-4,5-4,7.92.06,10.82,15.06,22.12,29.79,32.18,45.34,8.74,13.49,16.37,27.72,23.88,41.95,4.21,8,7.33,16.57,10.62,25,3.94,10.11,7.89,20.25,11.19,30.58,3.09,9.7,5.45,19.64,7.94,29.52,1.89,7.45,4,14.88,5.11,22.44,2,13.31,3.22,26.71,4.9,40.06.12.87,1.41,1.58,2.15,2.38,0,.55,0,1.11.09,1.66-.47,1-1.36,2-1.34,3.05.18,8.05.87,16.1.74,24.14q-.32,19-1.56,38c-.64,9.68-1.8,19.36-3,29-.77,6.09-2.27,12.07-3.13,18.13-.3,2.08.35,4.3.56,6.47-.17.91-.36,1.81-.55,2.72-3.61.93-3.1,2.68-.93,4.76L1118,599c-3.56.92-3.47,2.63-1,4.83l-.18,1.65c-3,1.26-4.64,2.88-1.69,5.83l-.84,2.63c-2.37.33-3.81,1-1,3.06l-.9,3.48c-.76.42-2,.67-2.2,1.28q-5.88,17.13-11.47,34.37c-.34,1,.3,2.4.48,3.63-.28.61-.57,1.21-.86,1.82l-2,.87,1,1.3c-.24.54-.47,1.09-.7,1.64-2.64.13-2.92,1.5-1.87,3.57-.05.4-.09.81-.14,1.21-.82,1.2-1.64,2.43-2.46,3.64a6.54,6.54,0,0,0-.84,1.08c-6.89,13.35-13.28,27-20.79,40-7,12-14.9,23.54-22.85,35-6.27,9-12.52,18.2-20,26.18-14.79,15.84-30,31.4-45.85,46.15a305.69,305.69,0,0,1-36.4,29.11c-15.63,10.58-32.15,19.89-48.61,29.19a227.12,227.12,0,0,1-29.4,14.18c-18.07,7-36.47,13.11-54.73,19.61-.86-.21-1.81-.76-2.58-.59-6.26,1.46-12.51,3-18.73,4.65a52.59,52.59,0,0,0-5.89,2.33l-1.83.09-8.44,1.8c-.62,0-1.23.08-1.84.12-3.35-.6-6.69-1.16-9.38,1.75l-2.77.1c-3.7-1-7.27-1.1-10.31,1.78l-3.7.1-3.83.76-3.67.09c-3.55-.93-7.14-2.45-10.32.89l-5.57.1-12.14.14C708.52,928.42,705.45,928.43,702.37,928.43Z"/><path class="cls-6" d="M678.84,72.7l16.89-.08,6.47,0L720,72.7c1.42,3.12,3.49,1.93,5.54.85l12.18.11,2.78.8q6.59.53,13.18,1l2.73.86,3.8.09,1.81.85,3.8.08,3.71.8c5.88,1.3,11.8,2.42,17.64,3.9,15.82,4.06,31.85,7.52,47.34,12.62,16,5.26,31.47,12.18,47.17,18.36,2.65,1.5,5.3,3,7.92,4.49,13,7.63,26,15.48,39.14,22.85,15.64,8.74,29.23,20.23,43.35,31,3.1,2.37,2.21,3.83.06,5.82-4.42,4.14-8.92,8.19-13.19,12.48-9,9-17.8,18.24-26.75,27.33-9.14,9.29-18.36,18.51-27.5,27.8-.37.39-.37,1.15-.55,1.73h0l-4.67,4.68L862.9,288.85c-2.92,3-5.81,6-8.71,9l-.61.72-1.14,1.15-.72.72a2.08,2.08,0,0,0-.21.21c-.24.21-.49.41-.73.63l-22.3,21.54L821,320.18l-2.68-1.79c-1-.68-1.95-1.34-2.92-2l-2.68-1.75c-.85-2.95-2.4-4.58-5.67-3l-1.41-.71c1-3.38-1.77-2.3-3.23-2.78-5.06-2.69-10-5.7-15.22-8-16.95-7.48-34.83-12-52.87-15.9-2.12-.46-4.5.26-6.76.43l-1.72-.12c-1.33-.49-2.66-1-4-1.47-2.8-3.46-6-2-9.26-.81H687.33c-3.52-1.17-7.05-2.63-10.2.81l-4,1.48-1.72.16c-1.34-.23-2.78-.94-4-.64-15.07,3.75-30.65,6.28-45,11.83-21.23,8.19-41.27,19.07-59.12,33.65a229.47,229.47,0,0,0-44.91,48.71c-13,19.06-22,40.14-28.71,62.16-.32,1,.22,2.28.36,3.43-.07.58-.14,1.15-.2,1.74-2.68,1.68-3.17,3.93-1.71,6.67,0,.59-.11,1.16-.16,1.75-2.7,1.68-3.16,3.92-1.7,6.67-.06.58-.12,1.15-.18,1.74-2.47.69-4.94,1.95-7.41,2q-99.63.17-199.27.08h-4.72c-.49-2.44-.92-4.48-1.34-6.53.27-3.38.55-6.75.82-10.15,3.68-1.68,1.36-4.35,1.11-6.68.1-.89.2-1.79.29-2.69.7-1.32,1.74-2.57,2-4q2.55-12.88,4.77-25.83c.6-3.48.8-7,1.19-10.56.07-.59.13-1.19.21-1.77,2.29-1.4,3.2-3.19,1.67-5.71.06-.59.14-1.19.2-1.77a13.43,13.43,0,0,0,3.55-11.32c.06-.59.12-1.17.2-1.77.77-.7,1.94-1.25,2.24-2.11,3.23-9,6.24-18.16,9.45-27.21,7.35-20.73,17.21-40.27,28.16-59.31,2.82-4.89,5.1-10.09,7.63-15.15l0,0a25.55,25.55,0,0,0,3.87-3.68c4.7-6.72,8.91-13.81,13.91-20.31a529.76,529.76,0,0,1,50.74-57.53c.88-.86,1.13-2.39,1.67-3.63L409.8,184l4.6-3.76,1-.93c1.53-1.25,3.08-2.49,4.61-3.75l1.93-1.87,4.62-3.76h0c1.86-1.56,3.73-3.1,5.58-4.66l2.9-2.77,3.67-2.79,0,0,3.71-2.76,0,0,6.49-4.68,0,0c5-3,10-5.85,14.87-9a50.34,50.34,0,0,0,5.69-5l0,0,7.45-4.64,0,0a53.66,53.66,0,0,0,5.6-2.1c17.69-8.79,35.14-18.09,53.09-26.29a268.1,268.1,0,0,1,34.87-12.74c15.67-4.66,31.64-8.33,47.48-12.43l2.81-.78,3.79-.15,1.9-.75,2.73-.19c.94-.26,1.87-.52,2.81-.8l3.79-.14,2.75-.79,3.79-.17,1.84-.77,4.71-.16c2.07,1.25,4.1,2.27,5.56-.78l3.74-.19,3.75-.75,8.4-.16C673.38,74.64,676.32,76,678.84,72.7Z"/><path class="cls-7" d="M273.27,543c.19-.25.51-.49.52-.74.4-6.69.4-6.69,7.68-6.69q98.1,0,196.21,0a39.18,39.18,0,0,1,5.81.86c.59,1.27,1.17,2.55,1.74,3.82,2.1,9.09,4.13,18.19,6.33,27.25a50.46,50.46,0,0,0,2.81,8.28c.63,1.42,1.95,2.53,3,3.79.37,1.5.76,3,1.13,4.53.64,2,.94,4.25,2,6.09,6,10.93,12,21.91,18.48,32.58,2.35,3.87,2,6-1.14,9.13-25.51,25.28-50.84,50.74-76.23,76.12q-32.14,32.13-64.32,64.22c-1.27,1.28-2.64,2.46-3.79,3.53l-6.72-5.62-1.83-2L363,765.48l0,0a32.39,32.39,0,0,0-2.28-5c-9.91-14.77-20.72-29-29.64-44.37a540.72,540.72,0,0,1-26.11-51.65,265.52,265.52,0,0,1-17.26-50.91c-3.32-15.08-6.6-30.18-10-45.25a38.61,38.61,0,0,0-2.25-5.82l-.24-3.61c-.24-1-.49-2-.72-2.94-.08-1.19-.15-2.39-.24-3.6l-.49-2.06C273.54,547.84,273.41,545.4,273.27,543Z"/><path class="cls-3" d="M1128.05,467.41c-.75-.79-2-1.51-2.15-2.38-1.68-13.34-2.94-26.76-4.9-40.06-1.12-7.57-3.21-15-5.11-22.44-2.5-9.87-4.85-19.82-7.94-29.52-3.3-10.33-7.26-20.47-11.19-30.58-3.3-8.44-6.41-17-10.63-25-7.5-14.24-15.13-28.48-23.87-41.95-10.07-15.55-21.38-30.28-32.19-45.34-2.93-4.08-3.94-4-7.91-.07Q929.6,322.64,837,415.14c-1.45,1.44-3.68,2.09-5.55,3.11a41.05,41.05,0,0,1,3.09-3.95q93.66-93.74,187.38-187.42c4.73-4.72,5-4.58,9,.63,5.87,7.58,12.38,14.71,17.85,22.56,7.69,11,15.37,22.19,21.82,34,9.3,17,18,34.34,26,51.94,11.39,24.85,19,51,24.17,77.81,3,15.77,5.06,31.72,7.43,47.62C1128.56,463.34,1128.13,465.4,1128.05,467.41Z"/><path class="cls-2" d="M366.68,770.14l6.72,5.62c1.15-1.07,2.52-2.26,3.79-3.53L441.5,708q38.1-38.09,76.23-76.12c3.12-3.09,3.49-5.26,1.15-9.13-6.48-10.67-12.45-21.65-18.49-32.59-1-1.83-1.32-4-1.94-6.08a29.08,29.08,0,0,1,3.07,3.73c6.76,11.83,13.3,23.81,20.28,35.51,2,3.31,1.89,5.27-.85,8q-34.28,34-68.33,68.24Q427.41,724.77,402.2,750c-8.41,8.44-16.71,17-25,25.5-3.15,3.22-5,3.14-7.7-.7C368.43,773.32,367.6,771.7,366.68,770.14Z"/><path class="cls-1" d="M490,443.9c-.14-1.15-.66-2.42-.36-3.43,6.74-22,15.73-43.1,28.71-62.16a229.47,229.47,0,0,1,44.91-48.71C581.08,315,601.1,304.14,622.33,296c14.39-5.55,30-8.08,45-11.83,1.19-.3,2.65.41,4,.64-3.69.8-7.4,1.57-11.07,2.41a266.69,266.69,0,0,0-47.51,15c-33,14.17-59.83,35.7-82.35,63.25-16.27,19.9-27.54,42.46-36.28,66.44C492.7,435.82,491.34,439.87,490,443.9Z"/><path class="cls-8" d="M904.19,246.62c.17-.59.16-1.35.55-1.74,9.15-9.28,18.36-18.51,27.5-27.8C941.18,208,950,198.8,959,189.76c4.26-4.29,8.76-8.34,13.19-12.48,2.13-2,3-3.45-.06-5.82-14.13-10.81-27.7-22.32-43.35-31-13.19-7.37-26.1-15.22-39.14-22.85-2.62-1.54-5.27-3-7.92-4.49l.11-1.46c16.52,9.1,33.45,17.54,49.45,27.5,14,8.73,26.92,19.15,40.34,28.82.12.09.23.21.35.31,6.39,5.28,6.4,5.51.62,11.29q-32,32-64,63.94A37.12,37.12,0,0,1,904.19,246.62Z"/><path class="cls-3" d="M536,714.16c-.67,1.51-1,3.38-2.08,4.48-13.91,13.92-28,27.67-41.9,41.61-9.84,9.88-19.38,20-29.19,30-8.32,8.39-16.87,16.54-25.22,24.88-3.83,3.83-7.43,7.87-11.48,12.17,3.89,3.19,7.61,6.12,11.15,9.25,1,.92,1.56,2.43,2.31,3.66l-1,.13c-4.3-3.28-8.61-6.54-12.88-9.84-2.75-2.13-2.43-4.23,0-6.58,8.9-8.78,17.71-17.67,26.55-26.52q40-40,79.91-80C533.33,716.18,534.74,715.24,536,714.16Z"/><path class="cls-2" d="M275.38,562.47a42.72,42.72,0,0,1,2.25,5.83c3.41,15.07,6.69,30.16,10,45.25a265.29,265.29,0,0,0,17.26,50.91A543.06,543.06,0,0,0,331,716.11c8.92,15.35,19.73,29.59,29.64,44.37a33.93,33.93,0,0,1,2.28,5c-3.32-3.82-7-7.41-9.89-11.5-14.63-20.54-28.26-41.77-38.84-64.71-7.12-15.41-13.34-31.23-19.64-47-9.77-24.49-14.32-50.36-19.38-76.08A14,14,0,0,1,275.38,562.47Z"/><path class="cls-1" d="M881.82,111.61l-.11,1.46C866,106.88,850.55,100,834.54,94.7,819,89.6,803,86.14,787.19,82.09c-5.83-1.5-11.75-2.62-17.64-3.91,0-.51,0-1,0-1.54,4.59.61,9.22,1,13.74,1.89,20.12,4.19,40,9.35,59.24,16.61,11,4.14,21.91,8.5,32.82,12.88A56.4,56.4,0,0,1,881.82,111.61Z"/><path class="cls-1" d="M727.52,284.71c2.25-.17,4.63-.89,6.75-.43,18,3.89,35.92,8.42,52.87,15.9,5.24,2.31,10.16,5.31,15.22,8,0,.36-.06.71-.08,1.07-9.78-4.29-19.28-9.49-29.4-12.65-14.09-4.4-28.66-7.26-43-10.81A12.66,12.66,0,0,1,727.52,284.71Z"/><path class="cls-4" d="M493.87,876.66a58.17,58.17,0,0,1,6.85,2.35c11.06,5.39,22,11.09,33.1,16.35,5.52,2.62,11.4,4.48,17.09,6.77.71.29,1.22,1.09,1.82,1.66-6-2-12.13-3.53-17.8-6.13-13.08-6-25.92-12.52-38.82-18.89A11.1,11.1,0,0,1,493.87,876.66Z"/><path class="cls-3" d="M592.84,915.15c2.47.31,5,.47,7.41.94q11.55,2.25,23.06,4.75c.85.19,1.53,1.12,2.31,1.72l-1.91.93-6.46-1.18-2.89-.69-2.7-.29c-.67-.21-1.31-.42-2-.65l-1.79-.25-1.95-.68-6.46-1.18-2-.69c-1.52-.39-3-.78-4.57-1.15C592.92,916.19,592.88,915.67,592.84,915.15Z"/><path class="cls-3" d="M830,419.7c-.34,1.21-.34,2.75-1.12,3.56q-7.55,7.88-15.43,15.44c-.5.48-1.78.16-2.69.22Q820.35,429.3,830,419.7Z"/><path class="cls-3" d="M559.15,904.9c4.57,1.22,9.15,2.39,13.71,3.66q8.42,2.34,16.79,4.85c.58.18.94,1,1.41,1.59l-1,.94-1.77-.25c-3.16-1.28-6.27-2.81-9.52-3.79-4.58-1.37-9.28-2.31-13.93-3.45-1.55-.6-3.12-1.18-4.68-1.78C559.81,906.1,559.48,905.5,559.15,904.9Z"/><path class="cls-1" d="M687.28,282.32h25.24c0,.47,0,1,0,1.43h-25.3C687.26,283.27,687.26,282.79,687.28,282.32Z"/><path class="cls-4" d="M462.08,857q9.35,6.08,18.65,12.16Z"/><path class="cls-4" d="M564.82,908.46c4.65,1.14,9.35,2.09,13.92,3.46,3.27,1,6.36,2.5,9.53,3.79Z"/><path class="cls-3" d="M660,926.58c2.74-.07,5.5-.3,8.23-.12,1.09.08,2.13,1.09,3.19,1.69l-1,1-10.18-.31C660.2,928.06,660.1,927.33,660,926.58Z"/><path class="cls-8" d="M687.28,282.32c0,.47,0,1,0,1.43l-7.47.22-2.69-.85C680.23,279.69,683.76,281.14,687.28,282.32Z"/><path class="cls-8" d="M712.54,283.74c0-.47,0-1,0-1.43,3.22-1.21,6.46-2.65,9.26.81l-2.7.85Z"/><path class="cls-3" d="M628.39,922.65l9.37,1.77-1.9.91-3.65-.26Z"/><path class="cls-8" d="M821,320.21l7.49,2.66C824.58,325.88,823.26,321.7,821,320.21Z"/><path class="cls-4" d="M443.4,843.94l7.44,5.61Z"/><path class="cls-3" d="M644.27,925.39c2.4-1.18,4.76-2.08,6.58.93-1,.29-1.88.59-2.83.91l-3.63-.29C644.35,926.42,644.3,925.9,644.27,925.39Z"/><path class="cls-4" d="M628.39,922.65l3.82,2.42-8.5-1.61,1.91-.92C626.54,922.59,627.46,922.63,628.39,922.65Z"/><path class="cls-1" d="M486.18,460.72c-1.47-2.74-1-5,1.7-6.66C487.3,456.27,486.74,458.49,486.18,460.72Z"/><path class="cls-1" d="M488,452.31c-1.46-2.74-1-5,1.71-6.67Z"/><path class="cls-8" d="M807,311.67c3.27-1.59,4.83.05,5.68,3Z"/><path class="cls-4" d="M487.29,873l6.56,3.68C491.67,875.42,489.49,874.18,487.29,873Z"/><path class="cls-1" d="M677.08,283.12l2.69.85-6.69.63Z"/><path class="cls-1" d="M719.09,284c.9-.29,1.79-.58,2.7-.85,1.34.48,2.67,1,4,1.47Z"/><path class="cls-3" d="M797,452.72c.71,3.17-.53,4.34-3.65,3.6Z"/><path class="cls-3" d="M653.62,926.37l4.63.18-1.82,1.59-2.7-.24C653.69,927.4,653.65,926.88,653.62,926.37Z"/><path class="cls-8" d="M899.51,251.29l4.68-4.67Z"/><path class="cls-4" d="M653.62,926.37l.11,1.53-5.71-.7,2.83-.91C651.77,926.33,652.69,926.35,653.62,926.37Z"/><path class="cls-4" d="M450.85,849.56l5.58,3.75C454.57,852.07,452.71,850.81,450.85,849.56Z"/><path class="cls-4" d="M559.15,904.9c.32.6.66,1.18,1,1.78l-5.6-2.11,2.78-.53,1.81.85Z"/><path class="cls-4" d="M438.6,840.31c.34,0,.67-.09,1-.12l3.76,3.72Z"/><path class="cls-8" d="M769.53,76.63c0,.51,0,1,0,1.54l-3.7-.8,1.85-.93Z"/><path class="cls-4" d="M656.43,928.14c.61-.53,1.23-1.06,1.82-1.59l1.75,0c.1.75.19,1.48.29,2.22Z"/><path class="cls-8" d="M802.28,309.26c0-.36.06-.71.08-1.07,1.46.47,4.27-.61,3.23,2.77C804.5,310.38,803.39,309.82,802.28,309.26Z"/><path class="cls-3" d="M639.59,924.53l2.88.76-1,1-1.77-.22C639.65,925.57,639.63,925,639.59,924.53Z"/><path class="cls-4" d="M639.59,924.53c0,.51.06,1,.1,1.55l-3.83-.74,1.9-.91Z"/><path class="cls-8" d="M815.37,316.42l2.91,2Z"/><path class="cls-3" d="M807.11,442.52c-.36,1.05.79,3.62-2.12,2.1C805.71,443.92,806.4,443.22,807.11,442.52Z"/><path class="cls-4" d="M590.05,916c.34-.32.66-.64,1-1l1.79.14c0,.52.08,1,.1,1.58Z"/><path class="cls-2" d="M274.41,555.93c.23,1,.48,2,.72,2.94C274.89,557.9,274.64,556.91,274.41,555.93Z"/><path class="cls-4" d="M614.36,921.6c1,.24,1.93.48,2.89.7Z"/><path class="cls-4" d="M641.47,926.3c.34-.33.68-.67,1-1l1.8.1c0,.51.08,1,.12,1.55Z"/><path class="cls-4" d="M480.76,869.21l2.82,1.81C482.63,870.42,481.69,869.82,480.76,869.21Z"/><path class="cls-2" d="M362.94,765.46l1.91,2.68Z"/><path class="cls-4" d="M459.24,855.2c.94.61,1.89,1.2,2.82,1.82C461.13,856.4,460.19,855.79,459.24,855.2Z"/><path class="cls-4" d="M456.44,853.33l2.79,1.85Z"/><path class="cls-4" d="M606,919.73l1.95.69Z"/><path class="cls-2" d="M273.68,550.28l.49,2.06Z"/><path class="cls-4" d="M609.69,920.67l2,.65C611,921.09,610.35,920.88,609.69,920.67Z"/><path class="cls-4" d="M485.33,872l1.95,1C486.63,872.61,486,872.27,485.33,872Z"/><path class="cls-4" d="M597.53,917.88l2,.69Z"/><path class="cls-1" d="M853.56,298.64l.61-.72C854,298.15,853.76,298.39,853.56,298.64Z"/><path class="cls-1" d="M850.76,301.33l.72-.62C851.24,300.92,851,301.13,850.76,301.33Z"/><path class="cls-1" d="M851.71,300.5l.72-.73Z"/><path class="cls-1" d="M618.09,80.05c-15.85,4.09-31.82,7.76-47.49,12.43a268.5,268.5,0,0,0-34.86,12.74c-18,8.21-35.41,17.51-53.1,26.3a56,56,0,0,1-5.6,2.09c6.64-4.13,13-8.85,20-12.27,16.65-8.15,33.34-16.33,50.5-23.26,12.67-5.11,26.07-8.45,39.24-12.24,9-2.59,18.17-4.6,27.28-6.82a32.62,32.62,0,0,1,4.09-.49C618.11,79.05,618.1,79.54,618.09,80.05Z"/><path class="cls-8" d="M407,186.82c-.53,1.22-.78,2.75-1.67,3.62A529,529,0,0,0,354.58,248c-5,6.49-9.22,13.57-13.92,20.3-1,1.44-2.56,2.46-3.86,3.68,5.31-8.29,10.16-16.93,16-24.79,8.32-11.15,17-22.12,26.27-32.47C387.86,204.93,397.65,196.08,407,186.82Z"/><path class="cls-8" d="M336.76,272c-2.53,5.06-4.81,10.27-7.63,15.15-11,19-20.8,38.58-28.16,59.31-3.2,9.05-6.22,18.16-9.45,27.21-.31.86-1.47,1.41-2.24,2.11,2-6.72,3.54-13.67,6.21-20.12,7.26-17.63,14.62-35.25,22.72-52.5,4.76-10.13,11-19.57,16.64-29.29A10.28,10.28,0,0,1,336.76,272Z"/><path class="cls-8" d="M283.46,398.11c-.39,3.51-.59,7.07-1.19,10.56q-2.22,12.93-4.77,25.83c-.28,1.39-1.34,2.64-2,4Q279.46,418.27,283.46,398.11Z"/><path class="cls-1" d="M642.45,76.29l-3.79.17-2.76.79-3.79.15c0-.32,0-.66,0-1q13.11-1.75,26.22-3.54c0,.52,0,1,0,1.53l-3.74.18-5.56.79-4.71.16C643.68,75.79,643.07,76,642.45,76.29Z"/><path class="cls-1" d="M469.53,138.3a52.28,52.28,0,0,1-5.7,5c-4.86,3.16-9.9,6-14.87,9,4.35-3.28,8.62-6.66,13.09-9.78A82.46,82.46,0,0,1,469.53,138.3Z"/><path class="cls-8" d="M289.09,377.54a13.43,13.43,0,0,1-3.55,11.32Q287.31,383.19,289.09,377.54Z"/><path class="cls-1" d="M670.45,73.49c-2.81,0-5.6.11-8.41.16l-1.88-.94L670.47,72C670.46,72.49,670.46,73,670.45,73.49Z"/><path class="cls-8" d="M670.45,73.49c0-.5,0-1,0-1.51l1.87-.17,6.5.88C676.32,76,673.38,74.64,670.45,73.49Z"/><path class="cls-1" d="M629.31,78.2l-2.73.17-1.91.75-3.79.15c0-.32,0-.65,0-1l8.45-1.63C629.32,77.16,629.32,77.67,629.31,78.2Z"/><path class="cls-8" d="M275.18,441.14c.26,2.33,2.57,5-1.11,6.68C274.44,445.6,274.82,443.37,275.18,441.14Z"/><path class="cls-1" d="M477,133.63l-7.46,4.64Q473.3,136,477,133.63Z"/><path class="cls-1" d="M448.93,152.3,442.44,157C444.61,155.41,446.78,153.86,448.93,152.3Z"/><path class="cls-1" d="M432.09,165.37c-1.86,1.56-3.73,3.11-5.58,4.67Z"/><path class="cls-8" d="M285.34,390.63c1.52,2.52.61,4.31-1.67,5.71C284.22,394.43,284.78,392.52,285.34,390.63Z"/><path class="cls-1" d="M426.49,170.05l-4.61,3.75C423.41,172.55,425,171.31,426.49,170.05Z"/><path class="cls-1" d="M420,175.67c-1.53,1.25-3.08,2.49-4.61,3.75Z"/><path class="cls-1" d="M414.35,180.35c-1.53,1.24-3.07,2.49-4.6,3.75C411.27,182.85,412.81,181.61,414.35,180.35Z"/><path class="cls-8" d="M660.16,72.72c.62.32,1.25.63,1.88.94l-3.75.75c0-.51,0-1,0-1.52C658.93,72.82,659.55,72.77,660.16,72.72Z"/><path class="cls-8" d="M620.88,78.28c0,.33,0,.65,0,1l-2.8.78c0-.51,0-1,0-1.52Z"/><path class="cls-8" d="M629.31,78.2c0-.51,0-1,0-1.54l2.77-.23c0,.32,0,.66,0,1C631.18,77.66,630.24,77.92,629.31,78.2Z"/><path class="cls-1" d="M442.41,157q-1.86,1.38-3.71,2.77C439.93,158.85,441.18,157.93,442.41,157Z"/><path class="cls-1" d="M438.67,159.8c-1.22.94-2.45,1.86-3.67,2.79Z"/><path class="cls-4" d="M812.6,914.29c18.26-6.49,36.66-12.61,54.73-19.61a227.12,227.12,0,0,0,29.4-14.18c16.46-9.3,33-18.61,48.61-29.19a306.09,306.09,0,0,0,36.4-29.11c15.88-14.75,31.06-30.31,45.85-46.15,7.46-8,13.72-17.17,20-26.18,7.94-11.43,15.88-22.94,22.85-35,7.51-13,13.9-26.63,20.79-40a8.57,8.57,0,0,1,.84-1.09l1.23.28c-4.31,9.26-7.89,19-13.09,27.7-11.61,19.5-23.5,38.84-36.29,57.57-7.38,10.81-16.35,20.62-25.26,30.28a382.54,382.54,0,0,1-29.57,29.48c-13.12,11.48-26.75,22.51-40.93,32.64a449.9,449.9,0,0,1-43.89,27.77,354.78,354.78,0,0,1-43.43,20c-17.55,6.78-35.65,12.11-53.53,18a4,4,0,0,1-1.37-.06C808.15,916.47,810.38,915.38,812.6,914.29Z"/><path class="cls-3" d="M1099.12,659.77c-.18-1.21-.82-2.58-.48-3.62q5.56-17.25,11.47-34.37c.21-.61,1.44-.86,2.2-1.29-3,9.94-6,19.91-9.13,29.8A99.69,99.69,0,0,1,1099.12,659.77Z"/><path class="cls-3" d="M812.6,914.29l-6.68,3.26-1.79.3-2,.71-2.72.23-2,.66q-.88.12-1.77.27l-5.7,1.6-2.7.28-1.91-.92a53.08,53.08,0,0,1,5.9-2.32c6.2-1.66,12.45-3.19,18.72-4.65C810.79,913.53,811.74,914.07,812.6,914.29Z"/><path class="cls-3" d="M729.31,928.17c3.18-3.34,6.77-1.82,10.32-.89,0,.51-.08,1-.12,1.53l-8.3.31Z"/><path class="cls-3" d="M750.83,926.32c3-2.88,6.59-2.77,10.31-1.79,0,.51-.06,1-.1,1.55l-1.78.22-2.91.63-3.64.3C752.09,926.94,751.46,926.63,750.83,926.32Z"/><path class="cls-3" d="M763.91,924.43c2.69-2.91,6-2.34,9.38-1.74,0,.51-.06,1-.1,1.53-.6.06-1.18.14-1.78.21l-2,.61-3.64.3Z"/><path class="cls-3" d="M775.14,922.56l8.44-1.79c0,.52-.06,1.05-.1,1.57l-1.78.22-2,.6-3.62.35C775.77,923.2,775.46,922.89,775.14,922.56Z"/><path class="cls-3" d="M1115.09,611.34c-2.95-3-1.27-4.59,1.69-5.83Z"/><path class="cls-3" d="M1118.9,595.35c-2.17-2.07-2.68-3.83.93-4.76Z"/><path class="cls-3" d="M1117,603.86c-2.42-2.2-2.51-3.92,1-4.83C1117.65,600.63,1117.31,602.24,1117,603.86Z"/><path class="cls-4" d="M750.83,926.32l1.88.92L747,928l.12-1.53Z"/><path class="cls-4" d="M739.51,928.81c0-.51.09-1,.12-1.53l3.67-.09,1.93,1C743.32,928.38,741.42,928.6,739.51,928.81Z"/><path class="cls-4" d="M790,921.32l5.7-1.6C793.81,920.24,791.92,920.78,790,921.32Z"/><path class="cls-3" d="M1093.29,674.1l-1.23-.28,2.46-3.64Z"/><path class="cls-3" d="M745.23,928.17l-1.93-1c1.27-.27,2.55-.52,3.83-.76L747,928Z"/><path class="cls-4" d="M763.91,924.43l1.89.91-4.76.74c0-.53.06-1,.1-1.55C762.06,924.51,763,924.47,763.91,924.43Z"/><path class="cls-3" d="M1094.67,669c-1-2.07-.77-3.44,1.87-3.56C1095.91,666.59,1095.28,667.79,1094.67,669Z"/><path class="cls-3" d="M1113.21,617c-2.77-2.07-1.33-2.73,1-3.06C1113.91,615,1113.56,616,1113.21,617Z"/><path class="cls-4" d="M783.48,922.35c0-.52.06-1.05.1-1.57l1.83-.09c.64.31,1.27.61,1.9.93C786,921.85,784.76,922.1,783.48,922.35Z"/><path class="cls-4" d="M775.14,922.56c.32.31.63.64,1,1l-2.89.71c0-.51.06-1,.1-1.53Z"/><path class="cls-4" d="M756.36,926.94l2.91-.62C758.3,926.51,757.32,926.73,756.36,926.94Z"/><path class="cls-3" d="M1097.24,663.75l-1-1.3,2-.87Z"/><path class="cls-4" d="M797.49,919.45l2-.66Z"/><path class="cls-4" d="M802.18,918.57l2-.71Z"/><path class="cls-4" d="M779.73,923.17l2-.59Z"/><path class="cls-4" d="M769.44,925l2-.61Z"/><path class="cls-9" d="M485.23,540.23c-.58-1.27-1.17-2.54-1.74-3.81C484.06,537.69,484.65,539,485.23,540.23Z"/><path class="cls-8" d="M702.19,72.59l-6.47,0Z"/><path class="cls-8" d="M725.57,73.55c-2.05,1.08-4.12,2.27-5.55-.85Z"/><path class="cls-8" d="M756.44,76.35l-2.73-.86C754.62,75.79,755.53,76.07,756.44,76.35Z"/><path class="cls-8" d="M740.53,74.46l-2.78-.8Z"/><path class="cls-8" d="M762.05,77.29l-1.81-.85Z"/><path class="cls-3" d="M711.6,928.41l12.14-.14Z"/><path class="cls-3" d="M677,928.27l12.14.14Z"/><path class="cls-3" d="M559.12,904.9c-.6-.29-1.21-.58-1.81-.85C557.93,904.32,558.52,904.61,559.12,904.9Z"/><path class="cls-8" d="M649,75.37l5.56-.79C653.09,77.64,651.06,76.61,649,75.37Z"/><path class="cls-8" d="M635.9,77.24l2.76-.79C637.75,76.73,636.82,77,635.9,77.24Z"/><path class="cls-8" d="M642.45,76.29l1.83-.76C643.68,75.79,643.07,76,642.45,76.29Z"/><path class="cls-8" d="M624.68,79.12l1.91-.75Z"/><path class="cls-10" d="M1218.42,1211.85a21.24,21.24,0,0,1-3.2-13q.39-7.39,8.4-12.6a18,18,0,0,1,11.79-3q6.19.6,11.79,6.19a89,89,0,0,0,25,19.59q13.8,7.2,33.39,7.2a79.82,79.82,0,0,0,16.39-2.6,31.87,31.87,0,0,0,14.39-8q6-5.79,6-17,0-10-6.4-16a48.64,48.64,0,0,0-16.79-9.8q-10.39-3.8-22.39-7-12.79-3.6-25.79-8a97.93,97.93,0,0,1-23.39-11.39,55.62,55.62,0,0,1-17-18.19q-6.6-11.19-6.59-27.59,0-18.8,10.59-32.39a71.12,71.12,0,0,1,27.59-21.19,89.59,89.59,0,0,1,37-7.59,106.9,106.9,0,0,1,24.39,3,102.21,102.21,0,0,1,24.79,9.39,70.78,70.78,0,0,1,20.79,16.79,23.06,23.06,0,0,1,4.6,12.4q.6,7.2-6.6,12.79a16,16,0,0,1-11.6,3.6,17.55,17.55,0,0,1-11.19-4.4,51.56,51.56,0,0,0-19.59-15,65.57,65.57,0,0,0-27.19-5.4,61.07,61.07,0,0,0-15.79,2.2,30.18,30.18,0,0,0-13.8,7.8q-5.6,5.6-5.59,16.39,0,10,6.59,16t17.4,10a222.65,222.65,0,0,0,23.59,7.19q12.38,3.21,24.58,7.6a90.4,90.4,0,0,1,22,11.4,54.93,54.93,0,0,1,16,18q6.2,11,6.19,27.78,0,19.61-11.39,33.39a72.77,72.77,0,0,1-28.79,21,94.68,94.68,0,0,1-36.58,7.19,132.34,132.34,0,0,1-45.38-8.19Q1234,1232.25,1218.42,1211.85Z"/><path class="cls-10" d="M1167.25,1034.34a19.33,19.33,0,0,1,14.19,5.79,19.84,19.84,0,0,1,5.8,14.6v105.15q0,41.58-23.19,65t-65.57,23.39q-42,0-65-23.39t-23-65V1054.73a20.16,20.16,0,0,1,5.6-14.6,20.53,20.53,0,0,1,28.58,0,19.84,19.84,0,0,1,5.8,14.6v105.15q0,26,12.19,38.78t35.79,12.79q24,0,36.38-12.79t12.39-38.78V1054.73a20.2,20.2,0,0,1,5.6-14.6A19.14,19.14,0,0,1,1167.25,1034.34Z"/><path class="cls-10" d="M964.54,1041.73a19.15,19.15,0,0,0-14.39-5.79,18.8,18.8,0,0,0-14.4,6,21,21,0,0,0-3.43,4.92,1.62,1.62,0,0,0-.17.75V1143h0c0,.31,0,.62,0,.92q0,20.8-8.4,37.39a64.53,64.53,0,0,1-23.19,26q-14.79,9.4-34.38,9.4t-34.39-9.6a66.34,66.34,0,0,1-23.19-26q-8.39-16.39-8.39-37.19t8.39-37.18a66.51,66.51,0,0,1,23.19-26q14.79-9.59,34.39-9.59t34.38,9.39a60.67,60.67,0,0,1,6,4.37,1.66,1.66,0,0,0,2.72-1.27V1050a1.82,1.82,0,0,0-.76-1.39c-7.38-4.8-9.54-5.86-16.77-8.67a86.42,86.42,0,0,0-31.58-5.59q-27.59,0-49.78,14.19T775,1087.31q-13.2,24.59-13.19,56.57T775,1200.46q13.2,24.58,35.58,38.78t50.78,14.19a79.33,79.33,0,0,0,26.59-4.59,91.32,91.32,0,0,0,23-11.8,70.65,70.65,0,0,0,16.19-15.79h0a1.66,1.66,0,0,1,3,1v15.22q0,25.57-16.2,40.38t-48.17,14.79A80.89,80.89,0,0,1,846.2,1290a167,167,0,0,1-18.79-5.8q-8.4-3.21-12.4-4.4-8.79-3.21-15.59-1.2t-10.8,10.8a14.86,14.86,0,0,0,.2,12.79q3,6.35,12.08,11.13a1.07,1.07,0,0,1,.22.15q4.43,3.55,15.69,7.11a222.07,222.07,0,0,0,25,6.2,128.22,128.22,0,0,0,23.59,2.6q28.38,0,52.17-10A84.54,84.54,0,0,0,955.74,1288q14.4-21.4,14.4-55.38V1056.33A20.2,20.2,0,0,0,964.54,1041.73Z"/><path class="cls-10" d="M507.16,1091.31a103.18,103.18,0,0,0-53.17-54,90.9,90.9,0,0,0-37.18-7.79,94,94,0,0,0-48.38,13.39q-22.79,13.39-37,38.38t-14.2,60.18q0,31.18,13.4,55.37a96.62,96.62,0,0,0,37.78,38q24.38,13.8,57.57,13.79a101.49,101.49,0,0,0,39.78-8q19-8,29.79-18.39,8.79-7.2,8.8-16a16.48,16.48,0,0,0-4.8-11.79,16,16,0,0,0-12-5,23.13,23.13,0,0,0-11.81,3.49,2.7,2.7,0,0,0-.34.25q-4.76,3.93-11,8.26a59.45,59.45,0,0,1-16,7.39q-9.6,3-24.39,3a67.61,67.61,0,0,1-34.38-9,65.79,65.79,0,0,1-24.79-25.39,66.62,66.62,0,0,1-3.62-7.57l-.12-.28c-.48-1.19-.92-2.4-1.34-3.63,0-.11-.07-.22-.11-.34-.41-1.25-.8-2.52-1.15-3.81h0v0c-.21-.78-.41-1.56-.6-2.35,0,0,0,0,0-.07v0q-.83-3.49-1.34-7.19h0c0-.17,0-.34-.07-.52v-.06c-.05-.43-.11-.87-.16-1.31h0c0-.21-.06-.42-.08-.63s-.05-.5-.07-.75c-.06-.61-.13-1.21-.18-1.82l-.06-1c0-.54-.08-1.07-.11-1.61s0-1-.06-1.44,0-.81-.05-1.22c0-.9,0-1.8,0-2.71q0-20.4,5-34.19c.28-.78.59-1.52.89-2.27h0a56.53,56.53,0,0,1,12.71-19.92,52.22,52.22,0,0,1,19.59-12.19,69.91,69.91,0,0,1,23-3.8,60.7,60.7,0,0,1,26,5.8,56.86,56.86,0,0,1,20.79,16.39,42.5,42.5,0,0,1,9.19,24.49,1.27,1.27,0,0,1,0,.2h0a2.7,2.7,0,0,1-2.7,2.7H389.27a10.36,10.36,0,0,0-9.87,8.34,86.62,86.62,0,0,0-.92,14.45v1.17a10,10,0,0,0,10,10H495.17a20.68,20.68,0,0,0,14-5.2,17.91,17.91,0,0,0,6.39-13,2.71,2.71,0,0,0,0-.29A106.56,106.56,0,0,0,507.16,1091.31Z"/><path class="cls-10" d="M582.92,1238.84a19.8,19.8,0,0,0,5.8-14.59V1054.73a19.84,19.84,0,0,0-5.8-14.6,20.53,20.53,0,0,0-28.58,0,20.16,20.16,0,0,0-5.6,14.6v169.52a20.12,20.12,0,0,0,5.6,14.59,20.5,20.5,0,0,0,28.58,0Z"/><path class="cls-10" d="M722.86,1072.92q-6.21-19.8-21.79-31.59t-44-11.79a75.33,75.33,0,0,0-26.39,4.6,85.35,85.35,0,0,0-14.86,7.18c-3.09,1.9-4.27,2.94-4.27,6.57,0,10,0,13.48,0,14.71v8.73a2.32,2.32,0,0,0,3.47,2l.07,0q12.39-7,28.78-7,17.6,0,27.39,7a37.15,37.15,0,0,1,13.79,18.39,77.49,77.49,0,0,1,4,25.79v106.75a20.12,20.12,0,0,0,5.6,14.59,19.11,19.11,0,0,0,14.39,5.8,19.3,19.3,0,0,0,14.2-5.8,19.79,19.79,0,0,0,5.79-14.59V1117.1Q729.05,1092.71,722.86,1072.92Z"/><path class="cls-10" d="M257.05,1023l-18.39,18.4a8.73,8.73,0,0,0-1.59,10.11l0,.06q11.79,23.6,11.79,53.17t-11.79,53.18q-11.81,23.59-32.59,37.18t-48,13.59q-26.79,0-47.58-13.59a90.17,90.17,0,0,1-7.55-5.52,8.68,8.68,0,0,0-11.58.64l-17,17a8.73,8.73,0,0,0,.77,13,131.24,131.24,0,0,0,28.92,17.51q24.8,11,54,11,29.58,0,54.37-11a129.92,129.92,0,0,0,43-30.58,139.79,139.79,0,0,0,28.19-45.78,165.19,165.19,0,0,0,0-113.15,146.52,146.52,0,0,0-11.44-23.54A8.71,8.71,0,0,0,257.05,1023Z"/><path class="cls-10" d="M57.67,1092.91a8.7,8.7,0,0,0,8.61-7.53,110.58,110.58,0,0,1,10.29-34.05,92,92,0,0,1,32.39-37q20.78-13.59,47.58-13.6,27.18,0,48,13.6a89,89,0,0,1,10,7.54,8.64,8.64,0,0,0,11.79-.46l17-17a8.73,8.73,0,0,0-.56-12.82,130.9,130.9,0,0,0-31.78-19.88q-24.79-11-54.37-11a131.8,131.8,0,0,0-54,11,130,130,0,0,0-43,30.59,136.82,136.82,0,0,0-28,45.78,152.93,152.93,0,0,0-8.51,35.09,8.68,8.68,0,0,0,8.64,9.69Z"/><path class="cls-10" d="M76.57,1157.88a112.1,112.1,0,0,1-10.36-34.57,8.71,8.71,0,0,0-8.62-7.55H31.64a8.68,8.68,0,0,0-8.64,9.66,152.61,152.61,0,0,0,8.6,35.86A141.33,141.33,0,0,0,44.84,1188a8.69,8.69,0,0,0,13.46,1.43l18.29-18.29a8.7,8.7,0,0,0,1.51-10.25C77.58,1159.89,77.07,1158.89,76.57,1157.88Z"/></g></svg>