<svg xmlns="http://www.w3.org/2000/svg" viewBox="0 0 1400 1400"><defs><style>.cls-1{fill:#f9f9fa;}</style></defs><g id="Layer_32" data-name="Layer 32"><path class="cls-1" d="M267.35,457.92c.38,0,.74,0,1.11.05.43,2,.84,4.09,1.35,6.53h4.71q99.63,0,199.27-.09c2.47,0,4.94-1.27,7.41-2-.89,1.29-1.51,3.2-2.73,3.73a16.44,16.44,0,0,1-6.36.94q-98.72.06-197.41,0a65.51,65.51,0,0,1-7.35-.8Z"/><path class="cls-1" d="M267.35,534.59a41.36,41.36,0,0,1,5.92-.84q100.5-.07,201-.1c4.62,0,6.48,1,7.55,6.2,2.31,11.16,6.13,22,9.27,33,.63,2.2,1,4.48,1.45,6.72-1-1.25-2.33-2.37-2.95-3.79a48.69,48.69,0,0,1-2.82-8.28c-2.2-9.06-4.23-18.16-6.32-27.25-.59-1.27-1.17-2.54-1.75-3.81a38.42,38.42,0,0,0-5.81-.86q-98.08-.07-196.2,0c-7.3,0-7.28,0-7.68,6.69,0,.25-.34.49-.53.74l-1.12,0Z"/><path class="cls-1" d="M1123.77,530.84q-3.35,26.58-6.74,53.19a18,18,0,0,1-1.45,3.85c-.21-2.16-.86-4.37-.56-6.47.86-6.07,2.36-12,3.13-18.12,1.23-9.64,2.39-19.3,3-29,.84-12.65,1.33-25.35,1.56-38,.14-8-.56-16.1-.74-24.14,0-1,.86-2,1.34-3.05l.45,2.9q.46,8.88.94,17.75v21.51Q1124.25,521,1123.77,530.84Z"/><path class="cls-1" d="M667.54,71.83c6.06-.33,12.12-.6,18.17-1,2.06-.14,4.07-.6,6.12-.91h6.54c1.75.31,3.49.77,5.25.92,19.08,1.62,38.15,3.18,57.21,4.79a7.77,7.77,0,0,1,2.06.82l-1.85.94-3.8-.09-1.81-.85c-1.27,0-2.53-.06-3.8-.09l-2.72-.86-13.17-1-2.78-.8-12.18-.11-5.55-.85-17.84-.11-6.47,0L674,72.71C671.87,72.41,669.71,72.11,667.54,71.83Z"/><path class="cls-1" d="M726.41,929.11c0,.32,0,.65,0,1h-29c0-.55.09-1.1.14-1.65l9.22,0,12.14-.14,5.58-.1Z"/><path class="cls-1" d="M665.65,930.08c0-.32,0-.65,0-1l1-1,5.58.12,12.14.14,9.22,0c0,.55.09,1.08.14,1.63Z"/><path class="cls-1" d="M1123.77,530.84c.31-6.55.64-13.08,1-19.63v19.64Z"/><path class="cls-1" d="M1124.72,489.71c-.31-5.92-.64-11.83-1-17.75l1,0Z"/><path class="cls-1" d="M693.7,930.08c-.05-.55-.09-1.08-.14-1.63l4,0c0,.55-.08,1.1-.13,1.65Z"/><path class="cls-1" d="M697.58,928.43c-1.34,0-2.67,0-4,0l-9.22,0-12.14-.14-5.58-.12c-1-.59-2.09-1.6-3.19-1.69-2.73-.18-5.48,0-8.22.12l-1.75,0-4.64-.18-2.76-.07c-1.82-3-4.18-2.1-6.59-.92l-1.79-.1-2.88-.76-1.83-.1-9.38-1.77-2.77-.11c-.76-.59-1.44-1.54-2.3-1.71q-11.5-2.51-23.07-4.75c-2.44-.47-4.93-.65-7.4-1l-1.8-.13c-.46-.55-.83-1.41-1.4-1.59q-8.37-2.52-16.8-4.85c-4.56-1.27-9.13-2.44-13.71-3.66h0l-1.81-.85-2.78.53-1.8-.79c-.6-.56-1.11-1.36-1.82-1.66-5.68-2.3-11.57-4.15-17.09-6.77-11.12-5.26-22-11-33.1-16.36a56.21,56.21,0,0,0-6.84-2.34l0,0L482.51,873v0l-1.95-1-1.77-.93-2.82-1.8v0L457.3,857l0,0-2.82-1.82h0l-2.8-1.86h0l-5.57-3.75v0l-7.45-5.61,0,0-3.77-3.73c-.76-1.23-1.27-2.74-2.3-3.66-3.54-3.13-7.27-6.06-11.16-9.25,4.05-4.31,7.66-8.36,11.48-12.17,8.35-8.35,16.91-16.51,25.22-24.88,9.81-9.9,19.36-20.07,29.2-30,13.9-13.94,28-27.69,41.9-41.61,1.09-1.1,1.41-3,2.08-4.48,4-4.31,7.77-8.78,11.89-12.92Q617.35,627,691.64,552.75,739.49,504.9,787.31,457a5.11,5.11,0,0,1,1.18-.7c3.13.75,4.37-.44,3.66-3.6,2.68-2.71,5.36-5.4,8.05-8.11,2.9,1.52,1.74-1,2.12-2.09,1.21-1.2,2.4-2.41,3.61-3.6.91-.07,2.2.26,2.7-.23,5.23-5.05,10.39-10.17,15.43-15.43.77-.81.77-2.36,1.12-3.57.5-.48,1-1,1.48-1.46,1.87-1,4.11-1.67,5.55-3.11Q924.85,322.63,1017.37,230c4-4,5-4,7.92.06,10.82,15.06,22.13,29.79,32.19,45.34,8.74,13.49,16.37,27.72,23.87,41.95,4.21,8,7.33,16.57,10.62,25,3.94,10.11,7.89,20.25,11.2,30.58,3.09,9.7,5.44,19.64,7.94,29.52,1.88,7.45,4,14.88,5.11,22.44,2,13.31,3.21,26.71,4.9,40.06.11.87,1.41,1.58,2.14,2.38,0,.55,0,1.11.09,1.66-.46,1-1.36,2-1.33,3.05.17,8.05.87,16.1.73,24.14q-.32,19-1.56,38c-.63,9.68-1.79,19.36-3,29-.77,6.09-2.27,12.07-3.13,18.13-.3,2.08.35,4.3.57,6.47-.18.91-.37,1.81-.55,2.72-3.62.93-3.11,2.68-.94,4.76l-.9,3.67c-3.56.92-3.46,2.63-1,4.83-.07.55-.13,1.1-.19,1.65-3,1.26-4.64,2.88-1.68,5.83-.29.87-.56,1.76-.85,2.63-2.37.33-3.8,1-1,3.06-.29,1.16-.59,2.32-.89,3.48-.76.42-2,.67-2.21,1.28q-5.86,17.13-11.47,34.37c-.34,1,.3,2.4.49,3.63-.29.61-.58,1.21-.86,1.82-.68.28-1.35.57-2,.87l1,1.3c-.23.54-.47,1.09-.7,1.64-2.64.13-2.91,1.5-1.87,3.57,0,.4-.08.81-.13,1.21-.83,1.2-1.65,2.43-2.47,3.64a6.54,6.54,0,0,0-.84,1.08c-6.89,13.35-13.27,27-20.79,40-7,12-14.9,23.54-22.85,35-6.27,9-12.52,18.2-20,26.18-14.8,15.84-30,31.4-45.85,46.15a305.79,305.79,0,0,1-36.41,29.11c-15.63,10.58-32.15,19.89-48.6,29.19a227.24,227.24,0,0,1-29.41,14.18c-18.06,7-36.46,13.11-54.73,19.61-.86-.21-1.8-.76-2.58-.59-6.26,1.46-12.5,3-18.72,4.65a52.74,52.74,0,0,0-5.9,2.33l-1.83.09-8.44,1.8-1.83.12c-3.36-.6-6.7-1.16-9.39,1.75l-2.77.1c-3.7-1-7.27-1.1-10.31,1.78l-3.7.1-3.83.76-3.66.09c-3.56-.93-7.15-2.45-10.32.89l-5.58.1-12.14.14C703.72,928.42,700.66,928.43,697.58,928.43Z"/><path class="cls-1" d="M674,72.7l16.89-.08,6.47,0,17.84.11c1.42,3.12,3.49,1.93,5.55.85l12.18.11,2.78.8c4.39.35,8.79.7,13.17,1l2.73.86,3.81.09c.6.29,1.21.56,1.8.85l3.81.08,3.7.8c5.88,1.3,11.8,2.42,17.64,3.9,15.82,4.06,31.85,7.52,47.35,12.62,16,5.26,31.46,12.18,47.17,18.36,2.64,1.5,5.3,3,7.91,4.49,13,7.63,26,15.48,39.15,22.85,15.63,8.74,29.22,20.23,43.34,31,3.11,2.37,2.21,3.83.07,5.82-4.43,4.14-8.93,8.19-13.19,12.48-9,9-17.81,18.24-26.76,27.33-9.13,9.29-18.36,18.51-27.5,27.8-.37.39-.37,1.15-.55,1.73h0l-4.67,4.68L858.1,288.85c-2.91,3-5.81,6-8.71,9l-.61.72c-.37.39-.76.76-1.13,1.15l-.73.72-.21.21c-.24.21-.49.41-.72.63q-11.15,10.77-22.31,21.54l-7.49-2.67-2.68-1.79-2.91-2c-.9-.59-1.8-1.16-2.68-1.75-.85-2.95-2.41-4.58-5.68-3-.47-.24-.93-.48-1.41-.71,1-3.38-1.77-2.3-3.22-2.78-5.07-2.69-10-5.7-15.23-8-17-7.48-34.83-12-52.87-15.9-2.11-.46-4.5.26-6.75.43-.58,0-1.15-.08-1.72-.12l-4-1.47c-2.81-3.46-6-2-9.27-.81H682.53c-3.52-1.17-7-2.63-10.2.81l-4,1.48-1.72.16c-1.33-.23-2.78-.94-4-.64-15.07,3.75-30.64,6.28-45,11.83-21.23,8.19-41.26,19.07-59.12,33.65a229.74,229.74,0,0,0-44.91,48.71c-13,19.06-22,40.14-28.71,62.16-.31,1,.22,2.28.36,3.43-.06.58-.14,1.15-.2,1.74-2.68,1.68-3.17,3.93-1.71,6.67-.05.59-.11,1.16-.16,1.75-2.69,1.68-3.15,3.92-1.69,6.67-.07.58-.13,1.15-.19,1.74-2.47.69-4.94,1.95-7.41,2q-99.63.17-199.27.08h-4.71c-.5-2.44-.92-4.48-1.35-6.53.28-3.38.55-6.75.82-10.15,3.68-1.68,1.36-4.35,1.11-6.68.1-.89.2-1.79.29-2.69.7-1.32,1.75-2.57,2-4q2.56-12.88,4.77-25.83c.6-3.48.8-7,1.19-10.56l.21-1.77c2.29-1.4,3.2-3.19,1.67-5.71.06-.59.14-1.19.2-1.77a13.4,13.4,0,0,0,3.55-11.32c.07-.59.13-1.17.2-1.77.78-.7,1.95-1.25,2.25-2.11,3.23-9,6.23-18.16,9.45-27.21,7.34-20.73,17.2-40.27,28.16-59.31,2.82-4.89,5.1-10.09,7.63-15.15l0,0a25.55,25.55,0,0,0,3.87-3.68c4.7-6.72,8.91-13.81,13.91-20.31a530.84,530.84,0,0,1,50.74-57.53c.88-.86,1.13-2.39,1.67-3.63L405,184l4.6-3.76,1-.93c1.54-1.25,3.08-2.49,4.61-3.75l1.94-1.87,4.61-3.76h0l5.59-4.66,2.89-2.77,3.68-2.79,0,0,3.72-2.76,0,0,6.5-4.68v0c5-3,10-5.85,14.87-9a49.58,49.58,0,0,0,5.7-5l0,0,7.46-4.64,0,0a53.66,53.66,0,0,0,5.6-2.1c17.69-8.79,35.14-18.09,53.09-26.29a268.1,268.1,0,0,1,34.87-12.74c15.67-4.66,31.64-8.33,47.49-12.43l2.8-.78,3.79-.15,1.91-.75,2.73-.19c.93-.26,1.87-.52,2.8-.8l3.79-.14,2.76-.79,3.79-.17,1.83-.77,4.71-.16c2.07,1.25,4.1,2.27,5.56-.78l3.74-.19,3.76-.75,8.4-.16C668.58,74.64,671.52,76,674,72.7Z"/><path class="cls-1" d="M268.47,543c.19-.25.52-.49.53-.74.4-6.69.4-6.69,7.68-6.69q98.1,0,196.2,0a38.8,38.8,0,0,1,5.81.86c.59,1.27,1.18,2.55,1.75,3.82,2.09,9.09,4.12,18.19,6.32,27.25a50.5,50.5,0,0,0,2.82,8.28c.62,1.42,1.94,2.53,2.95,3.79.37,1.5.76,3,1.14,4.53.63,2,.93,4.25,1.94,6.09,6,10.93,12,21.91,18.49,32.58,2.34,3.87,2,6-1.15,9.13-25.51,25.28-50.84,50.74-76.23,76.12q-32.14,32.13-64.31,64.22c-1.28,1.28-2.65,2.46-3.79,3.53-2.52-2.1-4.63-3.86-6.72-5.62l-1.84-2c-.63-.9-1.27-1.79-1.9-2.68l0,0a32.39,32.39,0,0,0-2.28-5c-9.91-14.77-20.72-29-29.63-44.37a538.48,538.48,0,0,1-26.12-51.65,266.18,266.18,0,0,1-17.25-50.91c-3.33-15.08-6.61-30.18-10-45.25a39.76,39.76,0,0,0-2.26-5.82c-.07-1.2-.16-2.4-.24-3.61-.23-1-.48-2-.72-2.94q-.11-1.79-.24-3.6l-.48-2.06Q268.68,546.62,268.47,543Z"/><path class="cls-1" d="M1123.25,467.41c-.75-.79-2-1.51-2.14-2.38-1.69-13.34-2.95-26.76-4.9-40.06-1.13-7.57-3.22-15-5.12-22.44-2.5-9.87-4.84-19.82-7.94-29.52-3.3-10.33-7.25-20.47-11.19-30.58-3.29-8.44-6.41-17-10.62-25-7.51-14.24-15.14-28.48-23.88-41.95-10.07-15.55-21.37-30.28-32.18-45.34-2.93-4.08-3.94-4-7.92-.07Q924.8,322.64,832.2,415.14c-1.45,1.44-3.68,2.09-5.55,3.11a41.05,41.05,0,0,1,3.09-3.95q93.68-93.74,187.38-187.42c4.73-4.72,5-4.58,9,.63,5.87,7.58,12.38,14.71,17.85,22.56,7.7,11,15.37,22.19,21.82,34,9.3,17,18,34.34,26,51.94,11.4,24.85,19,51,24.17,77.81,3,15.77,5.07,31.72,7.43,47.62C1123.76,463.34,1123.34,465.4,1123.25,467.41Z"/><path class="cls-1" d="M361.88,770.14c2.11,1.76,4.21,3.51,6.72,5.62,1.15-1.07,2.52-2.26,3.79-3.53q32.17-32.1,64.32-64.22,38.09-38.09,76.23-76.12c3.11-3.09,3.49-5.26,1.14-9.13-6.48-10.67-12.45-21.65-18.48-32.59-1-1.83-1.32-4-2-6.08a28.27,28.27,0,0,1,3.07,3.73c6.77,11.83,13.3,23.81,20.28,35.51,2,3.31,1.9,5.27-.85,8q-34.27,34-68.32,68.24Q422.6,724.77,397.4,750c-8.4,8.44-16.7,17-25,25.5-3.16,3.22-5,3.14-7.71-.7C363.63,773.32,362.81,771.7,361.88,770.14Z"/><path class="cls-1" d="M485.15,443.9c-.14-1.15-.66-2.42-.36-3.43,6.74-22,15.73-43.1,28.71-62.16a229.52,229.52,0,0,1,44.92-48.71C576.28,315,596.3,304.14,617.53,296c14.4-5.55,30-8.08,45-11.83,1.2-.3,2.66.41,4,.64-3.69.8-7.39,1.57-11.07,2.41a267,267,0,0,0-47.51,15c-33,14.17-59.82,35.7-82.35,63.25-16.27,19.9-27.54,42.46-36.28,66.44C487.91,435.82,486.55,439.87,485.15,443.9Z"/><path class="cls-1" d="M899.39,246.62c.18-.59.16-1.35.55-1.74,9.15-9.28,18.36-18.51,27.5-27.8,8.94-9.08,17.77-18.28,26.75-27.32,4.27-4.29,8.77-8.34,13.19-12.48,2.14-2,3-3.45-.06-5.82-14.12-10.81-27.7-22.32-43.34-31-13.19-7.37-26.11-15.22-39.15-22.85-2.62-1.54-5.27-3-7.91-4.49l.11-1.46c16.52,9.1,33.45,17.54,49.44,27.5,14,8.73,26.93,19.15,40.34,28.82.12.09.24.21.35.31,6.39,5.28,6.41,5.51.62,11.29q-32,32-64,63.94A37.12,37.12,0,0,1,899.39,246.62Z"/><path class="cls-1" d="M531.24,714.16c-.67,1.51-1,3.38-2.08,4.48-13.92,13.92-28,27.67-41.9,41.61-9.85,9.88-19.39,20-29.2,30-8.31,8.39-16.87,16.54-25.22,24.88-3.82,3.83-7.43,7.87-11.48,12.17,3.89,3.19,7.62,6.12,11.16,9.25,1,.92,1.56,2.43,2.3,3.66l-1,.13c-4.3-3.28-8.61-6.54-12.87-9.84-2.76-2.13-2.43-4.23,0-6.58,8.9-8.78,17.71-17.67,26.55-26.52q40-40,79.91-80C528.53,716.18,529.94,715.24,531.24,714.16Z"/><path class="cls-1" d="M270.58,562.47a42.78,42.78,0,0,1,2.26,5.83c3.4,15.07,6.68,30.16,10,45.25a266,266,0,0,0,17.25,50.91,543.15,543.15,0,0,0,26.12,51.65c8.91,15.35,19.72,29.59,29.63,44.37a32.91,32.91,0,0,1,2.28,5c-3.31-3.82-6.95-7.41-9.88-11.5C333.61,733.4,320,712.17,309.4,689.23c-7.12-15.41-13.34-31.23-19.63-47-9.78-24.49-14.33-50.36-19.39-76.08A14,14,0,0,1,270.58,562.47Z"/><path class="cls-1" d="M877,111.61l-.11,1.46c-15.71-6.19-31.17-13.11-47.18-18.37-15.49-5.1-31.51-8.56-47.34-12.61-5.84-1.5-11.76-2.62-17.64-3.91,0-.51,0-1,0-1.54,4.59.61,9.23,1,13.74,1.89,20.12,4.19,40,9.35,59.24,16.61,11,4.14,21.92,8.5,32.82,12.88A57.38,57.38,0,0,1,877,111.61Z"/><path class="cls-1" d="M722.72,284.71c2.26-.17,4.64-.89,6.76-.43,18,3.89,35.91,8.42,52.87,15.9,5.23,2.31,10.16,5.31,15.22,8l-.09,1.07c-9.77-4.29-19.27-9.49-29.39-12.65-14.09-4.4-28.66-7.26-43-10.81A13,13,0,0,1,722.72,284.71Z"/><path class="cls-1" d="M489.08,876.66a58.65,58.65,0,0,1,6.84,2.35c11.06,5.39,22,11.09,33.1,16.35,5.52,2.62,11.41,4.48,17.09,6.77.71.29,1.22,1.09,1.82,1.66-5.95-2-12.13-3.53-17.8-6.13-13.08-6-25.92-12.52-38.82-18.89A11.32,11.32,0,0,1,489.08,876.66Z"/><path class="cls-1" d="M588.05,915.15c2.47.31,5,.47,7.4.94q11.56,2.25,23.06,4.75c.85.19,1.54,1.12,2.31,1.72l-1.91.93-6.45-1.18-2.9-.69-2.7-.29c-.66-.21-1.31-.42-2-.65l-1.78-.25-2-.68-6.46-1.18-2-.69c-1.52-.39-3.05-.78-4.57-1.15C588.12,916.19,588.08,915.67,588.05,915.15Z"/><path class="cls-1" d="M825.17,419.7c-.35,1.21-.35,2.75-1.12,3.56q-7.56,7.88-15.44,15.44c-.5.48-1.78.16-2.69.22Z"/><path class="cls-1" d="M554.35,904.9c4.58,1.22,9.15,2.39,13.71,3.66q8.41,2.34,16.8,4.85c.57.18.93,1,1.4,1.59l-1,.94-1.77-.25c-3.17-1.28-6.27-2.81-9.53-3.79-4.57-1.37-9.27-2.31-13.92-3.45l-4.69-1.78C555,906.1,554.69,905.5,554.35,904.9Z"/><path class="cls-1" d="M682.48,282.32h25.24c0,.47,0,1,0,1.43H682.44C682.47,283.27,682.47,282.79,682.48,282.32Z"/><path class="cls-1" d="M457.29,857l18.65,12.16Z"/><path class="cls-1" d="M560,908.46c4.65,1.14,9.35,2.09,13.93,3.46,3.26,1,6.36,2.5,9.52,3.79Z"/><path class="cls-1" d="M655.2,926.58c2.75-.07,5.5-.3,8.23-.12,1.1.08,2.13,1.09,3.19,1.69l-1,1-10.17-.31C655.4,928.06,655.3,927.33,655.2,926.58Z"/><path class="cls-1" d="M682.48,282.32c0,.47,0,1,0,1.43L675,284l-2.7-.85C675.44,279.69,679,281.14,682.48,282.32Z"/><path class="cls-1" d="M707.75,283.74c0-.47,0-1,0-1.43,3.22-1.21,6.46-2.65,9.27.81l-2.71.85Z"/><path class="cls-1" d="M623.59,922.65l9.37,1.77-1.89.91-3.65-.26Z"/><path class="cls-1" d="M816.18,320.21l7.49,2.66C819.78,325.88,818.46,321.7,816.18,320.21Z"/><path class="cls-1" d="M438.6,843.94l7.44,5.61Z"/><path class="cls-1" d="M639.47,925.39c2.41-1.18,4.76-2.08,6.58.93-.94.29-1.88.59-2.83.91l-3.62-.29C639.56,926.42,639.51,925.9,639.47,925.39Z"/><path class="cls-1" d="M623.59,922.65l3.83,2.42-8.51-1.61,1.91-.92C621.74,922.59,622.67,922.63,623.59,922.65Z"/><path class="cls-1" d="M481.39,460.72c-1.48-2.74-1-5,1.69-6.66Q482.23,457.38,481.39,460.72Z"/><path class="cls-1" d="M483.23,452.31c-1.46-2.74-1-5,1.71-6.67C484.38,447.86,483.8,450.08,483.23,452.31Z"/><path class="cls-1" d="M802.22,311.67c3.26-1.59,4.82.05,5.67,3Z"/><path class="cls-1" d="M482.5,873l6.55,3.68C486.87,875.42,484.69,874.18,482.5,873Z"/><path class="cls-1" d="M672.28,283.12,675,284l-6.69.63Z"/><path class="cls-1" d="M714.29,284c.9-.29,1.8-.58,2.71-.85l4,1.47Z"/><path class="cls-1" d="M792.16,452.72c.71,3.17-.54,4.34-3.65,3.6C789.71,455.12,790.94,453.92,792.16,452.72Z"/><path class="cls-1" d="M648.82,926.37l4.64.18-1.82,1.59c-.9-.08-1.81-.15-2.71-.24C648.9,927.4,648.86,926.88,648.82,926.37Z"/><path class="cls-1" d="M894.72,251.29l4.67-4.67Z"/><path class="cls-1" d="M648.82,926.37l.11,1.53-5.71-.7,2.83-.91C647,926.33,647.9,926.35,648.82,926.37Z"/><path class="cls-1" d="M446.06,849.56l5.57,3.75C449.77,852.07,447.91,850.81,446.06,849.56Z"/><path class="cls-1" d="M554.35,904.9l1,1.78-5.6-2.11,2.78-.53,1.81.85Z"/><path class="cls-1" d="M433.8,840.31l1-.12,3.77,3.72Z"/><path class="cls-1" d="M764.73,76.63c0,.51,0,1,0,1.54l-3.71-.8,1.85-.93Z"/><path class="cls-1" d="M651.64,928.14l1.82-1.59c.58,0,1.16,0,1.74,0,.1.75.19,1.48.29,2.22Z"/><path class="cls-1" d="M797.48,309.26l.09-1.07c1.46.47,4.26-.61,3.23,2.77C799.7,310.38,798.59,309.82,797.48,309.26Z"/><path class="cls-1" d="M634.8,924.53l2.88.76-1,1-1.77-.22C634.86,925.57,634.83,925,634.8,924.53Z"/><path class="cls-1" d="M634.8,924.53c0,.51.06,1,.1,1.55l-3.83-.74,1.89-.91Z"/><path class="cls-1" d="M810.57,316.42l2.92,2Z"/><path class="cls-1" d="M802.32,442.52c-.36,1.05.78,3.62-2.12,2.1Z"/><path class="cls-1" d="M585.25,916l1-1,1.8.14c0,.52.07,1,.1,1.58Z"/><path class="cls-1" d="M269.61,555.93c.24,1,.49,2,.72,2.94C270.1,557.9,269.85,556.91,269.61,555.93Z"/><path class="cls-1" d="M609.56,921.6c1,.24,1.94.48,2.9.7Z"/><path class="cls-1" d="M636.68,926.3l1-1,1.79.1c0,.51.09,1,.13,1.55Z"/><path class="cls-1" d="M476,869.21l2.82,1.81Z"/><path class="cls-1" d="M358.14,765.46l1.91,2.68Z"/><path class="cls-1" d="M454.45,855.2c.93.61,1.88,1.2,2.81,1.82C456.33,856.4,455.39,855.79,454.45,855.2Z"/><path class="cls-1" d="M451.64,853.33l2.79,1.85C453.5,854.56,452.58,853.94,451.64,853.33Z"/><path class="cls-1" d="M601.15,919.73l2,.69Z"/><path class="cls-1" d="M268.89,550.28l.48,2.06Z"/><path class="cls-1" d="M604.89,920.67c.66.21,1.31.42,2,.65C606.21,921.09,605.55,920.88,604.89,920.67Z"/><path class="cls-1" d="M480.54,872l1.94,1C481.83,872.61,481.19,872.27,480.54,872Z"/><path class="cls-1" d="M592.73,917.88l2,.69Z"/><path class="cls-1" d="M848.77,298.64l.61-.72C849.18,298.15,849,298.39,848.77,298.64Z"/><path class="cls-1" d="M846,301.33l.73-.62C846.45,300.92,846.21,301.13,846,301.33Z"/><path class="cls-1" d="M846.91,300.5c.24-.24.49-.48.72-.73Z"/><path class="cls-1" d="M613.29,80.05c-15.84,4.09-31.81,7.76-47.48,12.43a268.1,268.1,0,0,0-34.87,12.74c-18,8.21-35.4,17.51-53.09,26.3a56,56,0,0,1-5.6,2.09c6.63-4.13,13-8.85,20-12.27,16.64-8.15,33.33-16.33,50.5-23.26,12.66-5.11,26.06-8.45,39.23-12.24,9-2.59,18.17-4.6,27.29-6.82a32.4,32.4,0,0,1,4.09-.49C613.32,79.05,613.3,79.54,613.29,80.05Z"/><path class="cls-1" d="M402.19,186.82c-.54,1.22-.79,2.75-1.67,3.62A528,528,0,0,0,349.78,248c-5,6.49-9.21,13.57-13.91,20.3-1,1.44-2.57,2.46-3.87,3.68,5.31-8.29,10.16-16.93,16-24.79,8.32-11.15,17-22.12,26.27-32.47C383.06,204.93,392.85,196.08,402.19,186.82Z"/><path class="cls-1" d="M332,272c-2.54,5.06-4.82,10.27-7.63,15.15-11,19-20.81,38.58-28.17,59.31-3.2,9.05-6.22,18.16-9.44,27.21-.32.86-1.48,1.41-2.25,2.11,2-6.72,3.54-13.67,6.21-20.12,7.27-17.63,14.62-35.25,22.73-52.5,4.76-10.13,11-19.57,16.64-29.29A10,10,0,0,1,332,272Z"/><path class="cls-1" d="M278.66,398.11c-.39,3.51-.59,7.07-1.18,10.56q-2.24,12.93-4.78,25.83c-.27,1.39-1.33,2.64-2,4Q274.67,418.27,278.66,398.11Z"/><path class="cls-1" d="M637.65,76.29l-3.79.17-2.75.79-3.79.15c0-.32,0-.66,0-1q13.11-1.75,26.22-3.54c0,.52,0,1,0,1.53l-3.74.18-5.56.79-4.72.16C638.88,75.79,638.27,76,637.65,76.29Z"/><path class="cls-1" d="M464.73,138.3a50.47,50.47,0,0,1-5.7,5c-4.86,3.16-9.89,6-14.87,9,4.35-3.28,8.63-6.66,13.09-9.78A83.83,83.83,0,0,1,464.73,138.3Z"/><path class="cls-1" d="M284.29,377.54a13.4,13.4,0,0,1-3.55,11.32Q282.52,383.19,284.29,377.54Z"/><path class="cls-1" d="M665.65,73.49c-2.8,0-5.6.11-8.4.16l-1.88-.94,10.3-.73C665.66,72.49,665.66,73,665.65,73.49Z"/><path class="cls-1" d="M665.65,73.49c0-.5,0-1,0-1.51l1.87-.17,6.5.88C671.52,76,668.58,74.64,665.65,73.49Z"/><path class="cls-1" d="M624.51,78.2l-2.73.17-1.91.75-3.79.15c0-.32,0-.65,0-1l8.45-1.63C624.52,77.16,624.52,77.67,624.51,78.2Z"/><path class="cls-1" d="M270.38,441.14c.26,2.33,2.57,5-1.11,6.68Q269.84,444.49,270.38,441.14Z"/><path class="cls-1" d="M472.21,133.63l-7.45,4.64Q468.5,136,472.21,133.63Z"/><path class="cls-1" d="M444.14,152.3l-6.5,4.67Z"/><path class="cls-1" d="M427.29,165.37c-1.85,1.56-3.72,3.11-5.58,4.67Z"/><path class="cls-1" d="M280.54,390.63c1.52,2.52.61,4.31-1.67,5.71C279.42,394.43,280,392.52,280.54,390.63Z"/><path class="cls-1" d="M421.7,170.05l-4.62,3.75C418.62,172.55,420.16,171.31,421.7,170.05Z"/><path class="cls-1" d="M415.15,175.67c-1.53,1.25-3.08,2.49-4.61,3.75Z"/><path class="cls-1" d="M409.56,180.35q-2.31,1.86-4.6,3.75C406.48,182.85,408,181.61,409.56,180.35Z"/><path class="cls-1" d="M655.37,72.72c.62.32,1.24.63,1.88.94l-3.75.75c0-.51,0-1,0-1.52C654.13,72.82,654.75,72.77,655.37,72.72Z"/><path class="cls-1" d="M616.08,78.28c0,.33,0,.65,0,1l-2.81.78c0-.51,0-1,0-1.52Z"/><path class="cls-1" d="M624.51,78.2c0-.51,0-1,0-1.54l2.76-.23c0,.32,0,.66,0,1C626.38,77.66,625.45,77.92,624.51,78.2Z"/><path class="cls-1" d="M437.62,157c-1.25.92-2.48,1.84-3.72,2.77Z"/><path class="cls-1" d="M433.88,159.8c-1.22.94-2.46,1.86-3.68,2.79Z"/><path class="cls-1" d="M807.8,914.29c18.27-6.49,36.67-12.61,54.73-19.61a227.24,227.24,0,0,0,29.41-14.18c16.45-9.3,33-18.61,48.6-29.19A306.19,306.19,0,0,0,977,822.2c15.88-14.75,31-30.31,45.85-46.15,7.45-8,13.71-17.17,20-26.18,7.94-11.43,15.88-22.94,22.85-35,7.52-13,13.9-26.63,20.79-40a10.91,10.91,0,0,1,.84-1.09l1.23.28c-4.31,9.26-7.89,19-13.09,27.7-11.6,19.5-23.49,38.84-36.29,57.57-7.38,10.81-16.35,20.62-25.25,30.28a386.12,386.12,0,0,1-29.57,29.48c-13.13,11.48-26.75,22.51-40.94,32.64a451,451,0,0,1-43.88,27.77,355.61,355.61,0,0,1-43.44,20c-17.55,6.78-35.65,12.11-53.53,18a4,4,0,0,1-1.37-.06C803.35,916.47,805.58,915.38,807.8,914.29Z"/><path class="cls-1" d="M1094.33,659.77c-.19-1.21-.83-2.58-.49-3.62q5.58-17.25,11.47-34.37c.21-.61,1.45-.86,2.21-1.29-3,9.94-6,19.91-9.14,29.8A102.25,102.25,0,0,1,1094.33,659.77Z"/><path class="cls-1" d="M807.8,914.29l-6.68,3.26-1.78.3-2,.71-2.72.23-2,.66-1.77.27-5.69,1.6-2.71.28-1.91-.92a53.86,53.86,0,0,1,5.9-2.32c6.21-1.66,12.45-3.19,18.72-4.65C806,913.53,806.94,914.07,807.8,914.29Z"/><path class="cls-1" d="M724.52,928.17c3.17-3.34,6.76-1.82,10.32-.89,0,.51-.09,1-.13,1.53l-8.3.31Z"/><path class="cls-1" d="M746,926.32c3-2.88,6.6-2.77,10.31-1.79,0,.51-.06,1-.1,1.55l-1.78.22-2.9.63-3.65.3C747.29,926.94,746.67,926.63,746,926.32Z"/><path class="cls-1" d="M759.11,924.43c2.69-2.91,6-2.34,9.39-1.74,0,.51-.07,1-.1,1.53-.6.06-1.19.14-1.79.21l-2,.61-3.64.3Z"/><path class="cls-1" d="M770.34,922.56l8.44-1.79c0,.52-.06,1.05-.1,1.57l-1.78.22-2,.6-3.63.35Z"/><path class="cls-1" d="M1110.3,611.34c-3-3-1.27-4.59,1.68-5.83Z"/><path class="cls-1" d="M1114.1,595.35c-2.17-2.07-2.68-3.83.93-4.76Z"/><path class="cls-1" d="M1112.17,603.86c-2.42-2.2-2.52-3.92,1-4.83C1112.85,600.63,1112.52,602.24,1112.17,603.86Z"/><path class="cls-1" d="M746,926.32l1.88.92-5.69.71.11-1.53Z"/><path class="cls-1" d="M734.71,928.81c0-.51.09-1,.13-1.53l3.66-.09,1.94,1C738.53,928.38,736.62,928.6,734.71,928.81Z"/><path class="cls-1" d="M785.21,921.32l5.7-1.6C789,920.24,787.12,920.78,785.21,921.32Z"/><path class="cls-1" d="M1088.49,674.1l-1.23-.28c.82-1.21,1.64-2.43,2.47-3.64C1089.32,671.49,1088.9,672.8,1088.49,674.1Z"/><path class="cls-1" d="M740.44,928.17l-1.94-1c1.27-.27,2.56-.52,3.83-.76l-.11,1.53Z"/><path class="cls-1" d="M759.11,924.43l1.89.91-4.76.74c0-.53.06-1,.1-1.55C757.26,924.51,758.19,924.47,759.11,924.43Z"/><path class="cls-1" d="M1089.88,669c-1.05-2.07-.78-3.44,1.87-3.56C1091.11,666.59,1090.49,667.79,1089.88,669Z"/><path class="cls-1" d="M1108.41,617c-2.76-2.07-1.33-2.73,1-3.06C1109.11,615,1108.76,616,1108.41,617Z"/><path class="cls-1" d="M778.68,922.35c0-.52.06-1.05.1-1.57l1.83-.09c.64.31,1.28.61,1.9.93C781.24,921.85,780,922.1,778.68,922.35Z"/><path class="cls-1" d="M770.34,922.56c.33.31.64.64,1,1l-2.89.71c0-.51.06-1,.1-1.53Z"/><path class="cls-1" d="M751.57,926.94l2.9-.62C753.5,926.51,752.53,926.73,751.57,926.94Z"/><path class="cls-1" d="M1092.45,663.75c-.34-.44-.67-.86-1-1.3l2-.87C1093.13,662.32,1092.78,663,1092.45,663.75Z"/><path class="cls-1" d="M792.69,919.45l2-.66Z"/><path class="cls-1" d="M797.38,918.57l2-.71Z"/><path class="cls-1" d="M774.93,923.17l2-.59Z"/><path class="cls-1" d="M764.64,925l2-.61Z"/><path class="cls-1" d="M480.44,540.23c-.59-1.27-1.17-2.54-1.75-3.81C479.27,537.69,479.85,539,480.44,540.23Z"/><path class="cls-1" d="M697.39,72.59l-6.47,0Z"/><path class="cls-1" d="M720.78,73.55c-2.06,1.08-4.13,2.27-5.55-.85Z"/><path class="cls-1" d="M751.64,76.35l-2.73-.86C749.82,75.79,750.73,76.07,751.64,76.35Z"/><path class="cls-1" d="M735.74,74.46l-2.78-.8C733.88,73.92,734.8,74.2,735.74,74.46Z"/><path class="cls-1" d="M757.25,77.29l-1.81-.85Z"/><path class="cls-1" d="M706.8,928.41l12.14-.14Z"/><path class="cls-1" d="M672.19,928.27l12.15.14Z"/><path class="cls-1" d="M554.33,904.9c-.6-.29-1.21-.58-1.81-.85C553.13,904.32,553.73,904.61,554.33,904.9Z"/><path class="cls-1" d="M644.21,75.37l5.56-.79C648.3,77.64,646.26,76.61,644.21,75.37Z"/><path class="cls-1" d="M631.11,77.24l2.75-.79C633,76.73,632,77,631.11,77.24Z"/><path class="cls-1" d="M637.65,76.29l1.83-.76C638.88,75.79,638.27,76,637.65,76.29Z"/><path class="cls-1" d="M619.89,79.12l1.9-.75Z"/><path class="cls-1" d="M1213.62,1211.85a21.24,21.24,0,0,1-3.2-13q.4-7.39,8.4-12.6a18.06,18.06,0,0,1,11.79-3q6.2.6,11.8,6.19a88.85,88.85,0,0,0,25,19.59q13.78,7.2,33.38,7.2a79.71,79.71,0,0,0,16.39-2.6,31.9,31.9,0,0,0,14.4-8q6-5.79,6-17,0-10-6.39-16a48.79,48.79,0,0,0-16.8-9.8q-10.39-3.8-22.38-7-12.81-3.6-25.79-8a97.75,97.75,0,0,1-23.39-11.39,55.41,55.41,0,0,1-17-18.19q-6.6-11.19-6.6-27.59,0-18.8,10.59-32.39a71.12,71.12,0,0,1,27.59-21.19,89.62,89.62,0,0,1,37-7.59,106.9,106.9,0,0,1,24.39,3,102.21,102.21,0,0,1,24.79,9.39,70.52,70.52,0,0,1,20.79,16.79,23.06,23.06,0,0,1,4.6,12.4q.6,7.2-6.6,12.79a15.92,15.92,0,0,1-11.59,3.6,17.55,17.55,0,0,1-11.2-4.4,51.41,51.41,0,0,0-19.59-15,65.52,65.52,0,0,0-27.18-5.4,61.14,61.14,0,0,0-15.8,2.2,30.2,30.2,0,0,0-13.79,7.8q-5.61,5.6-5.6,16.39,0,10,6.6,16a52.71,52.71,0,0,0,17.39,10,224.09,224.09,0,0,0,23.59,7.19q12.39,3.21,24.59,7.6a90.76,90.76,0,0,1,22,11.4,54.9,54.9,0,0,1,16,18q6.2,11,6.2,27.78,0,19.61-11.4,33.39a72.73,72.73,0,0,1-28.78,21,94.73,94.73,0,0,1-36.59,7.19,132.34,132.34,0,0,1-45.38-8.19Q1229.21,1232.25,1213.62,1211.85Z"/><path class="cls-1" d="M1162.45,1034.34a19.3,19.3,0,0,1,14.19,5.79,19.84,19.84,0,0,1,5.8,14.6v105.15q0,41.58-23.19,65t-65.57,23.39q-42,0-65-23.39t-23-65V1054.73a20.16,20.16,0,0,1,5.6-14.6,19.14,19.14,0,0,1,14.39-5.79,19.33,19.33,0,0,1,14.2,5.79,19.83,19.83,0,0,1,5.79,14.6v105.15q0,26,12.2,38.78t35.78,12.79q24,0,36.38-12.79t12.4-38.78V1054.73a20.16,20.16,0,0,1,5.6-14.6A19.12,19.12,0,0,1,1162.45,1034.34Z"/><path class="cls-1" d="M959.74,1041.73a19.14,19.14,0,0,0-14.39-5.79,18.78,18.78,0,0,0-14.39,6,21,21,0,0,0-3.44,4.92,1.75,1.75,0,0,0-.17.75V1143h0c0,.31,0,.62,0,.92q0,20.8-8.4,37.39a64.46,64.46,0,0,1-23.19,26q-14.79,9.4-34.38,9.4t-34.38-9.6a66.26,66.26,0,0,1-23.19-26q-8.4-16.39-8.4-37.19t8.4-37.18a66.43,66.43,0,0,1,23.19-26q14.78-9.59,34.38-9.59t34.38,9.39a59.52,59.52,0,0,1,6,4.37,1.66,1.66,0,0,0,2.72-1.27V1050a1.84,1.84,0,0,0-.75-1.39c-7.38-4.8-9.55-5.86-16.77-8.67a86.51,86.51,0,0,0-31.59-5.59q-27.58,0-49.77,14.19t-35.39,38.78Q757,1111.9,757,1143.88t13.19,56.58a102.07,102.07,0,0,0,35.59,38.78q22.38,14.19,50.77,14.19a79.29,79.29,0,0,0,26.59-4.59,91.32,91.32,0,0,0,23-11.8,70.44,70.44,0,0,0,16.19-15.79h0a1.66,1.66,0,0,1,3,1v15.22q0,25.57-16.19,40.38T861,1292.61A81,81,0,0,1,841.4,1290a168.33,168.33,0,0,1-18.79-5.8q-8.4-3.21-12.39-4.4-8.81-3.21-15.6-1.2t-10.79,10.8a14.82,14.82,0,0,0,.2,12.79q3,6.35,12.07,11.13a1.07,1.07,0,0,1,.22.15q4.42,3.55,15.69,7.11a222.62,222.62,0,0,0,25,6.2,128.31,128.31,0,0,0,23.59,2.6q28.38,0,52.18-10A84.65,84.65,0,0,0,951,1288q14.38-21.4,14.39-55.38V1056.33A20.2,20.2,0,0,0,959.74,1041.73Z"/><path class="cls-1" d="M502.37,1091.31a103.15,103.15,0,0,0-53.18-54,90.87,90.87,0,0,0-37.18-7.79,94,94,0,0,0-48.38,13.39q-22.78,13.39-37,38.38t-14.19,60.18q0,31.18,13.39,55.37a96.69,96.69,0,0,0,37.78,38q24.39,13.8,57.58,13.79a101.57,101.57,0,0,0,39.78-8q19-8,29.78-18.39,8.79-7.2,8.8-16a16.48,16.48,0,0,0-4.8-11.79,16,16,0,0,0-12-5A23.08,23.08,0,0,0,471,1193a2.8,2.8,0,0,0-.35.25q-4.74,3.93-11,8.26a59.74,59.74,0,0,1-16,7.39q-9.6,3-24.39,3a67.67,67.67,0,0,1-34.39-9A65.86,65.86,0,0,1,360,1177.47a66.62,66.62,0,0,1-3.62-7.57l-.12-.28c-.47-1.19-.92-2.4-1.33-3.63a3.38,3.38,0,0,1-.11-.34c-.42-1.25-.81-2.52-1.16-3.81h0v0c-.21-.78-.41-1.56-.59-2.35a.64.64,0,0,0,0-.07v0q-.82-3.49-1.35-7.19h0l-.06-.52v-.06c-.06-.43-.12-.87-.17-1.31h0c0-.21-.05-.42-.08-.63s0-.5-.07-.75c-.06-.61-.12-1.21-.17-1.82,0-.34-.05-.68-.07-1,0-.54-.08-1.07-.11-1.61l-.06-1.44c0-.41,0-.81-.05-1.22,0-.9,0-1.8,0-2.71q0-20.4,5-34.19c.28-.78.58-1.52.88-2.27h0a56.53,56.53,0,0,1,12.71-19.92A52.3,52.3,0,0,1,389,1070.52a70,70,0,0,1,23-3.8,60.74,60.74,0,0,1,26,5.8,56.94,56.94,0,0,1,20.79,16.39A42.63,42.63,0,0,1,468,1113.4v.2h0a2.69,2.69,0,0,1-2.69,2.7H384.47a10.35,10.35,0,0,0-9.86,8.34,85.56,85.56,0,0,0-.92,14.45c0,.43,0,.82,0,1.17a10,10,0,0,0,10,10H490.37a20.7,20.7,0,0,0,14-5.2,18,18,0,0,0,6.39-13v-.29A106.55,106.55,0,0,0,502.37,1091.31Z"/><path class="cls-1" d="M578.13,1238.84a19.79,19.79,0,0,0,5.79-14.59V1054.73a19.83,19.83,0,0,0-5.79-14.6,19.33,19.33,0,0,0-14.2-5.79,19.14,19.14,0,0,0-14.39,5.79,20.16,20.16,0,0,0-5.6,14.6v169.52a20.12,20.12,0,0,0,5.6,14.59,19.11,19.11,0,0,0,14.39,5.8A19.3,19.3,0,0,0,578.13,1238.84Z"/><path class="cls-1" d="M718.06,1072.92q-6.21-19.8-21.79-31.59t-44-11.79a75.37,75.37,0,0,0-26.39,4.6,84.91,84.91,0,0,0-14.85,7.18c-3.1,1.9-4.27,2.94-4.28,6.57,0,10,0,13.48,0,14.71v8.73a2.33,2.33,0,0,0,3.48,2l.06,0q12.39-7,28.79-7,17.58,0,27.38,7a37.23,37.23,0,0,1,13.8,18.39,77.75,77.75,0,0,1,4,25.79v106.75a20.16,20.16,0,0,0,5.59,14.59,20.52,20.52,0,0,0,28.59,0,19.8,19.8,0,0,0,5.8-14.59V1117.1Q724.26,1092.71,718.06,1072.92Z"/><path class="cls-1" d="M252.26,1023l-18.4,18.4a8.73,8.73,0,0,0-1.59,10.11l0,.06q11.79,23.6,11.8,53.17t-11.8,53.18q-11.79,23.59-32.58,37.18t-48,13.59q-26.79,0-47.58-13.59a88.39,88.39,0,0,1-7.54-5.52,8.67,8.67,0,0,0-11.58.64l-17,17a8.73,8.73,0,0,0,.76,13,131.07,131.07,0,0,0,28.93,17.51q24.78,11,54,11,29.58,0,54.37-11a129.82,129.82,0,0,0,43-30.58,139.62,139.62,0,0,0,28.19-45.78,165,165,0,0,0,0-113.15,146.52,146.52,0,0,0-11.44-23.54A8.7,8.7,0,0,0,252.26,1023Z"/><path class="cls-1" d="M52.88,1092.91a8.7,8.7,0,0,0,8.61-7.53,110,110,0,0,1,10.29-34.05,91.94,91.94,0,0,1,32.38-37q20.79-13.59,47.58-13.6,27.18,0,48,13.6a89.77,89.77,0,0,1,10,7.54,8.64,8.64,0,0,0,11.79-.46l17-17a8.72,8.72,0,0,0-.56-12.82,130.9,130.9,0,0,0-31.78-19.88q-24.8-11-54.37-11a131.72,131.72,0,0,0-54,11,129.89,129.89,0,0,0-43,30.59,136.84,136.84,0,0,0-28,45.78,152.93,152.93,0,0,0-8.51,35.09,8.68,8.68,0,0,0,8.65,9.69Z"/><path class="cls-1" d="M71.78,1157.88a112.11,112.11,0,0,1-10.37-34.57,8.7,8.7,0,0,0-8.61-7.55H26.85a8.68,8.68,0,0,0-8.65,9.66,153.11,153.11,0,0,0,8.6,35.86A141.93,141.93,0,0,0,40,1188a8.69,8.69,0,0,0,13.46,1.43l18.29-18.29a8.72,8.72,0,0,0,1.52-10.25C72.78,1159.89,72.27,1158.89,71.78,1157.88Z"/></g></svg>