<svg xmlns="http://www.w3.org/2000/svg" viewBox="0 0 1896.72 488.91"><defs><style>.cls-1{fill:#8fd0f2;}.cls-2{fill:#b3d897;}.cls-3{fill:#f37b7d;}.cls-4{fill:#f7a4a5;}.cls-5{fill:#f15a5b;}.cls-6{fill:#57b1e3;}.cls-7{fill:#87c65b;}.cls-8{fill:#83caf0;}.cls-9{fill:#94cb6b;}.cls-10{fill:#100f0f;}</style></defs><g id="Layer_4" data-name="Layer 4"><path class="cls-1" d="M0,217.41l.62,0c.24,1.15.47,2.29.76,3.66H4q55.82,0,111.66,0c1.38,0,2.76-.71,4.15-1.09-.5.72-.85,1.79-1.53,2.09a9.2,9.2,0,0,1-3.56.53q-55.32,0-110.63,0A38.52,38.52,0,0,1,0,222.13Z"/><path class="cls-2" d="M0,260.37a23.45,23.45,0,0,1,3.32-.46q56.31,0,112.62-.06c2.59,0,3.63.57,4.23,3.47,1.29,6.25,3.44,12.32,5.2,18.48.35,1.23.54,2.51.81,3.76a10.33,10.33,0,0,1-1.66-2.12,28.82,28.82,0,0,1-1.58-4.64c-1.23-5.08-2.36-10.18-3.54-15.27-.33-.71-.66-1.42-1-2.14a22.55,22.55,0,0,0-3.25-.48q-55,0-109.94,0c-4.09,0-4.08,0-4.31,3.75,0,.14-.19.27-.29.41l-.63,0Z"/><path class="cls-3" d="M479.89,258.27c-1.25,9.93-2.49,19.87-3.78,29.81a10.13,10.13,0,0,1-.81,2.16,15.55,15.55,0,0,1-.31-3.63c.48-3.4,1.32-6.75,1.75-10.16.69-5.4,1.34-10.81,1.7-16.24q.71-10.63.87-21.31c.08-4.5-.31-9-.41-13.52,0-.57.48-1.14.75-1.71.08.54.16,1.08.25,1.62.17,3.32.35,6.63.53,10v12Z"/><path class="cls-1" d="M224.25,1.07C227.64.89,231,.73,234.42.51c1.16-.08,2.29-.34,3.43-.51h3.67c1,.17,2,.43,2.94.52,10.69.91,21.38,1.78,32.06,2.68a4,4,0,0,1,1.15.46l-1,.52-2.13,0c-.34-.17-.68-.32-1-.48l-2.13-.05-1.52-.48-7.38-.58L260.9,2.1,254.07,2,251,1.56,241,1.5l-3.63,0-9.46,0Z"/><path class="cls-4" d="M257.23,481.44c0,.18,0,.36,0,.55H241c0-.31.05-.62.07-.93h5.17l6.81-.08,3.12-.05Z"/><path class="cls-4" d="M223.18,482c0-.19,0-.37,0-.55l.55-.54,3.12.07,6.8.08,5.17,0c0,.31,0,.61.08.92Z"/><path class="cls-4" d="M479.89,258.27q.27-5.5.53-11v11Z"/><path class="cls-4" d="M480.42,235.23c-.17-3.32-.35-6.63-.53-9.95h.53Z"/><path class="cls-3" d="M238.9,482c0-.31-.05-.61-.08-.92h2.25c0,.31,0,.62-.08.93Z"/><path class="cls-5" d="M241.07,481.06h-2.24l-5.17,0-6.8-.08-3.12-.07c-.6-.32-1.18-.89-1.79-.94-1.53-.1-3.08,0-4.61.06h-1l-2.6-.11-1.55,0c-1-1.68-2.34-1.18-3.69-.52l-1-.05-1.62-.43-1-.06c-1.76-.32-3.51-.66-5.26-1l-1.55-.06c-.42-.33-.81-.86-1.29-1q-6.45-1.4-12.92-2.66c-1.37-.26-2.77-.36-4.15-.53l-1-.08c-.26-.3-.47-.79-.79-.88q-4.68-1.42-9.41-2.72c-2.55-.71-5.12-1.37-7.68-2.05h0l-1-.48c-.52.1-1,.21-1.56.3l-1-.44c-.34-.32-.62-.76-1-.93-3.19-1.29-6.48-2.33-9.58-3.8-6.23-2.94-12.35-6.14-18.55-9.16a29.28,29.28,0,0,0-3.83-1.31v0L120.56,450h0l-1.09-.55c-.32-.18-.66-.35-1-.52l-1.58-1h0l-10.45-6.82h0l-1.58-1h0l-1.57-1h0c-1-.7-2.09-1.39-3.13-2.1h0L96,433.7h0l-2.11-2.09a8.49,8.49,0,0,0-1.29-2.05c-2-1.76-4.07-3.4-6.25-5.19,2.27-2.41,4.29-4.68,6.43-6.81,4.68-4.68,9.47-9.25,14.13-13.95,5.5-5.54,10.85-11.24,16.36-16.78C131,379,138.9,371.31,146.7,363.51a8.29,8.29,0,0,0,1.17-2.51c2.21-2.42,4.35-4.93,6.66-7.25q41.6-41.61,83.22-83.2,26.81-26.81,53.6-53.65a2.62,2.62,0,0,1,.67-.39c1.75.41,2.44-.25,2-2l4.52-4.54c1.62.85,1-.59,1.18-1.18l2-2c.51,0,1.23.15,1.51-.12,2.93-2.83,5.83-5.7,8.65-8.65.43-.45.43-1.32.63-2l.83-.81a13.4,13.4,0,0,0,3.11-1.75q51.9-51.81,103.75-103.7c2.23-2.23,2.79-2.25,4.44,0,6.06,8.43,12.39,16.69,18,25.4,4.9,7.56,9.17,15.54,13.38,23.51a133.2,133.2,0,0,1,5.95,14c2.21,5.67,4.42,11.34,6.27,17.14,1.74,5.43,3.06,11,4.45,16.54a127.53,127.53,0,0,1,2.87,12.57c1.1,7.45,1.8,15,2.74,22.44.07.49.79.89,1.2,1.34,0,.31,0,.62,0,.93-.26.57-.76,1.14-.74,1.71.09,4.51.48,9,.41,13.52q-.18,10.66-.88,21.31c-.35,5.43-1,10.85-1.69,16.25-.44,3.41-1.27,6.76-1.76,10.15a16.17,16.17,0,0,0,.32,3.63c-.1.51-.2,1-.31,1.52-2,.53-1.74,1.5-.52,2.67l-.51,2.05c-2,.52-1.94,1.48-.58,2.71,0,.31-.07.62-.11.93-1.65.7-2.6,1.61-.94,3.27l-.48,1.47c-1.32.18-2.13.55-.58,1.71l-.5,1.95c-.42.24-1.12.38-1.23.72q-3.3,9.6-6.43,19.26c-.19.58.17,1.35.27,2l-.48,1-1.14.49.56.73c-.13.3-.27.61-.39.92-1.48.07-1.64.84-1.05,2,0,.22-.05.45-.08.67l-1.38,2a4.33,4.33,0,0,0-.47.61c-3.86,7.48-7.44,15.12-11.65,22.4-3.9,6.75-8.35,13.19-12.8,19.6-3.52,5-7,10.2-11.2,14.67-8.29,8.88-16.79,17.6-25.69,25.86a170,170,0,0,1-20.4,16.31c-8.76,5.93-18,11.15-27.24,16.36a126.17,126.17,0,0,1-16.48,7.95c-10.12,3.92-20.43,7.35-30.66,11-.48-.11-1-.42-1.45-.32q-5.25,1.21-10.49,2.6a27.28,27.28,0,0,0-3.3,1.31l-1,.05-4.73,1-1,.07c-1.88-.33-3.75-.65-5.26,1l-1.55.06c-2.07-.55-4.07-.62-5.77,1l-2.08.05-2.14.43-2.06.05c-2-.52-4-1.37-5.78.5l-3.12.06-6.81.07C244.52,481.06,242.8,481.06,241.07,481.06Z"/><path class="cls-6" d="M227.88,1.56l9.47,0,3.63,0,10,.07c.8,1.74,2,1.08,3.11.47l6.82.07,1.56.44,7.39.58,1.53.48,2.13,0,1,.48,2.13,0,2.07.44c3.3.73,6.62,1.36,9.89,2.19,8.86,2.27,17.85,4.21,26.53,7.07,9,2.95,17.63,6.82,26.43,10.29,1.48.84,3,1.66,4.44,2.51,7.3,4.28,14.54,8.68,21.93,12.81,8.76,4.9,16.38,11.34,24.29,17.39,1.74,1.33,1.24,2.15,0,3.26-2.48,2.32-5,4.59-7.4,7-5,5.06-10,10.22-15,15.31S359.59,92.82,354.47,98c-.21.21-.21.64-.3,1h0l-2.62,2.62L331,122.68c-1.63,1.67-3.25,3.37-4.88,5.06l-.34.4-.64.64-.4.41-.12.12-.41.35-12.49,12.07-4.2-1.5-1.5-1-1.64-1.13-1.5-1c-.47-1.65-1.35-2.57-3.18-1.68l-.79-.4c.58-1.89-1-1.28-1.81-1.56-2.83-1.5-5.59-3.19-8.52-4.48-9.51-4.19-19.52-6.73-29.63-8.91a13.63,13.63,0,0,0-3.79.24l-1-.07-2.24-.82c-1.57-1.94-3.39-1.14-5.19-.46H232.64c-2-.65-3.94-1.47-5.71.46l-2.24.83-1,.09a6,6,0,0,0-2.23-.36c-8.45,2.1-17.17,3.52-25.24,6.62a120.26,120.26,0,0,0-33.13,18.87A128.63,128.63,0,0,0,138,172.78c-7.26,10.68-12.3,22.49-16.08,34.83a5,5,0,0,0,.2,1.92c0,.33-.08.65-.11,1a2.51,2.51,0,0,0-1,3.73l-.09,1a2.51,2.51,0,0,0-1,3.74c0,.33-.07.65-.1,1-1.39.38-2.77,1.09-4.15,1.09q-55.83.1-111.67.05H1.4c-.28-1.37-.51-2.51-.75-3.66.15-1.89.31-3.79.46-5.69,2.06-.94.76-2.43.62-3.74.06-.5.11-1,.16-1.51A9,9,0,0,0,3,204.26Q4.46,197,5.7,189.79c.34-1.95.45-3.94.66-5.92,0-.33.08-.66.12-1,1.29-.78,1.8-1.79.94-3.2,0-.33.08-.66.11-1a7.53,7.53,0,0,0,2-6.35c0-.32.07-.65.11-1,.44-.39,1.09-.7,1.26-1.18,1.81-5.06,3.49-10.18,5.3-15.25A202.07,202.07,0,0,1,32,121.69c1.57-2.74,2.85-5.66,4.27-8.49l0,0a14.66,14.66,0,0,0,2.17-2.06c2.63-3.77,5-7.74,7.79-11.38A298.11,298.11,0,0,1,74.65,67.5a6.23,6.23,0,0,0,.94-2l1.54-1.53,2.58-2.1.56-.52,2.58-2.1,1.09-1,2.58-2.11h0c1-.88,2.09-1.74,3.13-2.61l1.62-1.56,2.06-1.56h0l2.08-1.55,0,0,3.64-2.62h0c2.79-1.67,5.61-3.28,8.34-5a28,28,0,0,0,3.19-2.79h0l4.18-2.6,0,0A28.67,28.67,0,0,0,118,34.48c9.91-4.92,19.69-10.14,29.75-14.73a150.14,150.14,0,0,1,19.54-7.14C176,10,185,7.94,193.86,5.64l1.57-.44,2.12-.08,1.07-.42,1.53-.1,1.57-.45,2.13-.08,1.54-.44,2.13-.1,1-.43L211.18,3c1.16.7,2.3,1.27,3.12-.44l2.09-.1,2.11-.42c1.57,0,3.13-.07,4.7-.09C224.83,2.65,226.47,3.39,227.88,1.56Z"/><path class="cls-7" d="M.63,265.07c.1-.14.29-.27.29-.41.23-3.76.23-3.76,4.31-3.76q55,0,109.94,0a21.61,21.61,0,0,1,3.25.48c.33.71.66,1.42,1,2.14,1.18,5.09,2.31,10.19,3.54,15.27a29,29,0,0,0,1.58,4.63,10.66,10.66,0,0,0,1.66,2.13l.63,2.54a19.11,19.11,0,0,0,1.09,3.41c3.38,6.13,6.73,12.28,10.36,18.26,1.32,2.16,1.11,3.38-.64,5.11q-21.43,21.25-42.72,42.66-18,18-36,36c-.72.72-1.48,1.38-2.13,2L53,392.37l-1-1.12-1.07-1.5h0A17.57,17.57,0,0,0,49.59,387C44,378.68,38,370.69,33,362.1a301.76,301.76,0,0,1-14.64-28.94,149.6,149.6,0,0,1-9.67-28.53c-1.86-8.46-3.7-16.92-5.61-25.36A21.93,21.93,0,0,0,1.81,276c0-.67-.09-1.34-.13-2s-.28-1.1-.41-1.65-.08-1.34-.13-2l-.27-1.15C.78,267.8.71,266.43.63,265.07Z"/><path class="cls-3" d="M479.6,222.73c-.42-.44-1.14-.85-1.2-1.33-.95-7.48-1.65-15-2.75-22.45a126.83,126.83,0,0,0-2.86-12.57c-1.41-5.53-2.72-11.11-4.45-16.54-1.85-5.79-4.07-11.47-6.28-17.14a133.2,133.2,0,0,0-5.95-14c-4.2-8-8.48-16-13.37-23.51-5.65-8.71-12-17-18-25.4-1.64-2.29-2.21-2.27-4.44,0q-51.86,51.87-103.75,103.7a13.4,13.4,0,0,1-3.11,1.75,24.9,24.9,0,0,1,1.73-2.22q52.49-52.53,105-105c2.65-2.64,2.81-2.57,5.06.35,3.29,4.25,6.94,8.25,10,12.65a210.34,210.34,0,0,1,12.22,19c5.21,9.52,10.07,19.25,14.59,29.11a189.6,189.6,0,0,1,13.55,43.6c1.7,8.84,2.84,17.78,4.16,26.68A18.19,18.19,0,0,1,479.6,222.73Z"/><path class="cls-2" d="M53,392.36l3.77,3.15c.64-.6,1.41-1.26,2.12-2l36-36c14.23-14.22,28.42-28.49,42.71-42.65,1.75-1.74,2-2.95.65-5.12-3.64-6-7-12.13-10.36-18.26a17.19,17.19,0,0,1-1.09-3.41,15.32,15.32,0,0,1,1.71,2.09c3.8,6.63,7.46,13.34,11.37,19.9,1.1,1.85,1.06,2.95-.48,4.47q-19.2,19.05-38.28,38.23Q87,366.95,72.87,381.07c-4.71,4.73-9.36,9.51-14,14.29-1.77,1.81-2.79,1.76-4.32-.39C54,394.14,53.49,393.24,53,392.36Z"/><path class="cls-1" d="M122,209.56a5.48,5.48,0,0,1-.2-1.93c3.78-12.33,8.82-24.14,16.09-34.82a128.16,128.16,0,0,1,25.17-27.3,120.43,120.43,0,0,1,33.12-18.86c8.07-3.11,16.79-4.52,25.24-6.63a6,6,0,0,1,2.23.37c-2.06.44-4.14.88-6.2,1.34a149.51,149.51,0,0,0-26.62,8.39c-18.47,7.94-33.52,20-46.15,35.44-9.11,11.15-15.43,23.79-20.32,37.23C123.59,205,122.82,207.3,122,209.56Z"/><path class="cls-8" d="M354.16,99c.1-.33.09-.75.31-1,5.12-5.2,10.29-10.37,15.41-15.58s9.95-10.24,15-15.31c2.39-2.4,4.91-4.67,7.39-7,1.19-1.12,1.7-1.94,0-3.26-7.91-6.06-15.52-12.51-24.28-17.4C360.54,35.37,353.31,31,346,26.7c-1.47-.86-2.95-1.68-4.43-2.52l.06-.81c9.25,5.1,18.74,9.82,27.7,15.41,7.85,4.89,15.09,10.73,22.61,16.15.07,0,.13.12.19.17,3.59,3,3.59,3.09.35,6.32q-17.91,17.92-35.85,35.83A22,22,0,0,1,354.16,99Z"/><path class="cls-3" d="M147.87,361a8.53,8.53,0,0,1-1.17,2.51c-7.8,7.8-15.69,15.5-23.48,23.31-5.52,5.54-10.86,11.24-16.36,16.78-4.66,4.7-9.45,9.27-14.13,13.95-2.14,2.14-4.16,4.4-6.43,6.81,2.18,1.79,4.27,3.43,6.25,5.19a8.49,8.49,0,0,1,1.29,2.05l-.56.07c-2.41-1.84-4.83-3.66-7.22-5.51-1.54-1.2-1.36-2.37,0-3.69,5-4.92,9.93-9.9,14.88-14.86q22.39-22.42,44.77-44.83C146.35,362.13,147.14,361.6,147.87,361Z"/><path class="cls-2" d="M1.81,276a22.37,22.37,0,0,1,1.26,3.26c1.91,8.45,3.75,16.91,5.61,25.36a149.36,149.36,0,0,0,9.67,28.53A301.73,301.73,0,0,0,33,362.09c5,8.6,11,16.58,16.6,24.86a18.51,18.51,0,0,1,1.28,2.78c-1.86-2.14-3.9-4.15-5.54-6.44-8.2-11.51-15.84-23.41-21.77-36.26-4-8.64-7.47-17.5-11-26.34C7.08,307,4.53,292.47,1.7,278.06A7.57,7.57,0,0,1,1.81,276Z"/><path class="cls-1" d="M341.63,23.36l-.06.82c-8.81-3.47-17.47-7.35-26.44-10.29-8.68-2.86-17.66-4.8-26.53-7.07C285.33,6,282,5.35,278.72,4.63c0-.29,0-.57,0-.86,2.57.34,5.17.53,7.7,1.06a222.23,222.23,0,0,1,33.2,9.3c6.16,2.32,12.28,4.77,18.39,7.22A31.59,31.59,0,0,1,341.63,23.36Z"/><path class="cls-1" d="M255.16,120.36a14,14,0,0,1,3.79-.25c10.11,2.18,20.12,4.73,29.62,8.92,2.94,1.29,5.7,3,8.53,4.48,0,.2,0,.4-.05.6-5.47-2.4-10.79-5.31-16.47-7.09-7.89-2.46-16.06-4.06-24.1-6A7.84,7.84,0,0,1,255.16,120.36Z"/><path class="cls-4" d="M124.24,452.05a32.77,32.77,0,0,1,3.84,1.32c6.19,3,12.31,6.21,18.54,9.16,3.1,1.47,6.4,2.51,9.58,3.79.4.17.69.61,1,.93a99.27,99.27,0,0,1-10-3.43c-7.33-3.36-14.53-7-21.76-10.59A6,6,0,0,1,124.24,452.05Z"/><path class="cls-3" d="M179.7,473.62c1.38.17,2.78.26,4.15.53q6.48,1.26,12.92,2.66c.48.1.86.63,1.29,1l-1.06.52-3.62-.66-1.62-.39-1.52-.16-1.1-.36-1-.14-1.1-.38-3.62-.66-1.09-.39-2.57-.65Z"/><path class="cls-3" d="M312.57,196c-.2.67-.2,1.54-.63,2-2.82,2.95-5.71,5.82-8.65,8.65-.28.27-1,.09-1.51.13Z"/><path class="cls-3" d="M160.82,467.88c2.56.68,5.13,1.34,7.68,2.05q4.73,1.31,9.41,2.72c.32.09.53.58.79.88-.19.19-.37.36-.56.53l-1-.14c-1.77-.71-3.51-1.57-5.34-2.12-2.56-.77-5.19-1.3-7.8-1.93l-2.63-1C161.19,468.55,161,468.21,160.82,467.88Z"/><path class="cls-1" d="M232.61,119h14.15c0,.27,0,.54,0,.8H232.59C232.61,119.55,232.61,119.28,232.61,119Z"/><path class="cls-4" d="M106.43,441.05l10.45,6.82Z"/><path class="cls-4" d="M164,469.87c2.6.64,5.24,1.17,7.8,1.94,1.83.54,3.56,1.4,5.34,2.12Z"/><path class="cls-3" d="M217.33,480c1.54,0,3.08-.16,4.61-.06.62,0,1.19.61,1.79.94-.18.18-.36.37-.55.54l-5.7-.17C217.44,480.85,217.39,480.44,217.33,480Z"/><path class="cls-8" d="M232.61,119c0,.26,0,.54,0,.8l-4.18.12c-.51-.16-1-.31-1.51-.48C228.67,117.54,230.64,118.35,232.61,119Z"/><path class="cls-8" d="M246.77,119.81c0-.26,0-.53,0-.8,1.8-.68,3.62-1.48,5.19.45-.5.17-1,.32-1.52.48Z"/><path class="cls-3" d="M199.62,477.82l5.25,1-1.06.51-2.05-.14Z"/><path class="cls-8" d="M307.53,140.25l4.2,1.49C309.55,143.42,308.81,141.08,307.53,140.25Z"/><path class="cls-4" d="M96,433.72l4.17,3.14Z"/><path class="cls-3" d="M208.51,479.36c1.35-.66,2.67-1.17,3.69.52-.53.16-1,.33-1.58.51l-2-.16C208.56,479.93,208.54,479.65,208.51,479.36Z"/><path class="cls-4" d="M199.62,477.82l2.14,1.36-4.76-.9,1.06-.52Q198.84,477.81,199.62,477.82Z"/><path class="cls-1" d="M119.93,219a2.51,2.51,0,0,1,.95-3.74C120.56,216.49,120.25,217.74,119.93,219Z"/><path class="cls-1" d="M121,214.27a2.52,2.52,0,0,1,1-3.74C121.61,211.78,121.29,213,121,214.27Z"/><path class="cls-8" d="M299.71,135.46c1.83-.89,2.7,0,3.18,1.68Z"/><path class="cls-4" d="M120.55,450l3.68,2.06Z"/><path class="cls-1" d="M226.9,119.46c.5.17,1,.32,1.51.48l-3.75.36Z"/><path class="cls-1" d="M250.44,119.94l1.52-.48,2.24.83Z"/><path class="cls-3" d="M294.07,214.5c.4,1.78-.3,2.43-2.05,2Z"/><path class="cls-3" d="M213.75,479.9l2.6.11-1,.89-1.51-.14C213.8,480.48,213.77,480.19,213.75,479.9Z"/><path class="cls-8" d="M351.54,101.63,354.16,99Z"/><path class="cls-4" d="M213.75,479.9l.07.86c-1.07-.13-2.14-.25-3.2-.39l1.58-.51C212.72,479.88,213.24,479.9,213.75,479.9Z"/><path class="cls-4" d="M100.14,436.87c1,.7,2.08,1.39,3.12,2.1Z"/><path class="cls-4" d="M160.82,467.88l.55,1-3.14-1.18c.52-.09,1-.2,1.56-.3l1,.48Z"/><path class="cls-4" d="M93.27,431.68l.56-.07,2.11,2.09Z"/><path class="cls-8" d="M278.7,3.76c0,.28,0,.57,0,.86l-2.08-.44,1-.53Z"/><path class="cls-4" d="M215.33,480.9l1-.89h1c.06.42.1.83.16,1.25Z"/><path class="cls-8" d="M297.05,134.11c0-.2,0-.4.05-.6.82.27,2.39-.34,1.81,1.55Z"/><path class="cls-3" d="M205.89,478.88l1.62.42-.56.57-1-.13C205.93,479.46,205.92,479.16,205.89,478.88Z"/><path class="cls-4" d="M205.89,478.88c0,.28,0,.58.06.86l-2.14-.41,1.06-.51Z"/><path class="cls-8" d="M304.39,138.12l1.63,1.13Z"/><path class="cls-3" d="M299.76,208.79c-.2.58.44,2-1.18,1.17Z"/><path class="cls-4" d="M178.13,474.07l.56-.53,1,.08.06.88Z"/><path class="cls-2" d="M1.26,272.33c.14.55.28,1.1.41,1.65C1.54,273.44,1.4,272.88,1.26,272.33Z"/><path class="cls-4" d="M191.76,477.24l1.62.39Z"/><path class="cls-4" d="M207,479.87l.56-.57,1,.06c0,.29.05.58.07.87Z"/><path class="cls-4" d="M116.89,447.88l1.58,1Z"/><path class="cls-2" d="M50.87,389.74c.36.51.72,1,1.07,1.51C51.59,390.74,51.23,390.24,50.87,389.74Z"/><path class="cls-4" d="M104.84,440c.52.35,1,.68,1.58,1Z"/><path class="cls-4" d="M103.27,439l1.56,1Z"/><path class="cls-4" d="M187,476.19l1.1.38Z"/><path class="cls-2" d="M.86,269.17l.27,1.15Z"/><path class="cls-4" d="M189.14,476.71l1.1.37Z"/><path class="cls-4" d="M119.46,449.41l1.09.56Z"/><path class="cls-4" d="M182.33,475.15l1.09.39Z"/><path class="cls-1" d="M325.79,128.16l.34-.4C326,127.89,325.9,128,325.79,128.16Z"/><path class="cls-1" d="M324.22,129.67l.41-.35Z"/><path class="cls-1" d="M324.75,129.2l.41-.4Z"/><path class="cls-1" d="M193.85,5.68C185,8,176,10,167.24,12.64a149.61,149.61,0,0,0-19.54,7.14c-10.06,4.6-19.84,9.81-29.75,14.73a30.25,30.25,0,0,1-3.14,1.18c3.72-2.31,7.27-5,11.19-6.88,9.32-4.56,18.67-9.15,28.29-13,7.1-2.86,14.61-4.74,22-6.86,5-1.45,10.18-2.58,15.29-3.82a17.26,17.26,0,0,1,2.29-.27C193.86,5.11,193.85,5.39,193.85,5.68Z"/><path class="cls-8" d="M75.55,65.5a6.43,6.43,0,0,1-.93,2A296,296,0,0,0,46.19,99.77c-2.8,3.64-5.16,7.61-7.8,11.38a14.56,14.56,0,0,1-2.16,2.06c3-4.64,5.69-9.48,9-13.89,4.66-6.25,9.51-12.39,14.72-18.19C64.84,75.65,70.32,70.69,75.55,65.5Z"/><path class="cls-8" d="M36.21,113.23c-1.42,2.83-2.7,5.75-4.28,8.49A202.5,202.5,0,0,0,16.15,155c-1.79,5.07-3.49,10.18-5.29,15.25-.18.48-.83.79-1.26,1.18,1.14-3.77,2-7.66,3.48-11.27,4.07-9.88,8.19-19.75,12.73-29.42,2.67-5.68,6.17-11,9.33-16.42A5.58,5.58,0,0,1,36.21,113.23Z"/><path class="cls-8" d="M6.34,183.9c-.22,2-.33,4-.67,5.91Q4.43,197.07,3,204.29a9.69,9.69,0,0,1-1.13,2.22Q4.09,195.2,6.34,183.9Z"/><path class="cls-1" d="M207.49,3.57l-2.12.1-1.54.44-2.13.08V3.64l14.69-2c0,.28,0,.57,0,.85l-2.09.1-3.12.44c-.88,0-1.76.07-2.64.09C208.19,3.29,207.84,3.43,207.49,3.57Z"/><path class="cls-1" d="M110.6,38.31a28,28,0,0,1-3.19,2.79c-2.73,1.77-5.55,3.38-8.34,5,2.44-1.84,4.84-3.73,7.34-5.49A47.43,47.43,0,0,1,110.6,38.31Z"/><path class="cls-8" d="M9.49,172.37a7.47,7.47,0,0,1-2,6.34Q8.5,175.55,9.49,172.37Z"/><path class="cls-1" d="M223.18,2l-4.7.09-1.06-.53,5.78-.41C223.19,1.44,223.19,1.72,223.18,2Z"/><path class="cls-8" d="M223.18,2c0-.28,0-.57,0-.85l1.05-.09,3.63.49C226.47,3.39,224.83,2.65,223.18,2Z"/><path class="cls-1" d="M200.13,4.64l-1.53.1-1.07.42-2.12.08c0-.18,0-.36,0-.55l4.74-.92C200.14,4.06,200.14,4.34,200.13,4.64Z"/><path class="cls-8" d="M1.7,208c.14,1.31,1.44,2.8-.62,3.75C1.29,210.51,1.49,209.26,1.7,208Z"/><path class="cls-1" d="M114.79,35.7l-4.18,2.6Z"/><path class="cls-1" d="M99.06,46.16l-3.64,2.62Z"/><path class="cls-1" d="M89.62,53.49,86.49,56.1Z"/><path class="cls-8" d="M7.39,179.71c.85,1.41.34,2.41-.94,3.2C6.76,181.84,7.08,180.77,7.39,179.71Z"/><path class="cls-1" d="M86.49,56.11l-2.59,2.1Z"/><path class="cls-1" d="M82.82,59.26c-.86.7-1.73,1.39-2.59,2.1Z"/><path class="cls-1" d="M79.68,61.88,77.1,64Z"/><path class="cls-8" d="M217.42,1.57l1.06.53-2.11.41c0-.28,0-.57,0-.85Z"/><path class="cls-8" d="M195.41,4.69c0,.18,0,.36,0,.55l-1.57.44c0-.29,0-.57,0-.85Z"/><path class="cls-8" d="M200.13,4.64c0-.29,0-.57,0-.86l1.55-.13V4.2C201.18,4.34,200.66,4.48,200.13,4.64Z"/><path class="cls-1" d="M95.41,48.8l-2.08,1.55Z"/><path class="cls-1" d="M93.31,50.36c-.68.53-1.38,1-2.06,1.57Z"/><path class="cls-4" d="M302.84,473.14c10.23-3.64,20.54-7.07,30.66-11A127.41,127.41,0,0,0,350,454.21c9.22-5.22,18.48-10.43,27.24-16.36a172,172,0,0,0,20.4-16.32c8.9-8.26,17.4-17,25.69-25.86A129.59,129.59,0,0,0,434.51,381c4.45-6.41,8.9-12.86,12.8-19.61,4.21-7.27,7.79-14.92,11.65-22.4a6.62,6.62,0,0,1,.47-.61l.69.16c-2.42,5.19-4.42,10.62-7.33,15.52-6.51,10.92-13.17,21.77-20.34,32.26-4.13,6.05-9.16,11.55-14.15,17a215.22,215.22,0,0,1-16.57,16.52c-7.35,6.43-15,12.61-22.94,18.28a251.51,251.51,0,0,1-24.59,15.57,201.53,201.53,0,0,1-24.34,11.22c-9.83,3.8-20,6.78-30,10.1a2.24,2.24,0,0,1-.77,0Z"/><path class="cls-3" d="M463.39,330.52c-.1-.68-.46-1.44-.27-2q3.12-9.66,6.43-19.26c.11-.34.81-.48,1.23-.72-1.7,5.57-3.34,11.16-5.12,16.7A56.1,56.1,0,0,1,463.39,330.52Z"/><path class="cls-3" d="M302.84,473.14,299.09,475l-1,.16-1.1.4-1.52.13-1.11.37-1,.15c-1.06.3-2.13.59-3.19.9l-1.52.16-1.07-.52a29.11,29.11,0,0,1,3.31-1.3c3.48-.93,7-1.79,10.49-2.61C301.83,472.71,302.36,473,302.84,473.14Z"/><path class="cls-3" d="M256.17,480.92c1.78-1.87,3.79-1,5.78-.51,0,.29-.05.58-.07.86l-4.65.18Z"/><path class="cls-3" d="M268.23,479.88c1.7-1.62,3.69-1.55,5.77-1,0,.28,0,.58-.05.86l-1,.13-1.63.35-2,.17C268.93,480.23,268.58,480.05,268.23,479.88Z"/><path class="cls-3" d="M275.55,478.82c1.51-1.63,3.38-1.31,5.26-1,0,.29,0,.58-.05.86l-1,.12-1.11.34-2,.17Z"/><path class="cls-3" d="M281.85,477.77l4.73-1-.06.88-1,.12-1.11.34-2,.19Z"/><path class="cls-3" d="M472.34,303.38c-1.66-1.65-.71-2.57.94-3.27C473,301.2,472.65,302.29,472.34,303.38Z"/><path class="cls-3" d="M474.47,294.42c-1.22-1.16-1.5-2.14.52-2.67C474.82,292.65,474.64,293.53,474.47,294.42Z"/><path class="cls-3" d="M473.39,299.19C472,298,472,297,474,296.48,473.77,297.38,473.58,298.28,473.39,299.19Z"/><path class="cls-4" d="M268.23,479.88l1,.51-3.19.4.06-.86Z"/><path class="cls-4" d="M261.88,481.27c0-.28.05-.57.07-.86l2.06,0,1.08.55Z"/><path class="cls-4" d="M290.18,477.08l3.19-.9Z"/><path class="cls-3" d="M460.12,338.55l-.69-.16,1.38-2Z"/><path class="cls-3" d="M265.09,480.92l-1.08-.56,2.14-.43-.06.86Z"/><path class="cls-4" d="M275.55,478.82l1.07.51-2.67.41c0-.29,0-.58.05-.86Z"/><path class="cls-3" d="M460.9,335.68c-.59-1.16-.44-1.93,1-2C461.59,334.34,461.24,335,460.9,335.68Z"/><path class="cls-3" d="M471.28,306.57c-1.55-1.16-.74-1.53.58-1.71C471.68,305.43,471.48,306,471.28,306.57Z"/><path class="cls-4" d="M286.52,477.66l.06-.88,1,0,1.06.51Z"/><path class="cls-4" d="M281.85,477.77c.18.18.35.36.54.53l-1.63.4c0-.28,0-.57.06-.86Z"/><path class="cls-4" d="M271.33,480.23l1.62-.35Z"/><path class="cls-3" d="M462.34,332.75l-.56-.73,1.14-.49C462.72,332,462.52,332.35,462.34,332.75Z"/><path class="cls-4" d="M294.37,476l1.11-.37Z"/><path class="cls-4" d="M297,475.54l1.1-.4Z"/><path class="cls-4" d="M284.42,478.12l1.11-.34Z"/><path class="cls-4" d="M278.65,479.16l1.11-.34Z"/><path class="cls-9" d="M119.4,263.54c-.33-.71-.66-1.43-1-2.14C118.74,262.11,119.07,262.83,119.4,263.54Z"/><path class="cls-8" d="M241,1.49l-3.63,0Z"/><path class="cls-8" d="M254.07,2c-1.15.61-2.31,1.27-3.11-.47Z"/><path class="cls-8" d="M271.37,3.6l-1.53-.48Z"/><path class="cls-8" d="M262.46,2.54,260.9,2.1Z"/><path class="cls-8" d="M274.51,4.13l-1-.48Z"/><path class="cls-3" d="M246.24,481.05l6.81-.08Z"/><path class="cls-3" d="M226.85,481l6.8.08Z"/><path class="cls-3" d="M160.8,467.88c-.33-.17-.67-.33-1-.48C160.13,467.55,160.47,467.71,160.8,467.88Z"/><path class="cls-8" d="M211.17,3.05l3.11-.44C213.46,4.32,212.32,3.75,211.17,3.05Z"/><path class="cls-8" d="M203.83,4.1l1.54-.44Z"/><path class="cls-8" d="M207.49,3.57l1-.43C208.19,3.29,207.84,3.43,207.49,3.57Z"/><path class="cls-8" d="M197.54,5.16l1.07-.42Z"/><path class="cls-10" d="M1736.39,371.36a21.31,21.31,0,0,1-3.2-13q.4-7.39,8.4-12.6a18.06,18.06,0,0,1,11.79-3q6.19.6,11.8,6.2a89,89,0,0,0,25,19.59q13.78,7.2,33.38,7.2a79.71,79.71,0,0,0,16.39-2.6,31.9,31.9,0,0,0,14.4-8q6-5.79,6-17,0-10-6.39-16a48.83,48.83,0,0,0-16.79-9.8q-10.41-3.79-22.39-7-12.81-3.6-25.79-8A97.75,97.75,0,0,1,1765.58,296a55.52,55.52,0,0,1-17-18.19q-6.6-11.19-6.6-27.59,0-18.79,10.6-32.39a71,71,0,0,1,27.58-21.19,89.62,89.62,0,0,1,37-7.59,106.9,106.9,0,0,1,24.39,3,101.65,101.65,0,0,1,24.79,9.39,70.52,70.52,0,0,1,20.79,16.79,23.06,23.06,0,0,1,4.6,12.4q.6,7.19-6.6,12.79a15.92,15.92,0,0,1-11.59,3.6,17.55,17.55,0,0,1-11.2-4.4,51.31,51.31,0,0,0-19.59-15,65.52,65.52,0,0,0-27.18-5.4,61.14,61.14,0,0,0-15.8,2.2,30.2,30.2,0,0,0-13.79,7.8q-5.61,5.6-5.6,16.39,0,10,6.6,16a52.71,52.71,0,0,0,17.39,10A226.49,226.49,0,0,0,1828,281.8q12.39,3.21,24.59,7.6a90.91,90.91,0,0,1,22,11.39,55,55,0,0,1,16,18q6.2,11,6.2,27.78,0,19.6-11.4,33.39a72.73,72.73,0,0,1-28.78,21,94.91,94.91,0,0,1-36.59,7.19,132.24,132.24,0,0,1-45.37-8.19Q1752,391.76,1736.39,371.36Z"/><path class="cls-10" d="M1685.22,193.84a19.3,19.3,0,0,1,14.19,5.8,19.81,19.81,0,0,1,5.8,14.59V319.39q0,41.58-23.19,65t-65.57,23.39q-42,0-65-23.39t-23-65V214.23a20.18,20.18,0,0,1,5.6-14.59,19.14,19.14,0,0,1,14.39-5.8,19.34,19.34,0,0,1,14.2,5.8,19.81,19.81,0,0,1,5.79,14.59V319.39q0,26,12.2,38.78T1616.45,371q24,0,36.38-12.79t12.4-38.78V214.23a20.14,20.14,0,0,1,5.6-14.59A19.13,19.13,0,0,1,1685.22,193.84Z"/><path class="cls-10" d="M1482.52,201.24a19.18,19.18,0,0,0-14.4-5.8,18.8,18.8,0,0,0-14.39,6,21,21,0,0,0-3.44,4.92,1.75,1.75,0,0,0-.17.75v95.36h0c0,.31,0,.62,0,.92q0,20.81-8.4,37.39a64.57,64.57,0,0,1-23.18,26q-14.8,9.4-34.39,9.4t-34.38-9.6a66.26,66.26,0,0,1-23.19-26q-8.4-16.4-8.4-37.19t8.4-37.18a66.36,66.36,0,0,1,23.19-26q14.79-9.58,34.38-9.59t34.39,9.39a60.54,60.54,0,0,1,6,4.37,1.66,1.66,0,0,0,2.72-1.27V209.5a1.88,1.88,0,0,0-.75-1.4c-7.38-4.79-9.55-5.85-16.77-8.66a86.52,86.52,0,0,0-31.59-5.6q-27.59,0-49.77,14.2T1293,246.82q-13.18,24.58-13.19,56.57T1293,360a102.07,102.07,0,0,0,35.59,38.78q22.38,14.19,50.77,14.19a79,79,0,0,0,26.59-4.6,91,91,0,0,0,23-11.79,70.44,70.44,0,0,0,16.19-15.79h0a1.65,1.65,0,0,1,3,1V397q0,25.57-16.19,40.38t-48.18,14.79a81.05,81.05,0,0,1-19.59-2.6,166.33,166.33,0,0,1-18.79-5.79q-8.4-3.21-12.39-4.4-8.81-3.21-15.6-1.2t-10.79,10.79a14.84,14.84,0,0,0,.2,12.8q3,6.34,12.07,11.13a1.07,1.07,0,0,1,.22.15q4.42,3.56,15.69,7.11a222.62,222.62,0,0,0,25,6.2,128.31,128.31,0,0,0,23.59,2.6q28.38,0,52.18-10a84.71,84.71,0,0,0,38.18-31.38q14.38-21.4,14.39-55.38V215.83A20.21,20.21,0,0,0,1482.52,201.24Z"/><path class="cls-10" d="M1025.14,250.82a103.15,103.15,0,0,0-53.18-54,90.87,90.87,0,0,0-37.18-7.79,94,94,0,0,0-48.38,13.39q-22.78,13.4-37,38.38T835.23,301q0,31.18,13.39,55.38a96.75,96.75,0,0,0,37.78,38q24.39,13.8,57.58,13.79a101.57,101.57,0,0,0,39.78-8q19-8,29.78-18.39,8.79-7.2,8.8-16a16.45,16.45,0,0,0-4.8-11.79,15.94,15.94,0,0,0-12-5,23,23,0,0,0-11.81,3.49,2,2,0,0,0-.35.25q-4.74,3.93-11,8.26a59.74,59.74,0,0,1-16,7.39q-9.6,3-24.39,3a67.58,67.58,0,0,1-34.39-9,67.86,67.86,0,0,1-28.41-32.95l-.12-.28c-.47-1.19-.92-2.4-1.33-3.63,0-.11-.08-.23-.11-.34-.42-1.25-.81-2.52-1.16-3.81h0v0c-.21-.78-.41-1.56-.59-2.35a.64.64,0,0,0,0-.07v0q-.83-3.5-1.35-7.19h0l-.06-.52v-.06c-.06-.43-.12-.87-.17-1.31h0c0-.21,0-.42-.07-.63s0-.5-.08-.75c-.06-.61-.12-1.21-.17-1.82,0-.34,0-.68-.07-1,0-.54-.08-1.07-.11-1.61l-.06-1.44c0-.41,0-.81,0-1.22,0-.9,0-1.8,0-2.71q0-20.4,5-34.19c.28-.78.58-1.52.88-2.28h0a56.58,56.58,0,0,1,12.71-19.91A52.05,52.05,0,0,1,911.79,230a70,70,0,0,1,23-3.8,60.74,60.74,0,0,1,26,5.8,56.94,56.94,0,0,1,20.79,16.39,42.57,42.57,0,0,1,9.19,24.49v.2h0a2.69,2.69,0,0,1-2.69,2.7H907.24a10.35,10.35,0,0,0-9.86,8.34,85.48,85.48,0,0,0-.92,14.45c0,.43,0,.81,0,1.17a10,10,0,0,0,10,10h106.69a20.7,20.7,0,0,0,14-5.2,18,18,0,0,0,6.39-13v-.29A106.55,106.55,0,0,0,1025.14,250.82Z"/><path class="cls-10" d="M1100.9,398.35a19.79,19.79,0,0,0,5.79-14.59V214.23a19.81,19.81,0,0,0-5.79-14.59,19.34,19.34,0,0,0-14.2-5.8,19.14,19.14,0,0,0-14.39,5.8,20.14,20.14,0,0,0-5.6,14.59V383.76a20.12,20.12,0,0,0,5.6,14.59,19.11,19.11,0,0,0,14.39,5.8A19.3,19.3,0,0,0,1100.9,398.35Z"/><path class="cls-10" d="M1240.83,232.43q-6.19-19.8-21.79-31.59t-44-11.79a75.37,75.37,0,0,0-26.39,4.59,84.94,84.94,0,0,0-14.85,7.19c-3.1,1.9-4.27,2.94-4.28,6.57,0,10,0,13.48,0,14.71v8.72a2.33,2.33,0,0,0,3.48,2l.06,0q12.39-7,28.79-7,17.58,0,27.38,7a37.23,37.23,0,0,1,13.8,18.39,77.71,77.71,0,0,1,4,25.79V383.76a20.16,20.16,0,0,0,5.59,14.59,20.52,20.52,0,0,0,28.59,0,19.8,19.8,0,0,0,5.8-14.59V276.61Q1247,252.22,1240.83,232.43Z"/><path class="cls-10" d="M775,182.47l-18.4,18.39A8.75,8.75,0,0,0,755,211l0,.06q11.79,23.6,11.8,53.17t-11.8,53.18q-11.79,23.6-32.58,37.18t-48,13.59q-26.79,0-47.58-13.59a90,90,0,0,1-7.54-5.52,8.66,8.66,0,0,0-11.58.64l-17,17a8.72,8.72,0,0,0,.77,13,130.78,130.78,0,0,0,28.92,17.51q24.78,11,54,11,29.58,0,54.38-11a129.76,129.76,0,0,0,43-30.59,139.47,139.47,0,0,0,28.19-45.77,157.44,157.44,0,0,0,10-56.58,157.42,157.42,0,0,0-10-56.57,146.11,146.11,0,0,0-11.44-23.54A8.69,8.69,0,0,0,775,182.47Z"/><path class="cls-10" d="M575.65,252.42a8.7,8.7,0,0,0,8.61-7.53,110.31,110.31,0,0,1,10.29-34,92,92,0,0,1,32.38-37q20.79-13.57,47.58-13.59,27.18,0,48,13.59a91.1,91.1,0,0,1,10,7.55,8.66,8.66,0,0,0,11.8-.46l17-17a8.72,8.72,0,0,0-.56-12.82,130.72,130.72,0,0,0-31.77-19.88q-24.79-11-54.38-11a131.72,131.72,0,0,0-54,11,129.89,129.89,0,0,0-43,30.59,136.84,136.84,0,0,0-28,45.78,152.4,152.4,0,0,0-8.5,35.09,8.67,8.67,0,0,0,8.64,9.69Z"/><path class="cls-10" d="M594.55,317.39a112.11,112.11,0,0,1-10.37-34.57,8.7,8.7,0,0,0-8.61-7.55h-26a8.68,8.68,0,0,0-8.65,9.66,153.23,153.23,0,0,0,8.6,35.86,142.23,142.23,0,0,0,13.24,26.7,8.69,8.69,0,0,0,13.46,1.43l18.29-18.3a8.7,8.7,0,0,0,1.52-10.24C595.55,319.39,595.05,318.4,594.55,317.39Z"/></g></svg>