<svg xmlns="http://www.w3.org/2000/svg" viewBox="0 0 1896.72 487.44"><defs><style>.cls-1{fill:#f9f9fa;}</style></defs><g id="Layer_8" data-name="Layer 8"><path class="cls-1" d="M1736.39,371.45a21.27,21.27,0,0,1-3.2-13q.4-7.4,8.4-12.59a18.06,18.06,0,0,1,11.79-3q6.19.6,11.8,6.2a89.21,89.21,0,0,0,25,19.59q13.78,7.18,33.38,7.19a79.71,79.71,0,0,0,16.39-2.6,31.89,31.89,0,0,0,14.4-8q6-5.79,6-17,0-10-6.39-16a48.82,48.82,0,0,0-16.79-9.79q-10.41-3.8-22.39-7-12.81-3.6-25.79-8a97,97,0,0,1-23.39-11.39,55.52,55.52,0,0,1-17-18.19q-6.6-11.19-6.6-27.59,0-18.78,10.6-32.38a70.82,70.82,0,0,1,27.58-21.19,89.63,89.63,0,0,1,37-7.6,106.9,106.9,0,0,1,24.39,3,102.06,102.06,0,0,1,24.79,9.39,70.4,70.4,0,0,1,20.79,16.8,23,23,0,0,1,4.6,12.39q.6,7.2-6.6,12.8a16,16,0,0,1-11.59,3.59,17.6,17.6,0,0,1-11.2-4.39,51.33,51.33,0,0,0-19.59-15,65.52,65.52,0,0,0-27.18-5.39,61.12,61.12,0,0,0-15.8,2.19,30.2,30.2,0,0,0-13.79,7.8q-5.61,5.61-5.6,16.39,0,10,6.6,16a52.87,52.87,0,0,0,17.39,10,224,224,0,0,0,23.59,7.2q12.39,3.19,24.59,7.59a90.93,90.93,0,0,1,22,11.4,55,55,0,0,1,16,18q6.2,11,6.2,27.79,0,19.59-11.4,33.38a72.64,72.64,0,0,1-28.78,21,94.74,94.74,0,0,1-36.59,7.2,132.26,132.26,0,0,1-45.37-8.2Q1752,391.85,1736.39,371.45Z"/><path class="cls-1" d="M1685.22,193.94a19.3,19.3,0,0,1,14.19,5.8,19.8,19.8,0,0,1,5.8,14.59V319.48q0,41.58-23.19,65t-65.57,23.39q-42,0-65-23.39t-23-65V214.33a20.16,20.16,0,0,1,5.6-14.59,19.14,19.14,0,0,1,14.39-5.8,19.34,19.34,0,0,1,14.2,5.8,19.79,19.79,0,0,1,5.79,14.59V319.48q0,26,12.2,38.78t35.78,12.8q24,0,36.38-12.8t12.4-38.78V214.33a20.12,20.12,0,0,1,5.6-14.59A19.13,19.13,0,0,1,1685.22,193.94Z"/><path class="cls-1" d="M1482.52,201.34a19.18,19.18,0,0,0-14.4-5.8,18.8,18.8,0,0,0-14.39,6,21,21,0,0,0-3.44,4.91,1.83,1.83,0,0,0-.17.76v95.36h0c0,.31,0,.61,0,.92q0,20.79-8.4,37.38a64.6,64.6,0,0,1-23.18,26q-14.8,9.39-34.39,9.39t-34.38-9.59a66.36,66.36,0,0,1-23.19-26q-8.4-16.4-8.4-37.18t8.4-37.19a66.33,66.33,0,0,1,23.19-26q14.79-9.6,34.38-9.6t34.39,9.4a62.1,62.1,0,0,1,6,4.36,1.66,1.66,0,0,0,2.72-1.26V209.59a1.87,1.87,0,0,0-.75-1.39c-7.38-4.79-9.55-5.85-16.77-8.66a86.52,86.52,0,0,0-31.59-5.6q-27.59,0-49.77,14.19T1293,246.91q-13.18,24.6-13.19,56.58T1293,360.06a102.07,102.07,0,0,0,35.59,38.78Q1351,413,1379.36,413a79.3,79.3,0,0,0,26.59-4.6,91,91,0,0,0,23-11.8,70,70,0,0,0,16.19-15.79h0a1.66,1.66,0,0,1,3,1V397q0,25.59-16.19,40.38t-48.18,14.8a81.05,81.05,0,0,1-19.59-2.6,168.33,168.33,0,0,1-18.79-5.8q-8.4-3.19-12.39-4.4-8.81-3.19-15.6-1.2T1306.6,449a14.82,14.82,0,0,0,.2,12.79q3,6.36,12.07,11.13a1.7,1.7,0,0,1,.22.15q4.42,3.56,15.69,7.11a222.62,222.62,0,0,0,25,6.2,128.31,128.31,0,0,0,23.59,2.6q28.38,0,52.18-10a84.58,84.58,0,0,0,38.18-31.38q14.38-21.39,14.39-55.37V215.93A20.2,20.2,0,0,0,1482.52,201.34Z"/><path class="cls-1" d="M1025.14,250.91a103.18,103.18,0,0,0-53.18-54,90.72,90.72,0,0,0-37.18-7.8,94.07,94.07,0,0,0-48.38,13.39q-22.78,13.41-37,38.39t-14.19,60.17q0,31.19,13.39,55.37a96.69,96.69,0,0,0,37.78,38q24.39,13.8,57.58,13.8a101.58,101.58,0,0,0,39.78-8q19-8,29.78-18.39,8.79-7.2,8.8-16a16.49,16.49,0,0,0-4.8-11.8,15.93,15.93,0,0,0-12-5,23.06,23.06,0,0,0-11.81,3.48c-.12.08-.24.16-.35.25q-4.74,3.94-11,8.26a59.43,59.43,0,0,1-16,7.4q-9.6,3-24.39,3a67.57,67.57,0,0,1-34.39-9,68,68,0,0,1-28.41-32.95l-.12-.29c-.47-1.19-.92-2.4-1.33-3.62,0-.12-.08-.23-.11-.35-.42-1.25-.81-2.52-1.16-3.81h0v0c-.21-.78-.41-1.56-.59-2.35,0,0,0-.05,0-.07v0c-.55-2.34-1-4.73-1.35-7.19h0l-.06-.52v-.06c-.06-.44-.12-.88-.17-1.32h0c0-.21,0-.42-.07-.63s0-.5-.08-.75c-.06-.6-.12-1.21-.17-1.82,0-.33,0-.67-.07-1,0-.53-.08-1.07-.11-1.61l-.06-1.44c0-.41,0-.81,0-1.22,0-.9,0-1.8,0-2.71q0-20.38,5-34.18c.28-.78.58-1.53.88-2.28h0a56.4,56.4,0,0,1,12.71-19.91,52.2,52.2,0,0,1,19.59-12.2,70,70,0,0,1,23-3.8,60.74,60.74,0,0,1,26,5.8,57,57,0,0,1,20.79,16.39A42.57,42.57,0,0,1,990.75,273v.2h0a2.69,2.69,0,0,1-2.69,2.7H907.24a10.35,10.35,0,0,0-9.86,8.35,85.36,85.36,0,0,0-.92,14.44c0,.43,0,.82,0,1.17a10,10,0,0,0,10,10h106.69a20.74,20.74,0,0,0,14-5.19,18,18,0,0,0,6.39-13.06v-.28A106.65,106.65,0,0,0,1025.14,250.91Z"/><path class="cls-1" d="M1100.9,398.44a19.78,19.78,0,0,0,5.79-14.59V214.33a19.79,19.79,0,0,0-5.79-14.59,19.34,19.34,0,0,0-14.2-5.8,19.14,19.14,0,0,0-14.39,5.8,20.12,20.12,0,0,0-5.6,14.59V383.85a20.11,20.11,0,0,0,5.6,14.59,19.11,19.11,0,0,0,14.39,5.8A19.3,19.3,0,0,0,1100.9,398.44Z"/><path class="cls-1" d="M1240.83,232.52q-6.19-19.78-21.79-31.58t-44-11.8a75.37,75.37,0,0,0-26.39,4.6,84.24,84.24,0,0,0-14.85,7.19c-3.1,1.89-4.27,2.93-4.28,6.56,0,10,0,13.49,0,14.72v8.72a2.33,2.33,0,0,0,3.48,2l.06,0q12.39-7,28.79-7,17.58,0,27.38,7a37.31,37.31,0,0,1,13.8,18.39,77.75,77.75,0,0,1,4,25.79V383.85a20.14,20.14,0,0,0,5.59,14.59,20.52,20.52,0,0,0,28.59,0,19.78,19.78,0,0,0,5.8-14.59V276.7Q1247,252.31,1240.83,232.52Z"/><path class="cls-1" d="M775,182.57,756.63,201A8.73,8.73,0,0,0,755,211.07l0,.06q11.79,23.6,11.8,53.18t-11.8,53.17q-11.79,23.59-32.58,37.18t-48,13.6q-26.79,0-47.58-13.6a87.72,87.72,0,0,1-7.54-5.51,8.66,8.66,0,0,0-11.58.63l-17,17a8.71,8.71,0,0,0,.77,13,130.19,130.19,0,0,0,82.89,28.51q29.58,0,54.38-11a129.74,129.74,0,0,0,43-30.58,139.62,139.62,0,0,0,28.19-45.78,157.42,157.42,0,0,0,10-56.57,157.44,157.44,0,0,0-10-56.58,146,146,0,0,0-11.44-23.53A8.68,8.68,0,0,0,775,182.57Z"/><path class="cls-1" d="M575.65,252.52a8.71,8.71,0,0,0,8.61-7.53,110.37,110.37,0,0,1,10.29-34.06,92,92,0,0,1,32.38-37q20.79-13.59,47.58-13.6,27.18,0,48,13.6a91,91,0,0,1,10,7.54,8.66,8.66,0,0,0,11.8-.45l17-17a8.72,8.72,0,0,0-.56-12.82,131,131,0,0,0-31.77-19.87q-24.79-11-54.38-11a131.57,131.57,0,0,0-54,11,129.86,129.86,0,0,0-43,30.58,137,137,0,0,0-28,45.78,152.36,152.36,0,0,0-8.5,35.1,8.68,8.68,0,0,0,8.64,9.69Z"/><path class="cls-1" d="M594.55,317.48a112.14,112.14,0,0,1-10.37-34.56,8.71,8.71,0,0,0-8.61-7.56h-26A8.68,8.68,0,0,0,541,285a153.11,153.11,0,0,0,8.6,35.86,141.93,141.93,0,0,0,13.24,26.7A8.69,8.69,0,0,0,576.27,349l18.29-18.29a8.72,8.72,0,0,0,1.52-10.25C595.55,319.49,595.05,318.49,594.55,317.48Z"/><path class="cls-1" d="M0,217.51l.62,0c.24,1.14.47,2.29.76,3.66H4q55.82,0,111.66,0c1.38,0,2.76-.71,4.15-1.1-.5.73-.85,1.8-1.53,2.09a9.2,9.2,0,0,1-3.56.53q-55.32,0-110.63,0A36.1,36.1,0,0,1,0,222.22Z"/><path class="cls-1" d="M0,260.47A23.48,23.48,0,0,1,3.32,260q56.31,0,112.62-.06c2.59,0,3.63.57,4.23,3.48,1.29,6.25,3.44,12.32,5.2,18.47.35,1.23.54,2.51.81,3.77a10.39,10.39,0,0,1-1.66-2.13,29,29,0,0,1-1.58-4.63c-1.23-5.08-2.36-10.18-3.54-15.27-.33-.72-.66-1.43-1-2.14a21.24,21.24,0,0,0-3.25-.48q-55,0-109.94,0c-4.09,0-4.08,0-4.31,3.75,0,.14-.19.27-.29.41l-.63,0Z"/><path class="cls-1" d="M479.89,258.37c-1.25,9.93-2.49,19.87-3.78,29.8a10.13,10.13,0,0,1-.81,2.16,15.46,15.46,0,0,1-.31-3.62c.48-3.41,1.32-6.76,1.75-10.16.69-5.4,1.34-10.81,1.7-16.25q.71-10.63.87-21.3c.08-4.51-.31-9-.41-13.53,0-.56.48-1.14.75-1.71.08.54.16,1.08.25,1.63q.25,5,.53,9.94v12Z"/><path class="cls-1" d="M224.25,1.16C227.64,1,231,.83,234.42.6c1.16-.07,2.29-.33,3.43-.51h3.67c1,.18,2,.44,2.94.52,10.69.91,21.38,1.78,32.06,2.68a4.32,4.32,0,0,1,1.15.46l-1,.53-2.13,0c-.34-.16-.68-.31-1-.48l-2.13,0-1.52-.49-7.38-.58L260.9,2.2l-6.83-.07L251,1.66,241,1.6l-3.63,0-9.46,0Z"/><path class="cls-1" d="M257.23,481.54c0,.18,0,.36,0,.54H241c0-.31.05-.61.07-.92l5.17,0,6.81-.07,3.12-.06Z"/><path class="cls-1" d="M223.18,482.08c0-.18,0-.36,0-.54.18-.19.36-.37.55-.54l3.12.07,6.8.07,5.17,0c0,.3,0,.6.08.91Z"/><path class="cls-1" d="M479.89,258.37c.18-3.67.36-7.33.53-11v11Z"/><path class="cls-1" d="M480.42,235.32c-.17-3.32-.35-6.63-.53-9.95h.53Z"/><path class="cls-1" d="M238.9,482.08c0-.31-.05-.61-.08-.91h2.25c0,.31,0,.61-.08.92Z"/><path class="cls-1" d="M241.07,481.16h-2.24l-5.17,0-6.8-.07-3.12-.07c-.6-.33-1.18-.9-1.79-.95-1.53-.1-3.08,0-4.61.07l-1,0-2.6-.1-1.55,0c-1-1.67-2.34-1.18-3.69-.51l-1-.06L205.9,479l-1,0-5.26-1-1.55-.07c-.42-.32-.81-.85-1.29-1q-6.45-1.41-12.92-2.66c-1.37-.27-2.77-.37-4.15-.54l-1-.07c-.26-.31-.47-.79-.79-.89q-4.68-1.41-9.41-2.72c-2.55-.71-5.12-1.37-7.68-2h0l-1-.47-1.56.3-1-.45c-.34-.31-.62-.76-1-.93-3.19-1.28-6.48-2.32-9.58-3.79-6.23-2.95-12.35-6.14-18.55-9.17a32.58,32.58,0,0,0-3.83-1.31h0l-3.68-2.06h0l-1.09-.56-1-.52-1.58-1h0l-10.45-6.81,0,0-1.58-1h0c-.53-.34-1-.69-1.57-1h0L100.14,437h0L96,433.8l0,0-2.11-2.09a8.69,8.69,0,0,0-1.29-2.05c-2-1.75-4.07-3.39-6.25-5.18,2.27-2.41,4.29-4.68,6.43-6.82,4.68-4.68,9.47-9.25,14.13-13.94,5.5-5.55,10.85-11.25,16.36-16.78,7.79-7.81,15.68-15.52,23.48-23.32a8.07,8.07,0,0,0,1.17-2.51c2.21-2.41,4.35-4.92,6.66-7.24q41.6-41.62,83.22-83.2,26.81-26.82,53.6-53.66a3.36,3.36,0,0,1,.67-.39c1.75.42,2.44-.24,2-2l4.52-4.54c1.62.85,1-.59,1.18-1.17l2-2c.51,0,1.23.14,1.51-.13,2.93-2.83,5.83-5.7,8.65-8.65.43-.45.43-1.32.63-2l.83-.82a13,13,0,0,0,3.11-1.75q51.9-51.81,103.75-103.7c2.23-2.22,2.79-2.24,4.44,0,6.06,8.44,12.39,16.69,18,25.41,4.9,7.55,9.17,15.53,13.38,23.5a135,135,0,0,1,5.95,14c2.21,5.67,4.42,11.35,6.27,17.14,1.74,5.43,3.06,11,4.45,16.54A127.53,127.53,0,0,1,475.66,199c1.1,7.46,1.8,15,2.74,22.45.07.49.79.89,1.2,1.33,0,.31,0,.62,0,.93-.26.57-.76,1.15-.74,1.71.09,4.52.48,9,.41,13.53q-.18,10.65-.88,21.3c-.35,5.43-1,10.85-1.69,16.25-.44,3.41-1.27,6.76-1.76,10.16a16.08,16.08,0,0,0,.32,3.62c-.1.51-.2,1-.31,1.53-2,.52-1.74,1.5-.52,2.66l-.51,2.06c-2,.51-1.94,1.47-.58,2.71,0,.31-.07.61-.11.92-1.65.71-2.6,1.61-.94,3.27l-.48,1.47c-1.32.18-2.13.56-.58,1.71l-.5,1.95c-.42.24-1.12.38-1.23.72q-3.3,9.6-6.43,19.26c-.19.59.17,1.35.27,2-.16.35-.32.68-.48,1l-1.14.49.56.73c-.13.31-.27.61-.39.92-1.48.07-1.64.84-1.05,2,0,.22-.05.45-.08.68l-1.38,2a3.75,3.75,0,0,0-.47.6c-3.86,7.49-7.44,15.13-11.65,22.41-3.9,6.75-8.35,13.19-12.8,19.6-3.52,5.05-7,10.2-11.2,14.67-8.29,8.88-16.79,17.59-25.69,25.86a172,172,0,0,1-20.4,16.31c-8.76,5.93-18,11.15-27.24,16.36a126.11,126.11,0,0,1-16.48,7.94c-10.12,3.93-20.43,7.35-30.66,11-.48-.12-1-.43-1.45-.33-3.5.82-7,1.68-10.49,2.61a29,29,0,0,0-3.3,1.3l-1,0-4.73,1-1,.07c-1.88-.34-3.75-.65-5.26,1-.51,0-1,0-1.55.06-2.07-.54-4.07-.61-5.77,1-.7,0-1.39,0-2.08.06l-2.14.42-2.06.05c-2-.52-4-1.37-5.78.5l-3.12.06-6.81.08C244.52,481.15,242.8,481.16,241.07,481.16Z"/><path class="cls-1" d="M227.88,1.65l9.47,0,3.63,0,10,.06c.8,1.75,2,1.08,3.11.48l6.82.06,1.56.45,7.39.58,1.53.48,2.13,0,1,.47,2.13,0,2.07.45c3.3.73,6.62,1.35,9.89,2.19,8.86,2.27,17.85,4.21,26.53,7.06,9,3,17.63,6.83,26.43,10.29,1.48.84,3,1.66,4.44,2.52,7.3,4.27,14.54,8.67,21.93,12.8,8.76,4.9,16.38,11.34,24.29,17.4,1.74,1.32,1.24,2.14,0,3.26-2.48,2.32-5,4.59-7.4,7-5,5.07-10,10.22-15,15.31s-10.29,10.38-15.41,15.58c-.21.22-.21.64-.3,1h0l-2.62,2.62L331,122.77c-1.63,1.68-3.25,3.38-4.88,5.06l-.34.4-.64.65-.4.4-.12.12-.41.35-12.49,12.07-4.2-1.49c-.5-.34-1-.67-1.5-1l-1.64-1.12-1.5-1c-.47-1.66-1.35-2.57-3.18-1.69l-.79-.39c.58-1.9-1-1.29-1.81-1.56-2.83-1.51-5.59-3.19-8.52-4.49-9.51-4.19-19.52-6.73-29.63-8.91a14,14,0,0,0-3.79.24l-1-.06-2.24-.83c-1.57-1.93-3.39-1.13-5.19-.45H232.64c-2-.66-3.94-1.48-5.71.45l-2.24.83-1,.09a6,6,0,0,0-2.23-.36c-8.45,2.1-17.17,3.52-25.24,6.63a120.48,120.48,0,0,0-33.13,18.86A128.87,128.87,0,0,0,138,172.87c-7.26,10.68-12.3,22.49-16.08,34.83a5,5,0,0,0,.2,1.92c0,.33-.08.65-.11,1a2.52,2.52,0,0,0-1,3.74l-.09,1a2.52,2.52,0,0,0-1,3.74c0,.33-.07.65-.1,1-1.39.38-2.77,1.09-4.15,1.1q-55.83.09-111.67.05H1.4c-.28-1.37-.51-2.52-.75-3.66.15-1.9.31-3.79.46-5.69,2.06-.94.76-2.44.62-3.75.06-.5.11-1,.16-1.5A8.84,8.84,0,0,0,3,204.35q1.44-7.22,2.68-14.47c.34-1.95.45-3.94.66-5.92,0-.32.08-.66.12-1,1.29-.78,1.8-1.79.94-3.2,0-.33.08-.66.11-1a7.51,7.51,0,0,0,2-6.34c0-.33.07-.66.11-1,.44-.39,1.09-.7,1.26-1.18,1.81-5.07,3.49-10.18,5.3-15.25A201.3,201.3,0,0,1,32,121.79c1.57-2.75,2.85-5.66,4.27-8.5l0,0a14.66,14.66,0,0,0,2.17-2.06c2.63-3.76,5-7.74,7.79-11.38A298.11,298.11,0,0,1,74.65,67.59a6.23,6.23,0,0,0,.94-2L77.13,64l2.58-2.1.56-.53c.86-.7,1.72-1.39,2.58-2.1l1.09-1.05,2.58-2.1h0l3.13-2.61L91.28,52c.68-.53,1.37-1,2.06-1.57h0l2.08-1.55,0,0,3.64-2.62v0c2.79-1.66,5.61-3.27,8.34-5a28,28,0,0,0,3.19-2.79h0l4.18-2.6h0A31,31,0,0,0,118,34.57c9.91-4.92,19.69-10.13,29.75-14.73a150.14,150.14,0,0,1,19.54-7.14C176,10.09,185,8,193.86,5.74l1.57-.44,2.12-.09,1.07-.41,1.53-.11c.53-.15,1-.29,1.57-.45l2.13-.08,1.54-.44,2.13-.1,1-.42,2.64-.09c1.16.69,2.3,1.27,3.12-.45l2.09-.1,2.11-.42,4.7-.09C224.83,2.74,226.47,3.48,227.88,1.65Z"/><path class="cls-1" d="M.63,265.16c.1-.14.29-.27.29-.41C1.15,261,1.15,261,5.23,261q55,0,109.94,0a21.61,21.61,0,0,1,3.25.48c.33.71.66,1.43,1,2.14,1.18,5.09,2.31,10.19,3.54,15.27a29.16,29.16,0,0,0,1.58,4.64,10.61,10.61,0,0,0,1.66,2.12l.63,2.54a18.86,18.86,0,0,0,1.09,3.41c3.38,6.13,6.73,12.28,10.36,18.26,1.32,2.17,1.11,3.38-.64,5.12-14.29,14.16-28.49,28.43-42.72,42.65q-18,18-36,36c-.72.71-1.48,1.37-2.13,2L53,392.46l-1-1.11-1.07-1.5v0a18,18,0,0,0-1.28-2.78C44,378.77,38,370.79,33,362.19a300.6,300.6,0,0,1-14.64-28.94,149.36,149.36,0,0,1-9.67-28.53c-1.86-8.45-3.7-16.91-5.61-25.36a22.37,22.37,0,0,0-1.26-3.26c0-.67-.09-1.34-.13-2s-.28-1.09-.41-1.65-.08-1.34-.13-2l-.27-1.16C.78,267.89.71,266.52.63,265.16Z"/><path class="cls-1" d="M479.6,222.82c-.42-.44-1.14-.84-1.2-1.33-.95-7.47-1.65-15-2.75-22.44a127.67,127.67,0,0,0-2.86-12.58c-1.41-5.53-2.72-11.1-4.45-16.54-1.85-5.79-4.07-11.47-6.28-17.13a133.36,133.36,0,0,0-5.95-14c-4.2-8-8.48-16-13.37-23.5-5.65-8.71-12-17-18-25.41-1.64-2.28-2.21-2.26-4.44,0Q368.41,141.7,316.51,193.53a13,13,0,0,1-3.11,1.75,23.4,23.4,0,0,1,1.73-2.21q52.49-52.53,105-105c2.65-2.65,2.81-2.57,5.06.35,3.29,4.24,6.94,8.24,10,12.64a209.1,209.1,0,0,1,12.22,19c5.21,9.51,10.07,19.24,14.59,29.11a189.52,189.52,0,0,1,13.55,43.59c1.7,8.84,2.84,17.78,4.16,26.69A18.08,18.08,0,0,1,479.6,222.82Z"/><path class="cls-1" d="M53,392.46l3.77,3.15c.64-.6,1.41-1.27,2.12-2l36-36q21.34-21.33,42.71-42.65c1.75-1.73,2-2.95.65-5.11-3.64-6-7-12.14-10.36-18.26a17.62,17.62,0,0,1-1.09-3.41,15.32,15.32,0,0,1,1.71,2.09c3.8,6.63,7.46,13.34,11.37,19.9,1.1,1.85,1.06,2.95-.48,4.46q-19.2,19.06-38.28,38.24Q87,367,72.87,381.17c-4.71,4.73-9.36,9.51-14,14.28-1.77,1.81-2.79,1.76-4.32-.39C54,394.24,53.49,393.33,53,392.46Z"/><path class="cls-1" d="M122,209.65a5.43,5.43,0,0,1-.2-1.92c3.78-12.34,8.82-24.15,16.09-34.83a128.35,128.35,0,0,1,25.17-27.29,120.17,120.17,0,0,1,33.12-18.86c8.07-3.11,16.79-4.53,25.24-6.63a6,6,0,0,1,2.23.36c-2.06.45-4.14.88-6.2,1.35a150.3,150.3,0,0,0-26.62,8.38c-18.47,7.94-33.52,20-46.15,35.45-9.11,11.14-15.43,23.79-20.32,37.22C123.59,205.12,122.82,207.39,122,209.65Z"/><path class="cls-1" d="M354.16,99.11c.1-.33.09-.76.31-1,5.12-5.2,10.29-10.37,15.41-15.57s9.95-10.25,15-15.31c2.39-2.41,4.91-4.68,7.39-7,1.19-1.12,1.7-1.93,0-3.26-7.91-6.06-15.52-12.5-24.28-17.39-7.4-4.13-14.63-8.53-21.94-12.81-1.47-.86-2.95-1.67-4.43-2.51l.06-.82c9.25,5.1,18.74,9.83,27.7,15.41,7.85,4.89,15.09,10.73,22.61,16.15a1.62,1.62,0,0,1,.19.18c3.59,2.95,3.59,3.08.35,6.32q-17.91,17.91-35.85,35.83A22,22,0,0,1,354.16,99.11Z"/><path class="cls-1" d="M147.87,361.09a8.3,8.3,0,0,1-1.17,2.51c-7.8,7.8-15.69,15.51-23.48,23.32-5.52,5.53-10.86,11.23-16.36,16.78-4.66,4.7-9.45,9.27-14.13,13.94-2.14,2.14-4.16,4.41-6.43,6.82,2.18,1.79,4.27,3.43,6.25,5.18a8.69,8.69,0,0,1,1.29,2.05l-.56.07c-2.41-1.83-4.83-3.66-7.22-5.51-1.54-1.19-1.36-2.36,0-3.69,5-4.91,9.93-9.89,14.88-14.85q22.39-22.43,44.77-44.84C146.35,362.22,147.14,361.69,147.87,361.09Z"/><path class="cls-1" d="M1.81,276.09a22.48,22.48,0,0,1,1.26,3.27c1.91,8.44,3.75,16.9,5.61,25.35a148.89,148.89,0,0,0,9.67,28.53A301.73,301.73,0,0,0,33,362.18c5,8.6,11,16.59,16.6,24.86a19,19,0,0,1,1.28,2.78c-1.86-2.13-3.9-4.15-5.54-6.44-8.2-11.51-15.84-23.4-21.77-36.26-4-8.63-7.47-17.5-11-26.33-5.48-13.73-8-28.22-10.86-42.63A7.67,7.67,0,0,1,1.81,276.09Z"/><path class="cls-1" d="M341.63,23.45l-.06.82c-8.81-3.46-17.47-7.34-26.44-10.29-8.68-2.86-17.66-4.8-26.53-7.07-3.27-.84-6.59-1.46-9.88-2.18,0-.29,0-.58,0-.87,2.57.34,5.17.54,7.7,1.06a222.27,222.27,0,0,1,33.2,9.31c6.16,2.31,12.28,4.76,18.39,7.21A33.17,33.17,0,0,1,341.63,23.45Z"/><path class="cls-1" d="M255.16,120.45a14,14,0,0,1,3.79-.24c10.11,2.18,20.12,4.72,29.62,8.91,2.94,1.29,5.7,3,8.53,4.49,0,.2,0,.39-.05.6-5.47-2.41-10.79-5.32-16.47-7.09-7.89-2.47-16.06-4.07-24.1-6.06A7.13,7.13,0,0,1,255.16,120.45Z"/><path class="cls-1" d="M124.24,452.15a31,31,0,0,1,3.84,1.31c6.19,3,12.31,6.22,18.54,9.17,3.1,1.46,6.4,2.5,9.58,3.79.4.16.69.61,1,.93a101.89,101.89,0,0,1-10-3.44c-7.33-3.36-14.53-7-21.76-10.58A6.29,6.29,0,0,1,124.24,452.15Z"/><path class="cls-1" d="M179.7,473.71c1.38.18,2.78.27,4.15.53q6.48,1.26,12.92,2.66c.48.11.86.63,1.29,1l-1.06.52-3.62-.66-1.62-.39-1.52-.16-1.1-.37-1-.14-1.1-.38-3.62-.66-1.09-.39-2.57-.64Z"/><path class="cls-1" d="M312.57,196.09c-.2.68-.2,1.54-.63,2q-4.23,4.41-8.65,8.65c-.28.27-1,.09-1.51.12Z"/><path class="cls-1" d="M160.82,468c2.56.68,5.13,1.34,7.68,2q4.73,1.32,9.41,2.72c.32.1.53.58.79.89l-.56.53-1-.14c-1.77-.72-3.51-1.58-5.34-2.12-2.56-.77-5.19-1.3-7.8-1.94l-2.63-1C161.19,468.64,161,468.31,160.82,468Z"/><path class="cls-1" d="M232.61,119.11h14.15c0,.27,0,.54,0,.81H232.59C232.61,119.64,232.61,119.38,232.61,119.11Z"/><path class="cls-1" d="M106.43,441.15,116.88,448Z"/><path class="cls-1" d="M164,470c2.6.63,5.24,1.16,7.8,1.93,1.83.55,3.56,1.41,5.34,2.13Z"/><path class="cls-1" d="M217.33,480.12c1.54,0,3.08-.17,4.61-.07.62.05,1.19.61,1.79.95l-.55.54-5.7-.18C217.44,481,217.39,480.54,217.33,480.12Z"/><path class="cls-1" d="M232.61,119.11c0,.27,0,.54,0,.8l-4.18.12-1.51-.47C228.67,117.64,230.64,118.45,232.61,119.11Z"/><path class="cls-1" d="M246.77,119.91c0-.27,0-.54,0-.81,1.8-.67,3.62-1.48,5.19.46l-1.52.47Z"/><path class="cls-1" d="M199.62,477.92l5.25,1-1.06.51-2.05-.15Z"/><path class="cls-1" d="M307.53,140.34l4.2,1.5C309.55,143.52,308.81,141.18,307.53,140.34Z"/><path class="cls-1" d="M96,433.81l4.17,3.14Z"/><path class="cls-1" d="M208.51,479.45c1.35-.66,2.67-1.16,3.69.52l-1.58.51-2-.16C208.56,480,208.54,479.74,208.51,479.45Z"/><path class="cls-1" d="M199.62,477.92l2.14,1.35-4.76-.9,1.06-.52Z"/><path class="cls-1" d="M119.93,219.08a2.52,2.52,0,0,1,.95-3.74Z"/><path class="cls-1" d="M121,214.36a2.51,2.51,0,0,1,1-3.73C121.61,211.87,121.29,213.11,121,214.36Z"/><path class="cls-1" d="M299.71,135.56c1.83-.89,2.7,0,3.18,1.68C301.83,136.67,300.76,136.11,299.71,135.56Z"/><path class="cls-1" d="M120.55,450.07l3.68,2.06Z"/><path class="cls-1" d="M226.9,119.56l1.51.47-3.75.36Z"/><path class="cls-1" d="M250.44,120l1.52-.47,2.24.82Z"/><path class="cls-1" d="M294.07,214.6c.4,1.77-.3,2.43-2.05,2Z"/><path class="cls-1" d="M213.75,480l2.6.1-1,.89-1.51-.13C213.8,480.58,213.77,480.29,213.75,480Z"/><path class="cls-1" d="M351.54,101.72l2.62-2.61Z"/><path class="cls-1" d="M213.75,480l.07.86-3.2-.39,1.58-.51Z"/><path class="cls-1" d="M100.14,437l3.12,2.1Z"/><path class="cls-1" d="M160.82,468c.18.34.37.66.55,1l-3.14-1.18,1.56-.3,1,.47Z"/><path class="cls-1" d="M93.27,431.78l.56-.07,2.11,2.09Z"/><path class="cls-1" d="M278.7,3.85c0,.29,0,.58,0,.87l-2.08-.45,1-.52Z"/><path class="cls-1" d="M215.33,481c.34-.29.69-.59,1-.89l1,0c.06.42.1.83.16,1.24Z"/><path class="cls-1" d="M297.05,134.21c0-.21,0-.4.05-.6.82.26,2.39-.35,1.81,1.55C298.3,134.84,297.68,134.52,297.05,134.21Z"/><path class="cls-1" d="M205.89,479l1.62.43L207,480l-1-.12C205.93,479.55,205.92,479.26,205.89,479Z"/><path class="cls-1" d="M205.89,479c0,.29,0,.58.06.87l-2.14-.41c.35-.17.7-.35,1.06-.51Z"/><path class="cls-1" d="M304.39,138.22l1.63,1.12Z"/><path class="cls-1" d="M299.76,208.88c-.2.59.44,2-1.18,1.17Z"/><path class="cls-1" d="M178.13,474.17l.56-.53,1,.07.06.89Z"/><path class="cls-1" d="M1.26,272.43c.14.55.28,1.09.41,1.65C1.54,273.53,1.4,273,1.26,272.43Z"/><path class="cls-1" d="M191.76,477.33l1.62.39Z"/><path class="cls-1" d="M207,480c.19-.18.38-.37.56-.56l1,.05c0,.29.05.58.07.87Z"/><path class="cls-1" d="M116.89,448l1.58,1Z"/><path class="cls-1" d="M50.87,389.84l1.07,1.5C51.59,390.84,51.23,390.33,50.87,389.84Z"/><path class="cls-1" d="M104.84,440.12l1.58,1C105.89,440.8,105.37,440.45,104.84,440.12Z"/><path class="cls-1" d="M103.27,439.07l1.56,1Z"/><path class="cls-1" d="M187,476.28l1.1.39Z"/><path class="cls-1" d="M.86,269.26l.27,1.16Z"/><path class="cls-1" d="M189.14,476.81l1.1.36C189.88,477,189.51,476.93,189.14,476.81Z"/><path class="cls-1" d="M119.46,449.51l1.09.56Z"/><path class="cls-1" d="M182.33,475.24l1.09.39Z"/><path class="cls-1" d="M325.79,128.26l.34-.41Z"/><path class="cls-1" d="M324.22,129.76l.41-.34Z"/><path class="cls-1" d="M324.75,129.3c.13-.14.27-.27.41-.41Z"/><path class="cls-1" d="M193.85,5.77c-8.88,2.29-17.83,4.35-26.61,7a148.17,148.17,0,0,0-19.54,7.14c-10.06,4.59-19.84,9.8-29.75,14.73a28.08,28.08,0,0,1-3.14,1.17c3.72-2.31,7.27-5,11.19-6.87,9.32-4.57,18.67-9.15,28.29-13,7.1-2.86,14.61-4.73,22-6.86,5-1.45,10.18-2.57,15.29-3.82a19.1,19.1,0,0,1,2.29-.27C193.86,5.21,193.85,5.49,193.85,5.77Z"/><path class="cls-1" d="M75.55,65.6a6.64,6.64,0,0,1-.93,2A295,295,0,0,0,46.19,99.87c-2.8,3.64-5.16,7.6-7.8,11.38a15.66,15.66,0,0,1-2.16,2.06c3-4.65,5.69-9.49,9-13.9C49.87,93.17,54.72,87,59.93,81.22,64.84,75.75,70.32,70.79,75.55,65.6Z"/><path class="cls-1" d="M36.21,113.32c-1.42,2.84-2.7,5.76-4.28,8.5A202.4,202.4,0,0,0,16.15,155c-1.79,5.08-3.49,10.18-5.29,15.25-.18.49-.83.79-1.26,1.18,1.14-3.76,2-7.65,3.48-11.27,4.07-9.88,8.19-19.75,12.73-29.42,2.67-5.67,6.17-11,9.33-16.41A5.62,5.62,0,0,1,36.21,113.32Z"/><path class="cls-1" d="M6.34,184c-.22,2-.33,4-.67,5.92Q4.43,197.16,3,204.38a9.69,9.69,0,0,1-1.13,2.22Q4.09,195.29,6.34,184Z"/><path class="cls-1" d="M207.49,3.66l-2.12.1-1.54.44-2.13.09V3.73l14.69-2c0,.29,0,.57,0,.85l-2.09.11-3.12.44c-.88,0-1.76.06-2.64.09Z"/><path class="cls-1" d="M110.6,38.41a28,28,0,0,1-3.19,2.79c-2.73,1.76-5.55,3.37-8.34,5,2.44-1.84,4.84-3.73,7.34-5.48A45,45,0,0,1,110.6,38.41Z"/><path class="cls-1" d="M9.49,172.47a7.49,7.49,0,0,1-2,6.34Q8.5,175.63,9.49,172.47Z"/><path class="cls-1" d="M223.18,2.09l-4.7.09-1.06-.52,5.78-.41C223.19,1.53,223.19,1.81,223.18,2.09Z"/><path class="cls-1" d="M223.18,2.09c0-.28,0-.56,0-.84l1.05-.09,3.63.49C226.47,3.48,224.83,2.74,223.18,2.09Z"/><path class="cls-1" d="M200.13,4.73l-1.53.1-1.07.42-2.12.08c0-.18,0-.36,0-.55l4.74-.91C200.14,4.15,200.14,4.44,200.13,4.73Z"/><path class="cls-1" d="M1.7,208.11c.14,1.3,1.44,2.8-.62,3.74C1.29,210.61,1.49,209.36,1.7,208.11Z"/><path class="cls-1" d="M114.79,35.8l-4.18,2.6Z"/><path class="cls-1" d="M99.06,46.25l-3.64,2.62Z"/><path class="cls-1" d="M89.62,53.58l-3.13,2.61Z"/><path class="cls-1" d="M7.39,179.8c.85,1.41.34,2.42-.94,3.2C6.76,181.93,7.08,180.86,7.39,179.8Z"/><path class="cls-1" d="M86.49,56.2,83.9,58.3C84.76,57.61,85.63,56.91,86.49,56.2Z"/><path class="cls-1" d="M82.82,59.35l-2.59,2.1Z"/><path class="cls-1" d="M79.68,62l-2.58,2.1Q78.39,63,79.68,62Z"/><path class="cls-1" d="M217.42,1.67l1.06.52-2.11.42c0-.29,0-.57,0-.85C216.73,1.72,217.08,1.69,217.42,1.67Z"/><path class="cls-1" d="M195.41,4.78c0,.18,0,.36,0,.55l-1.57.44c0-.28,0-.56,0-.85Z"/><path class="cls-1" d="M200.13,4.73c0-.28,0-.57,0-.86l1.55-.13v.55Z"/><path class="cls-1" d="M95.41,48.89l-2.08,1.56Z"/><path class="cls-1" d="M93.31,50.46,91.25,52Z"/><path class="cls-1" d="M302.84,473.23c10.23-3.63,20.54-7.06,30.66-11A126.11,126.11,0,0,0,350,454.3c9.22-5.21,18.48-10.43,27.24-16.36a172,172,0,0,0,20.4-16.31c8.9-8.27,17.4-17,25.69-25.86a130.61,130.61,0,0,0,11.2-14.67c4.45-6.41,8.9-12.85,12.8-19.6,4.21-7.28,7.79-14.92,11.65-22.4a4.71,4.71,0,0,1,.47-.61l.69.15c-2.42,5.19-4.42,10.63-7.33,15.52-6.51,10.93-13.17,21.77-20.34,32.26a151.33,151.33,0,0,1-14.15,17,215.22,215.22,0,0,1-16.57,16.52c-7.35,6.43-15,12.62-22.94,18.29a251.42,251.42,0,0,1-24.59,15.56A198.51,198.51,0,0,1,329.86,465c-9.83,3.8-20,6.78-30,10.11a2.26,2.26,0,0,1-.77,0Z"/><path class="cls-1" d="M463.39,330.62c-.1-.68-.46-1.45-.27-2q3.12-9.66,6.43-19.26c.11-.34.81-.48,1.23-.72-1.7,5.57-3.34,11.16-5.12,16.7A56.27,56.27,0,0,1,463.39,330.62Z"/><path class="cls-1" d="M302.84,473.23l-3.75,1.83-1,.17-1.1.4-1.52.12-1.11.37-1,.16-3.19.89-1.52.16-1.07-.52a29.11,29.11,0,0,1,3.31-1.3q5.22-1.38,10.49-2.6C301.83,472.8,302.36,473.11,302.84,473.23Z"/><path class="cls-1" d="M256.17,481c1.78-1.87,3.79-1,5.78-.5,0,.29-.05.57-.07.86l-4.65.17Z"/><path class="cls-1" d="M268.23,480c1.7-1.61,3.69-1.55,5.77-1,0,.29,0,.58-.05.87l-1,.12-1.63.35-2,.17Z"/><path class="cls-1" d="M275.55,478.92c1.51-1.64,3.38-1.32,5.26-1,0,.28,0,.57-.05.86-.34,0-.67.07-1,.12l-1.11.34-2,.17Z"/><path class="cls-1" d="M281.85,477.87l4.73-1-.06.88-1,.13-1.11.33-2,.2Z"/><path class="cls-1" d="M472.34,303.48c-1.66-1.66-.71-2.57.94-3.27C473,301.3,472.65,302.39,472.34,303.48Z"/><path class="cls-1" d="M474.47,294.52c-1.22-1.16-1.5-2.15.52-2.67C474.82,292.74,474.64,293.63,474.47,294.52Z"/><path class="cls-1" d="M473.39,299.29c-1.36-1.24-1.41-2.2.58-2.71C473.77,297.48,473.58,298.38,473.39,299.29Z"/><path class="cls-1" d="M268.23,480c.34.18.7.34,1,.52l-3.19.4.06-.86Z"/><path class="cls-1" d="M261.88,481.37c0-.29.05-.57.07-.86l2.06-.05,1.08.56Z"/><path class="cls-1" d="M290.18,477.17l3.19-.89Z"/><path class="cls-1" d="M460.12,338.64l-.69-.15,1.38-2C460.58,337.18,460.35,337.92,460.12,338.64Z"/><path class="cls-1" d="M265.09,481l-1.08-.56,2.14-.42-.06.86Z"/><path class="cls-1" d="M275.55,478.92c.36.16.71.34,1.07.51l-2.67.41c0-.3,0-.58.05-.87Z"/><path class="cls-1" d="M460.9,335.77c-.59-1.16-.44-1.93,1-2Z"/><path class="cls-1" d="M471.28,306.66c-1.55-1.16-.74-1.53.58-1.71C471.68,305.52,471.48,306.09,471.28,306.66Z"/><path class="cls-1" d="M286.52,477.75l.06-.88,1-.05c.36.18.72.34,1.06.52Z"/><path class="cls-1" d="M281.85,477.87l.54.53-1.63.4c0-.29,0-.58.06-.86Z"/><path class="cls-1" d="M271.33,480.32,273,480Z"/><path class="cls-1" d="M462.34,332.84l-.56-.72,1.14-.49C462.72,332,462.52,332.45,462.34,332.84Z"/><path class="cls-1" d="M294.37,476.12l1.11-.37Z"/><path class="cls-1" d="M297,475.63l1.1-.4Z"/><path class="cls-1" d="M284.42,478.21l1.11-.33Z"/><path class="cls-1" d="M278.65,479.26l1.11-.34Z"/><path class="cls-1" d="M119.4,263.63c-.33-.71-.66-1.42-1-2.13C118.74,262.21,119.07,262.92,119.4,263.63Z"/><path class="cls-1" d="M241,1.59l-3.63,0Z"/><path class="cls-1" d="M254.07,2.13c-1.15.6-2.31,1.27-3.11-.48Z"/><path class="cls-1" d="M271.37,3.7l-1.53-.48Z"/><path class="cls-1" d="M262.46,2.64l-1.56-.45Z"/><path class="cls-1" d="M274.51,4.22l-1-.47Z"/><path class="cls-1" d="M246.24,481.14l6.81-.07Z"/><path class="cls-1" d="M226.85,481.07l6.8.07Z"/><path class="cls-1" d="M160.8,468l-1-.48Z"/><path class="cls-1" d="M211.17,3.15l3.11-.44C213.46,4.42,212.32,3.85,211.17,3.15Z"/><path class="cls-1" d="M203.83,4.19l1.54-.44C204.86,3.91,204.34,4.05,203.83,4.19Z"/><path class="cls-1" d="M207.49,3.66l1-.42Z"/><path class="cls-1" d="M197.54,5.25l1.07-.42Z"/></g></svg>