<?xml version="1.0" encoding="utf-8"?>
<!-- Generator: Adobe Illustrator 23.0.3, SVG Export Plug-In . SVG Version: 6.00 Build 0)  -->
<svg version="1.1" xmlns="http://www.w3.org/2000/svg" xmlns:xlink="http://www.w3.org/1999/xlink" x="0px" y="0px"
	 viewBox="0 0 500 500" style="enable-background:new 0 0 500 500;" xml:space="preserve">
<style type="text/css">
	.st0{display:none;}
	.st1{display:inline;fill:none;stroke:#39FFD0;stroke-width:0.75;stroke-miterlimit:10;}
	.st2{display:inline;}
	.st3{fill:#DB7D0B;}
	.st4{fill:#881AE8;}
	.st5{fill:#3A0FBC;}
	.st6{fill:#FFBD17;}
</style>
<g id="Lines" class="st0">
	<line class="st1" x1="250" y1="201" x2="250" y2="459.1"/>
	<polygon class="st1" points="250,201 442.54,120.48 250,39.96 57.46,120.48 	"/>
	<line class="st1" x1="102.71" y1="101.56" x2="295.24" y2="182.08"/>
	<line class="st1" x1="243.84" y1="160.58" x2="391.13" y2="98.98"/>
	<line class="st1" x1="228.62" y1="154.22" x2="375.91" y2="92.62"/>
	<line class="st1" x1="172.62" y1="130.8" x2="319.92" y2="69.2"/>
	<line class="st1" x1="157.41" y1="124.43" x2="304.7" y2="62.83"/>
	<line class="st1" x1="57.46" y1="311.55" x2="84.65" y2="300.18"/>
	<line class="st1" x1="102.32" y1="234" x2="129.5" y2="222.63"/>
	<line class="st1" x1="397.68" y1="234" x2="370.5" y2="222.63"/>
	<line class="st1" x1="397.68" y1="397.34" x2="295.24" y2="354.5"/>
	<line class="st1" x1="57.46" y1="215.24" x2="84.65" y2="203.87"/>
	<polyline class="st1" points="57.46,378.58 250,459.1 442.54,378.58 	"/>
	<line class="st1" x1="250" y1="369.33" x2="442.54" y2="288.81"/>
	<polyline class="st1" points="57.46,215.24 250,295.76 442.54,215.24 	"/>
	<polyline class="st1" points="57.46,192.5 250,273.02 442.54,192.5 	"/>
	<line class="st1" x1="57.46" y1="311.55" x2="250" y2="392.07"/>
	<line class="st1" x1="57.46" y1="288.81" x2="250" y2="369.33"/>
	<line class="st1" x1="442.54" y1="120.48" x2="442.54" y2="378.58"/>
	<line class="st1" x1="57.46" y1="120.48" x2="57.46" y2="378.58"/>
	<line class="st1" x1="295.24" y1="440.18" x2="295.24" y2="182.08"/>
	<line class="st1" x1="204.76" y1="440.18" x2="204.76" y2="182.08"/>
	<line class="st1" x1="397.68" y1="397.34" x2="397.68" y2="139.24"/>
	<line class="st1" x1="102.32" y1="397.34" x2="102.32" y2="139.24"/>
	<line class="st1" x1="375.91" y1="92.62" x2="375.91" y2="105.34"/>
	<line class="st1" x1="304.7" y1="62.83" x2="304.7" y2="75.56"/>
	<line class="st1" x1="346.46" y1="255.42" x2="346.46" y2="375.92"/>
</g>
<g id="Color" class="st0">
	<g id="XMLID_1_" class="st2">
		<g>
			<polygon class="st3" points="442.54,288.81 442.54,378.58 397.68,397.34 397.68,307.57 			"/>
			<polygon class="st3" points="442.54,215.24 442.54,288.81 397.68,307.57 397.68,234 			"/>
			<polygon class="st3" points="442.54,192.5 442.54,215.24 397.68,234 397.68,211.26 			"/>
			<polygon class="st3" points="442.54,120.48 442.54,192.5 397.68,211.26 397.68,139.24 			"/>
			<polygon class="st4" points="442.54,120.48 397.68,139.24 295.24,182.08 243.84,160.58 375.91,105.34 391.13,98.98 			"/>
			<polygon class="st5" points="397.68,307.57 397.68,397.34 346.46,375.92 346.46,328.99 			"/>
			<polygon class="st3" points="397.68,234 397.68,307.57 346.46,328.99 346.46,255.42 			"/>
			<polygon class="st5" points="397.68,211.26 397.68,234 370.5,222.63 			"/>
			<polygon class="st3" points="397.68,139.24 397.68,211.26 370.5,222.63 295.24,254.1 295.24,182.08 			"/>
			<polygon class="st4" points="397.68,234 346.46,255.42 295.24,276.84 295.24,254.1 370.5,222.63 			"/>
			<polygon class="st3" points="375.91,105.34 243.84,160.58 228.62,154.22 375.91,92.62 			"/>
			<polygon class="st4" points="319.92,69.2 375.91,92.62 228.62,154.22 172.62,130.8 304.7,75.56 			"/>
			<polygon class="st3" points="346.46,255.42 346.46,328.99 295.24,350.41 295.24,276.84 			"/>
			<polygon class="st3" points="304.7,62.84 304.7,75.56 172.62,130.8 157.41,124.43 304.69,62.83 304.7,62.83 			"/>
			<polygon class="st4" points="304.69,62.83 157.41,124.43 102.71,101.56 250,39.96 			"/>
			<polygon class="st3" points="295.24,354.5 295.24,440.18 250,459.1 250,392.07 250,369.33 295.24,350.41 			"/>
			<polygon class="st3" points="295.24,276.84 295.24,350.41 250,369.33 250,295.76 			"/>
			<polygon class="st3" points="295.24,254.1 295.24,276.84 250,295.76 250,273.02 			"/>
			<polygon class="st3" points="295.24,182.08 295.24,254.1 250,273.02 250,201 			"/>
			<polygon class="st4" points="295.24,182.08 250,201 204.76,182.08 102.32,139.24 57.46,120.48 102.71,101.56 157.41,124.43 
				172.62,130.8 228.62,154.22 243.84,160.58 			"/>
			<polygon class="st6" points="250,392.07 250,459.1 204.76,440.18 204.76,373.15 			"/>
			<polygon class="st6" points="250,369.33 250,392.07 204.76,373.15 204.76,350.41 			"/>
			<polygon class="st6" points="250,295.76 250,369.33 204.76,350.41 204.76,276.84 			"/>
			<polygon class="st4" points="250,273.02 250,295.76 204.76,276.84 204.76,254.1 			"/>
			<polygon class="st6" points="250,201 250,273.02 204.76,254.1 204.76,182.08 			"/>
			<polygon class="st6" points="204.76,373.15 204.76,440.18 102.32,397.34 102.32,330.31 			"/>
			<polygon class="st4" points="204.76,350.41 204.76,373.15 102.32,330.31 102.32,307.57 			"/>
			<polygon class="st6" points="204.76,276.84 204.76,350.41 102.32,307.57 102.32,234 			"/>
			<polygon class="st4" points="204.76,254.1 204.76,276.84 102.32,234 129.5,222.63 			"/>
			<polygon class="st6" points="204.76,182.08 204.76,254.1 129.5,222.63 102.32,211.26 102.32,139.24 			"/>
			<polygon class="st5" points="102.32,211.26 129.5,222.63 102.32,234 			"/>
			<polygon class="st6" points="102.32,330.31 102.32,397.34 57.46,378.58 57.46,311.55 			"/>
			<polygon class="st4" points="102.32,307.57 102.32,330.31 57.46,311.55 84.65,300.18 			"/>
			<polygon class="st6" points="102.32,234 102.32,307.57 84.65,300.18 57.46,288.81 57.46,215.24 			"/>
			<polygon class="st6" points="102.32,211.26 102.32,234 57.46,215.24 57.46,192.5 			"/>
			<polygon class="st6" points="102.32,139.24 102.32,211.26 57.46,192.5 57.46,120.48 			"/>
		</g>
		<g>
		</g>
	</g>
</g>
<g id="Calque_3">
	<g id="XMLID_3_">
		<g>
			<path d="M250,39.96l54.69,22.87h0.01v12.73l15.22-6.36l55.99,23.42v12.72l15.22-6.36l51.41,21.5v258.1l-44.86,18.76l-51.22-21.42
				v-46.93l-51.22,21.42v89.77L250,459.1l-45.24-18.92l-102.44-42.84l-44.86-18.76v-67.03l27.19-11.37l-27.19-11.37V120.48
				l45.25-18.92L250,39.96 M250,27.96c-1.57,0-3.15,0.31-4.63,0.93L98.08,90.49l-45.25,18.92c-4.46,1.87-7.37,6.23-7.37,11.07
				v168.33c0,4.84,2.91,9.2,7.37,11.07l0.72,0.3l-0.72,0.3c-4.46,1.87-7.37,6.23-7.37,11.07v67.03c0,4.84,2.91,9.2,7.37,11.07
				l44.86,18.76l102.44,42.84l45.24,18.92c1.48,0.62,3.06,0.93,4.63,0.93s3.15-0.31,4.63-0.93l45.24-18.92
				c4.46-1.87,7.37-6.23,7.37-11.07V358.4l27.22-11.38v28.9c0,4.84,2.91,9.2,7.37,11.07l51.22,21.42c1.48,0.62,3.06,0.93,4.63,0.93
				s3.15-0.31,4.63-0.93l44.86-18.76c4.46-1.87,7.37-6.23,7.37-11.07v-258.1c0-4.84-2.91-9.2-7.37-11.07l-51.41-21.5
				c-1.48-0.62-3.06-0.93-4.63-0.93c-1.44,0-2.88,0.26-4.25,0.78c-1.22-2.75-3.45-5-6.34-6.21l-55.99-23.42
				c-1.48-0.62-3.06-0.93-4.63-0.93c-1.44,0-2.88,0.26-4.24,0.78c-1.3-2.92-3.72-5.23-6.73-6.37l-54.32-22.71
				C253.15,28.27,251.57,27.96,250,27.96L250,27.96z"/>
		</g>
	</g>
	<g id="XMLID_2_">
		<polygon class="st5" points="397.68,307.57 397.68,397.34 346.46,375.92 346.46,328.99 		"/>
		<polygon class="st5" points="397.68,211.26 397.68,234 370.5,222.63 		"/>
		<polygon class="st4" points="397.68,234 346.46,255.42 295.24,276.84 295.24,254.1 370.5,222.63 		"/>
		<polygon class="st3" points="375.91,92.62 375.91,105.34 243.84,160.58 228.62,154.22 		"/>
		<polygon class="st3" points="304.7,62.83 304.7,75.56 172.62,130.8 157.41,124.43 304.69,62.83 		"/>
		<polygon class="st4" points="442.54,120.48 397.68,139.24 295.24,182.08 250,201 204.76,182.08 102.32,139.24 57.46,120.48 
			102.71,101.56 250,39.96 304.69,62.83 157.41,124.43 172.62,130.8 304.7,75.56 319.92,69.2 375.91,92.62 228.62,154.22 
			243.84,160.58 375.91,105.34 391.13,98.98 		"/>
		<path class="st3" d="M397.68,139.24l-102.44,42.84L250,201v258.1l45.24-18.92v-89.77l51.22-21.42l51.22-21.42v89.77l44.86-18.76
			v-258.1L397.68,139.24z M346.46,255.42l-51.22,21.42V254.1l75.26-31.47l27.18-11.37V234L346.46,255.42z"/>
		<polygon class="st6" points="102.32,211.26 102.32,234 204.76,276.84 250,295.76 250,459.1 204.76,440.18 102.32,397.34 
			57.46,378.58 57.46,311.55 102.32,330.31 204.76,373.15 204.76,350.41 102.32,307.57 84.65,300.18 57.46,288.81 57.46,120.48 
			102.32,139.24 204.76,182.08 250,201 250,273.02 204.76,254.1 129.5,222.63 		"/>
		<polygon class="st4" points="250,273.02 250,295.76 204.76,276.84 102.32,234 129.5,222.63 204.76,254.1 		"/>
		<polygon class="st5" points="129.5,222.63 102.32,234 102.32,211.26 		"/>
		<polygon class="st4" points="204.76,350.41 204.76,373.15 102.32,330.31 57.46,311.55 84.65,300.18 102.32,307.57 		"/>
	</g>
</g>
</svg>
