<?xml version="1.0" encoding="utf-8"?>
<!-- Generator: Adobe Illustrator 25.2.1, SVG Export Plug-In . SVG Version: 6.00 Build 0)  -->
<svg version="1.1" id="Layer_1" xmlns="http://www.w3.org/2000/svg" xmlns:xlink="http://www.w3.org/1999/xlink" x="0px" y="0px"
	 viewBox="0 0 691.76 696.24" style="enable-background:new 0 0 691.76 696.24;" xml:space="preserve">
<style type="text/css">
	.st0{fill:#89D2FD;}
	.st1{fill:#AFE597;}
	.st2{fill:#FD7D7D;}
	.st3{fill:#FCA4A4;}
	.st4{fill:#FE5758;}
	.st5{fill:#37B5FE;}
	.st6{fill:#7FD758;}
	.st7{fill:#7BCDFD;}
	.st8{fill:#8EDB6B;}
</style>
<g>
	<path class="st0" d="M1.91,314.29c0.3,0.01,0.59,0.02,0.89,0.04c0.34,1.64,0.67,3.28,1.08,5.24c1.34,0,2.56,0,3.78,0
		c53.28,0,106.57,0.02,159.85-0.07c1.98,0,3.96-1.02,5.94-1.57c-0.71,1.04-1.21,2.57-2.19,2.99c-1.53,0.66-3.38,0.76-5.1,0.76
		c-52.79,0.03-105.57,0.04-158.36,0c-1.96,0-3.93-0.42-5.89-0.64C1.91,318.79,1.91,316.54,1.91,314.29z"/>
	<path class="st1" d="M1.91,375.79c1.58-0.23,3.16-0.67,4.75-0.67c53.74-0.04,107.48,0,161.22-0.08c3.71-0.01,5.2,0.81,6.06,4.97
		c1.85,8.95,4.92,17.64,7.44,26.45c0.5,1.76,0.78,3.59,1.16,5.39c-0.81-1-1.87-1.9-2.37-3.04c-0.94-2.14-1.71-4.37-2.26-6.64
		c-1.76-7.27-3.39-14.57-5.07-21.86c-0.47-1.02-0.94-2.04-1.4-3.06c-1.55-0.24-3.1-0.69-4.66-0.69
		c-52.46-0.04-104.93-0.03-157.39-0.03c-5.85,0-5.84,0-6.16,5.37c-0.01,0.2-0.27,0.39-0.42,0.59c-0.3,0.01-0.6,0.03-0.9,0.04
		C1.91,380.29,1.91,378.04,1.91,375.79z"/>
	<path class="st2" d="M688.9,372.78c-1.79,14.22-3.57,28.45-5.41,42.67c-0.14,1.06-0.76,2.06-1.16,3.09
		c-0.17-1.73-0.69-3.51-0.45-5.19c0.69-4.87,1.89-9.67,2.51-14.54c0.99-7.73,1.92-15.48,2.43-23.26c0.67-10.15,1.07-20.33,1.25-30.5
		c0.11-6.45-0.45-12.91-0.59-19.36c-0.02-0.81,0.69-1.63,1.07-2.45c0.12,0.78,0.24,1.55,0.36,2.33c0.25,4.75,0.51,9.49,0.76,14.24
		c0,5.75,0,11.5,0,17.25C689.41,362.29,689.16,367.53,688.9,372.78z"/>
	<path class="st0" d="M322.93,4.58c4.86-0.26,9.72-0.48,14.57-0.8c1.65-0.11,3.27-0.48,4.91-0.73c1.75,0,3.5,0,5.25,0
		c1.4,0.25,2.8,0.62,4.21,0.74c15.3,1.3,30.6,2.55,45.89,3.84c0.57,0.05,1.1,0.43,1.65,0.66c-0.49,0.25-0.99,0.5-1.48,0.75
		c-1.02-0.02-2.04-0.05-3.05-0.07c-0.48-0.23-0.97-0.45-1.45-0.68c-1.02-0.02-2.03-0.05-3.05-0.07c-0.73-0.23-1.46-0.46-2.18-0.69
		c-3.52-0.28-7.05-0.56-10.57-0.83c-0.74-0.21-1.49-0.43-2.23-0.64c-3.26-0.03-6.51-0.06-9.77-0.09c-1.48-0.23-2.97-0.45-4.45-0.68
		c-4.77-0.03-9.54-0.06-14.31-0.09c-1.73,0.01-3.46,0.02-5.19,0.03c-4.52,0.02-9.03,0.04-13.55,0.06
		C326.4,5.05,324.67,4.81,322.93,4.58z"/>
	<path class="st3" d="M370.15,692.26c0,0.26,0.01,0.52,0.01,0.78c-7.75,0-15.5,0-23.25,0c0.04-0.44,0.07-0.88,0.11-1.32
		c2.47-0.01,4.93-0.01,7.4-0.02c3.25-0.04,6.5-0.08,9.74-0.11c1.49-0.03,2.98-0.05,4.47-0.08
		C369.14,691.76,369.65,692.01,370.15,692.26z"/>
	<path class="st3" d="M321.41,693.04c0-0.26,0.01-0.52,0.01-0.78c0.26-0.26,0.52-0.52,0.78-0.77c1.49,0.03,2.98,0.07,4.47,0.1
		c3.25,0.04,6.5,0.08,9.74,0.11c2.47,0.01,4.93,0.02,7.4,0.03c0.04,0.44,0.07,0.87,0.11,1.31
		C336.41,693.04,328.91,693.04,321.41,693.04z"/>
	<path class="st3" d="M688.9,372.78c0.25-5.25,0.51-10.49,0.76-15.74c0,5.25,0,10.5,0,15.75
		C689.41,372.79,689.16,372.78,688.9,372.78z"/>
	<path class="st3" d="M689.66,339.79c-0.25-4.75-0.51-9.49-0.76-14.24c0.25,0,0.51-0.01,0.76-0.01
		C689.66,330.29,689.66,335.04,689.66,339.79z"/>
	<path class="st2" d="M343.91,693.04c-0.04-0.44-0.07-0.87-0.11-1.31c1.07,0,2.14-0.01,3.21-0.01c-0.04,0.44-0.07,0.88-0.11,1.32
		C345.91,693.04,344.91,693.04,343.91,693.04z"/>
	<path class="st4" d="M347.02,691.72c-1.07,0-2.14,0-3.21,0.01c-2.47-0.01-4.93-0.02-7.4-0.03c-3.25-0.04-6.5-0.07-9.74-0.11
		c-1.49-0.03-2.98-0.07-4.47-0.1c-0.85-0.47-1.68-1.28-2.56-1.35c-2.19-0.15-4.4,0.04-6.6,0.09c-0.47-0.01-0.93-0.01-1.4-0.02
		c-1.24-0.05-2.48-0.1-3.72-0.15c-0.74-0.02-1.48-0.03-2.22-0.05c-1.46-2.4-3.35-1.69-5.28-0.74c-0.48-0.03-0.96-0.05-1.44-0.08
		c-0.77-0.2-1.54-0.41-2.31-0.61c-0.49-0.03-0.98-0.05-1.47-0.08c-2.51-0.47-5.02-0.95-7.52-1.42c-0.74-0.03-1.48-0.06-2.22-0.09
		c-0.61-0.47-1.16-1.23-1.85-1.37c-6.15-1.34-12.32-2.6-18.5-3.81c-1.96-0.38-3.96-0.52-5.94-0.76c-0.48-0.04-0.96-0.07-1.44-0.11
		c-0.37-0.44-0.67-1.13-1.13-1.27c-4.47-1.35-8.96-2.64-13.47-3.89c-3.66-1.02-7.33-1.96-11-2.94l-0.02-0.01
		c-0.48-0.23-0.97-0.45-1.45-0.68c-0.74,0.14-1.49,0.29-2.23,0.43c-0.48-0.21-0.96-0.43-1.44-0.64c-0.48-0.45-0.89-1.09-1.46-1.33
		c-4.56-1.84-9.28-3.33-13.71-5.43c-8.92-4.22-17.68-8.79-26.55-13.12c-1.73-0.84-3.65-1.27-5.49-1.88c0,0-0.02-0.02-0.02-0.02
		c-1.75-0.98-3.51-1.97-5.26-2.95c0,0-0.01-0.01-0.01-0.01c-0.52-0.27-1.04-0.53-1.56-0.8c-0.47-0.25-0.95-0.49-1.42-0.74
		c-0.75-0.48-1.51-0.97-2.26-1.45c0,0-0.01-0.01-0.01-0.01c-4.99-3.25-9.98-6.51-14.96-9.76c0,0-0.02-0.02-0.02-0.02
		c-0.75-0.49-1.51-0.97-2.26-1.46c0,0-0.01-0.01-0.01-0.01c-0.75-0.5-1.49-0.99-2.24-1.49c0,0-0.01-0.01-0.01-0.01
		c-1.49-1-2.98-2-4.47-3.01c0,0-0.01-0.02-0.01-0.02c-1.99-1.5-3.98-3-5.97-4.5c0,0-0.02-0.02-0.02-0.02
		c-1.01-1-2.01-1.99-3.02-2.99c-0.61-0.99-1.02-2.2-1.85-2.94c-2.84-2.51-5.83-4.86-8.95-7.42c3.25-3.45,6.14-6.7,9.21-9.76
		c6.7-6.7,13.56-13.24,20.23-19.96c7.87-7.94,15.53-16.1,23.42-24.02c11.15-11.18,22.45-22.21,33.61-33.38
		c0.88-0.88,1.13-2.38,1.67-3.59c3.17-3.46,6.23-7.05,9.54-10.37c39.69-39.72,79.42-79.4,119.13-119.11
		c25.59-25.59,51.16-51.21,76.74-76.81c0.25-0.25,0.63-0.38,0.95-0.56c2.51,0.6,3.5-0.35,2.93-2.89c2.15-2.17,4.3-4.33,6.46-6.5
		c2.33,1.22,1.4-0.84,1.7-1.68c0.97-0.96,1.93-1.93,2.9-2.89c0.73-0.05,1.76,0.21,2.16-0.18c4.2-4.05,8.34-8.16,12.38-12.38
		c0.62-0.65,0.62-1.89,0.9-2.86c0.4-0.39,0.79-0.78,1.19-1.17c1.5-0.82,3.29-1.34,4.45-2.5c49.54-49.45,99.03-98.95,148.53-148.45
		c3.19-3.19,4-3.22,6.35,0.05c8.68,12.08,17.75,23.9,25.82,36.37c7.01,10.82,13.13,22.24,19.15,33.65
		c3.38,6.41,5.88,13.29,8.52,20.06c3.16,8.11,6.33,16.24,8.98,24.53c2.48,7.78,4.37,15.75,6.37,23.68c1.51,5.97,3.2,11.93,4.1,18
		c1.58,10.67,2.58,21.42,3.93,32.13c0.09,0.7,1.13,1.27,1.72,1.91c0.02,0.44,0.04,0.89,0.07,1.33c-0.37,0.82-1.09,1.64-1.07,2.45
		c0.14,6.46,0.7,12.91,0.59,19.36c-0.17,10.17-0.58,20.35-1.25,30.5c-0.51,7.77-1.44,15.53-2.43,23.26
		c-0.62,4.88-1.82,9.68-2.51,14.54c-0.24,1.67,0.28,3.45,0.45,5.19c-0.14,0.73-0.29,1.45-0.44,2.18c-2.9,0.75-2.49,2.15-0.75,3.82
		c-0.24,0.98-0.48,1.96-0.72,2.94c-2.86,0.74-2.78,2.11-0.84,3.88c-0.05,0.44-0.1,0.88-0.15,1.32c-2.37,1.01-3.72,2.31-1.35,4.68
		c-0.23,0.7-0.45,1.41-0.68,2.11c-1.9,0.26-3.05,0.79-0.83,2.45c-0.24,0.93-0.48,1.86-0.72,2.79c-0.61,0.34-1.6,0.54-1.77,1.03
		c-3.14,9.16-6.22,18.35-9.2,27.57c-0.27,0.84,0.24,1.93,0.39,2.91c-0.23,0.49-0.46,0.97-0.69,1.46c-0.54,0.23-1.08,0.46-1.63,0.7
		c0.27,0.35,0.53,0.69,0.8,1.04c-0.19,0.44-0.38,0.88-0.56,1.32c-2.12,0.1-2.34,1.2-1.5,2.86c-0.04,0.32-0.07,0.65-0.11,0.97
		c-0.66,0.97-1.32,1.95-1.98,2.92c-0.23,0.29-0.51,0.55-0.67,0.87c-5.53,10.71-10.65,21.65-16.68,32.07
		c-5.59,9.66-11.95,18.88-18.33,28.06c-5.03,7.23-10.04,14.6-16.03,21c-11.87,12.71-24.04,25.19-36.78,37.02
		c-9.12,8.47-18.91,16.38-29.2,23.35c-12.54,8.49-25.79,15.96-38.99,23.42c-7.59,4.29-15.47,8.22-23.59,11.37
		c-14.49,5.62-29.25,10.52-43.9,15.73c-0.69-0.17-1.45-0.61-2.07-0.47c-5.02,1.17-10.03,2.4-15.02,3.73
		c-1.63,0.43-3.15,1.23-4.73,1.87c-0.49,0.02-0.98,0.05-1.47,0.07c-2.26,0.48-4.52,0.96-6.77,1.44c-0.49,0.03-0.98,0.07-1.47,0.1
		c-2.69-0.48-5.37-0.93-7.53,1.4c-0.74,0.03-1.48,0.05-2.22,0.08c-2.97-0.78-5.83-0.88-8.27,1.43c-0.99,0.03-1.98,0.05-2.97,0.08
		c-1.02,0.2-2.05,0.41-3.07,0.61c-0.98,0.02-1.96,0.05-2.94,0.07c-2.85-0.74-5.73-1.96-8.28,0.72c-1.49,0.03-2.98,0.05-4.47,0.08
		c-3.25,0.04-6.5,0.08-9.74,0.11C351.95,691.71,349.49,691.72,347.02,691.72z"/>
	<path class="st5" d="M328.14,5.28c4.52-0.02,9.03-0.04,13.55-0.06c1.73-0.01,3.46-0.02,5.19-0.03c4.77,0.03,9.54,0.06,14.31,0.09
		c1.14,2.5,2.8,1.55,4.45,0.68c3.26,0.03,6.51,0.06,9.77,0.09c0.74,0.21,1.49,0.43,2.23,0.64c3.52,0.28,7.05,0.56,10.57,0.83
		c0.73,0.23,1.46,0.46,2.19,0.69c1.02,0.02,2.03,0.05,3.05,0.07c0.48,0.23,0.97,0.45,1.45,0.68c1.02,0.02,2.04,0.05,3.05,0.07
		c0.99,0.21,1.98,0.43,2.97,0.64c4.72,1.04,9.47,1.94,14.15,3.13c12.69,3.25,25.55,6.03,37.98,10.12
		c12.84,4.22,25.24,9.77,37.84,14.73c2.12,1.2,4.25,2.37,6.35,3.6c10.46,6.12,20.82,12.42,31.4,18.33
		c12.54,7.01,23.44,16.23,34.77,24.9c2.49,1.9,1.77,3.07,0.05,4.67c-3.55,3.32-7.16,6.57-10.58,10.01
		c-7.21,7.25-14.28,14.63-21.46,21.92c-7.33,7.45-14.73,14.85-22.06,22.3c-0.3,0.31-0.3,0.92-0.44,1.39l0,0
		c-1.25,1.25-2.5,2.5-3.75,3.75c-9.8,10.05-19.59,20.1-29.38,30.15c-2.34,2.4-4.66,4.83-6.99,7.24c-0.16,0.19-0.33,0.39-0.49,0.58
		c-0.3,0.31-0.61,0.61-0.91,0.92c-0.19,0.19-0.38,0.38-0.58,0.58c0,0-0.18,0.17-0.17,0.17c-0.19,0.17-0.39,0.33-0.58,0.5
		c-5.96,5.76-11.92,11.52-17.89,17.28c-2-0.71-4.01-1.43-6.01-2.14c-0.72-0.48-1.44-0.96-2.15-1.44c-0.78-0.54-1.56-1.07-2.34-1.61
		c-0.72-0.47-1.44-0.93-2.15-1.4c-0.68-2.37-1.93-3.68-4.55-2.41c-0.38-0.19-0.75-0.38-1.13-0.57c0.83-2.71-1.42-1.84-2.59-2.23
		c-4.06-2.16-8.01-4.57-12.21-6.42c-13.6-6-27.94-9.64-42.41-12.76c-1.7-0.37-3.61,0.21-5.42,0.35c-0.46-0.03-0.92-0.07-1.38-0.1
		c-1.07-0.39-2.14-0.79-3.21-1.18c-2.25-2.77-4.85-1.62-7.43-0.65c-6.75,0-13.5,0-20.25,0c-2.82-0.94-5.65-2.11-8.18,0.65
		c-1.07,0.4-2.14,0.79-3.21,1.19c-0.46,0.04-0.92,0.09-1.38,0.13c-1.07-0.19-2.23-0.76-3.2-0.52c-12.09,3.01-24.58,5.04-36.13,9.49
		c-17.03,6.57-33.1,15.3-47.42,27c-13.89,11.35-25.99,24.31-36.03,39.07c-10.4,15.29-17.62,32.2-23.03,49.86
		c-0.25,0.81,0.18,1.83,0.29,2.75c-0.05,0.47-0.11,0.93-0.16,1.4c-2.15,1.35-2.54,3.15-1.37,5.35c-0.04,0.47-0.09,0.93-0.13,1.4
		c-2.16,1.35-2.53,3.15-1.36,5.35c-0.05,0.47-0.1,0.93-0.15,1.4c-1.98,0.55-3.96,1.56-5.94,1.57
		c-53.28,0.09-106.57,0.07-159.85,0.07c-1.22,0-2.45,0-3.78,0c-0.4-1.96-0.74-3.6-1.08-5.24c0.22-2.71,0.44-5.42,0.66-8.14
		c2.95-1.35,1.09-3.49,0.89-5.36c0.08-0.72,0.16-1.44,0.23-2.16c0.56-1.06,1.4-2.06,1.62-3.18c1.37-6.89,2.65-13.8,3.83-20.72
		c0.48-2.79,0.64-5.64,0.95-8.47c0.06-0.47,0.11-0.95,0.17-1.42c1.84-1.12,2.57-2.56,1.34-4.58c0.05-0.47,0.11-0.95,0.16-1.42
		c2.3-2.6,3.37-5.59,2.85-9.08c0.05-0.47,0.1-0.94,0.16-1.42c0.62-0.56,1.56-1,1.8-1.69c2.59-7.25,5-14.57,7.58-21.83
		c5.89-16.63,13.8-32.3,22.59-47.57c2.26-3.93,4.09-8.1,6.12-12.16c0,0,0.03-0.03,0.03-0.03c1.05-0.97,2.3-1.8,3.1-2.95
		c3.77-5.39,7.15-11.08,11.16-16.29c12.53-16.29,25.93-31.82,40.7-46.15c0.71-0.69,0.91-1.92,1.34-2.91
		c0.74-0.73,1.48-1.46,2.21-2.18c1.23-1,2.46-2,3.69-3.01c0.27-0.25,0.53-0.5,0.8-0.75c1.23-1,2.47-2,3.7-3.01
		c0.52-0.5,1.03-1,1.55-1.5c1.23-1,2.47-2.01,3.7-3.01c0,0,0.01-0.01,0.01-0.01c1.49-1.25,2.99-2.49,4.48-3.74
		c0.77-0.74,1.55-1.48,2.32-2.22c0.98-0.75,1.97-1.49,2.95-2.24c0,0,0.02-0.02,0.02-0.02c0.99-0.74,1.99-1.48,2.98-2.22
		c0,0,0.02-0.03,0.02-0.03c1.74-1.25,3.47-2.5,5.21-3.75c0,0,0.01-0.02,0.01-0.02c3.99-2.39,8.03-4.69,11.93-7.22
		c1.68-1.09,3.06-2.65,4.57-3.99c0,0,0.02-0.02,0.02-0.02c1.99-1.24,3.99-2.48,5.98-3.72c0,0,0.02-0.02,0.02-0.02
		c1.5-0.55,3.07-0.97,4.49-1.68c14.19-7.05,28.19-14.51,42.59-21.09c9-4.12,18.47-7.39,27.97-10.22
		c12.57-3.74,25.38-6.68,38.09-9.97c0.75-0.21,1.5-0.42,2.25-0.63c1.01-0.04,2.02-0.08,3.04-0.12c0.51-0.2,1.02-0.4,1.53-0.6
		c0.73-0.05,1.46-0.1,2.19-0.15c0.75-0.21,1.5-0.42,2.25-0.64c1.01-0.04,2.03-0.08,3.04-0.12c0.74-0.21,1.48-0.42,2.21-0.63
		c1.01-0.05,2.02-0.09,3.04-0.14c0.49-0.2,0.98-0.41,1.47-0.61c1.26-0.04,2.52-0.09,3.78-0.13c1.66,1,3.29,1.82,4.46-0.63
		c1-0.05,2-0.1,3-0.15c1-0.2,2.01-0.4,3.01-0.6c2.25-0.04,4.49-0.09,6.74-0.13C323.76,6.84,326.12,7.9,328.14,5.28z"/>
	<path class="st6" d="M2.81,382.51c0.15-0.2,0.41-0.39,0.42-0.59c0.32-5.37,0.32-5.37,6.16-5.37c52.46,0,104.93-0.01,157.39,0.03
		c1.55,0,3.1,0.45,4.66,0.69c0.47,1.02,0.94,2.04,1.4,3.06c1.68,7.29,3.31,14.59,5.07,21.86c0.55,2.27,1.33,4.5,2.26,6.64
		c0.5,1.14,1.56,2.03,2.37,3.04c0.3,1.21,0.61,2.43,0.91,3.64c0.51,1.63,0.75,3.41,1.56,4.88c4.84,8.77,9.63,17.58,14.83,26.14
		c1.88,3.1,1.58,4.84-0.92,7.32c-20.46,20.28-40.78,40.7-61.15,61.06c-17.19,17.18-34.39,34.35-51.59,51.52
		c-1.02,1.02-2.12,1.97-3.04,2.83c-2.02-1.69-3.71-3.1-5.39-4.51c-0.49-0.53-0.98-1.07-1.47-1.6c-0.51-0.72-1.02-1.43-1.53-2.15
		c0,0-0.02-0.02-0.02-0.02c-0.6-1.33-1.02-2.78-1.83-3.98c-7.95-11.85-16.62-23.28-23.77-35.59c-7.76-13.36-14.66-27.31-20.95-41.43
		c-5.85-13.13-10.73-26.72-13.84-40.84c-2.67-12.1-5.3-24.21-8.03-36.3c-0.36-1.61-1.19-3.12-1.81-4.67
		c-0.06-0.96-0.13-1.92-0.19-2.89c-0.19-0.79-0.39-1.57-0.58-2.36c-0.06-0.96-0.12-1.92-0.19-2.89c-0.13-0.55-0.26-1.1-0.39-1.65
		C3.03,386.42,2.92,384.46,2.81,382.51z"/>
	<path class="st2" d="M688.48,321.9c-0.6-0.63-1.63-1.21-1.72-1.91c-1.35-10.7-2.36-21.46-3.93-32.13c-0.9-6.07-2.58-12.04-4.1-18
		c-2.01-7.92-3.89-15.9-6.37-23.68c-2.65-8.29-5.82-16.42-8.98-24.53c-2.64-6.77-5.14-13.66-8.52-20.06
		c-6.02-11.42-12.14-22.84-19.15-33.65c-8.08-12.47-17.15-24.29-25.82-36.37c-2.35-3.27-3.16-3.24-6.35-0.05
		c-49.5,49.5-98.98,99-148.53,148.45c-1.16,1.16-2.95,1.68-4.45,2.5c0.82-1.06,1.54-2.22,2.48-3.17
		c50.09-50.13,100.2-100.24,150.31-150.34c3.79-3.79,4.02-3.68,7.25,0.5c4.71,6.08,9.93,11.8,14.32,18.1
		c6.17,8.85,12.33,17.8,17.5,27.24c7.46,13.62,14.41,27.55,20.89,41.67c9.14,19.93,15.27,40.91,19.39,62.41
		c2.43,12.65,4.06,25.45,5.96,38.2C688.89,318.64,688.55,320.29,688.48,321.9z"/>
	<path class="st1" d="M77.74,564.74c1.69,1.41,3.37,2.82,5.39,4.51c0.92-0.86,2.02-1.81,3.04-2.83
		c17.2-17.17,34.4-34.34,51.59-51.52c20.37-20.36,40.69-40.78,61.15-61.06c2.5-2.48,2.8-4.22,0.92-7.32
		c-5.2-8.56-9.99-17.37-14.83-26.14c-0.81-1.47-1.06-3.24-1.56-4.88c0.83,0.99,1.83,1.89,2.46,2.99
		c5.43,9.49,10.67,19.1,16.27,28.49c1.58,2.65,1.52,4.22-0.68,6.39c-18.33,18.19-36.56,36.48-54.81,54.74
		c-13.49,13.49-26.99,26.96-40.45,40.47c-6.74,6.77-13.4,13.61-20.08,20.45c-2.53,2.59-3.99,2.52-6.18-0.56
		C79.14,567.29,78.48,565.99,77.74,564.74z"/>
	<path class="st0" d="M176.62,303.04c-0.11-0.92-0.53-1.94-0.29-2.75c5.41-17.66,12.62-34.57,23.03-49.86
		c10.04-14.76,22.14-27.72,36.03-39.07c14.33-11.7,30.39-20.43,47.42-27c11.55-4.45,24.04-6.48,36.13-9.49
		c0.96-0.24,2.13,0.33,3.2,0.52c-2.96,0.64-5.93,1.26-8.88,1.93c-13.04,2.93-25.72,6.67-38.11,12
		c-26.44,11.37-47.99,28.64-66.06,50.74c-13.05,15.96-22.09,34.06-29.1,53.29C178.83,296.56,177.74,299.81,176.62,303.04z"/>
	<path class="st7" d="M508.91,144.79c0.14-0.47,0.13-1.08,0.44-1.39c7.34-7.45,14.73-14.85,22.06-22.3
		c7.17-7.29,14.25-14.67,21.46-21.92c3.42-3.44,7.03-6.69,10.58-10.01c1.71-1.6,2.43-2.77-0.05-4.67
		c-11.33-8.67-22.22-17.9-34.77-24.9c-10.58-5.91-20.94-12.21-31.4-18.33c-2.1-1.23-4.23-2.4-6.35-3.6
		c0.03-0.39,0.06-0.78,0.09-1.17c13.25,7.3,26.83,14.07,39.66,22.06c11.23,7,21.6,15.36,32.36,23.12c0.1,0.07,0.19,0.17,0.28,0.25
		c5.13,4.23,5.14,4.42,0.5,9.05c-17.1,17.1-34.2,34.22-51.33,51.29C511.42,143.26,510.09,143.95,508.91,144.79z"/>
	<path class="st2" d="M213.59,519.84c-0.54,1.21-0.8,2.71-1.67,3.59c-11.16,11.17-22.46,22.2-33.61,33.38
		c-7.9,7.92-15.55,16.08-23.42,24.02c-6.67,6.73-13.53,13.27-20.23,19.96c-3.07,3.07-5.96,6.31-9.21,9.76
		c3.12,2.56,6.11,4.91,8.95,7.42c0.83,0.74,1.25,1.95,1.85,2.94c-0.27,0.03-0.54,0.07-0.81,0.1c-3.45-2.63-6.91-5.24-10.33-7.89
		c-2.21-1.71-1.95-3.39-0.03-5.28c7.14-7.04,14.21-14.17,21.3-21.27c21.37-21.4,42.72-42.8,64.1-64.18
		C211.42,521.46,212.55,520.7,213.59,519.84z"/>
	<path class="st1" d="M4.5,398.16c0.61,1.55,1.44,3.06,1.81,4.67c2.73,12.09,5.36,24.2,8.03,36.3c3.11,14.12,7.99,27.72,13.84,40.84
		c6.3,14.13,13.19,28.07,20.95,41.43c7.15,12.31,15.82,23.74,23.77,35.59c0.8,1.2,1.23,2.64,1.83,3.98
		c-2.66-3.06-5.58-5.94-7.93-9.22c-11.74-16.48-22.67-33.51-31.16-51.91c-5.71-12.36-10.7-25.05-15.75-37.7
		c-7.84-19.65-11.49-40.4-15.55-61.03C4.15,400.17,4.43,399.15,4.5,398.16z"/>
	<path class="st0" d="M490.97,36.49c-0.03,0.39-0.06,0.78-0.09,1.17c-12.6-4.96-25-10.51-37.84-14.73
		c-12.43-4.09-25.28-6.87-37.98-10.12c-4.68-1.2-9.43-2.1-14.15-3.13c-0.01-0.41-0.01-0.82-0.02-1.24c3.68,0.49,7.4,0.77,11.02,1.52
		c16.14,3.36,32.07,7.5,47.52,13.32c8.82,3.32,17.58,6.82,26.33,10.33C487.59,34.34,489.24,35.52,490.97,36.49z"/>
	<path class="st0" d="M367.19,175.35c1.81-0.14,3.72-0.72,5.42-0.35c14.47,3.12,28.81,6.76,42.41,12.76
		c4.2,1.85,8.15,4.26,12.21,6.42c-0.02,0.29-0.05,0.57-0.07,0.86c-7.84-3.44-15.46-7.61-23.58-10.15
		c-11.3-3.53-22.99-5.82-34.51-8.67C368.42,176.06,367.82,175.65,367.19,175.35z"/>
	<path class="st3" d="M179.77,650.19c1.84,0.62,3.76,1.04,5.49,1.88c8.87,4.33,17.63,8.9,26.55,13.12c4.43,2.1,9.15,3.59,13.71,5.43
		c0.57,0.23,0.98,0.87,1.46,1.33c-4.77-1.61-9.73-2.83-14.28-4.92c-10.49-4.81-20.79-10.04-31.14-15.15
		C180.86,651.53,180.37,650.76,179.77,650.19z"/>
	<path class="st2" d="M259.16,681.06c1.98,0.25,3.98,0.38,5.94,0.76c6.18,1.2,12.35,2.47,18.5,3.81c0.68,0.15,1.23,0.9,1.85,1.38
		c-0.51,0.25-1.02,0.49-1.53,0.74c-1.73-0.31-3.45-0.63-5.18-0.94c-0.77-0.19-1.55-0.38-2.32-0.56c-0.72-0.08-1.45-0.15-2.17-0.23
		c-0.53-0.17-1.05-0.34-1.58-0.52c-0.48-0.07-0.95-0.13-1.43-0.2c-0.52-0.18-1.05-0.37-1.57-0.55c-1.73-0.31-3.45-0.62-5.18-0.94
		c-0.52-0.19-1.05-0.37-1.57-0.56c-1.22-0.31-2.45-0.62-3.67-0.92C259.22,681.9,259.19,681.48,259.16,681.06z"/>
	<path class="st2" d="M449.37,283.63c-0.28,0.97-0.28,2.21-0.9,2.86c-4.04,4.21-8.18,8.33-12.38,12.38
		c-0.4,0.39-1.43,0.13-2.16,0.18C439.08,293.91,444.23,288.77,449.37,283.63z"/>
	<path class="st2" d="M232.13,672.84c3.67,0.98,7.34,1.92,11,2.94c4.5,1.25,8.99,2.54,13.47,3.89c0.46,0.14,0.75,0.83,1.13,1.27
		c-0.27,0.26-0.53,0.51-0.8,0.76c-0.47-0.07-0.95-0.13-1.42-0.2c-2.54-1.03-5.03-2.26-7.64-3.04c-3.67-1.1-7.44-1.86-11.17-2.77
		c-1.25-0.48-2.51-0.95-3.76-1.43C232.66,673.8,232.4,673.32,232.13,672.84z"/>
	<path class="st0" d="M334.91,173.43c6.75,0,13.5,0,20.25-0.01c0.01,0.38,0.02,0.77,0.02,1.15c-6.77,0-13.53,0-20.3,0.01
		C334.9,174.19,334.9,173.81,334.91,173.43z"/>
	<path class="st3" d="M154.27,634.44c4.99,3.25,9.98,6.51,14.96,9.76C164.25,640.95,159.26,637.7,154.27,634.44z"/>
	<path class="st3" d="M236.68,675.7c3.73,0.91,7.5,1.67,11.17,2.77c2.62,0.78,5.1,2.01,7.64,3.04
		C249.23,679.58,242.95,677.64,236.68,675.7z"/>
	<path class="st2" d="M313.03,690.23c2.2-0.05,4.41-0.24,6.6-0.09c0.88,0.06,1.71,0.87,2.56,1.35c-0.26,0.26-0.52,0.52-0.78,0.77
		c-2.72-0.08-5.44-0.17-8.16-0.25C313.19,691.42,313.11,690.83,313.03,690.23z"/>
	<path class="st7" d="M334.91,173.43c-0.01,0.38-0.02,0.77-0.02,1.15c-2,0.06-4,0.11-5.99,0.17c-0.72-0.23-1.44-0.45-2.16-0.68
		C329.26,171.32,332.09,172.48,334.91,173.43z"/>
	<path class="st7" d="M355.18,174.57c-0.01-0.38-0.02-0.77-0.02-1.15c2.58-0.97,5.18-2.12,7.43,0.65c-0.72,0.23-1.44,0.45-2.17,0.68
		C358.68,174.69,356.93,174.63,355.18,174.57z"/>
	<path class="st2" d="M287.67,687.08c2.51,0.47,5.02,0.95,7.52,1.42c-0.51,0.24-1.01,0.49-1.52,0.73c-0.98-0.07-1.95-0.14-2.93-0.21
		C289.72,688.38,288.7,687.73,287.67,687.08z"/>
	<path class="st7" d="M442.16,203.82c2,0.71,4.01,1.43,6.01,2.14C445.05,208.37,443.99,205.02,442.16,203.82z"/>
	<path class="st3" d="M139.28,623.94c1.99,1.5,3.98,3,5.97,4.5C143.26,626.94,141.27,625.44,139.28,623.94z"/>
	<path class="st2" d="M300.41,689.28c1.93-0.95,3.82-1.67,5.28,0.74c-0.76,0.24-1.51,0.48-2.27,0.73c-0.97-0.08-1.94-0.15-2.91-0.23
		C300.48,690.1,300.44,689.69,300.41,689.28z"/>
	<path class="st3" d="M287.67,687.08c1.02,0.65,2.05,1.3,3.07,1.94c-2.27-0.43-4.55-0.86-6.82-1.29c0.51-0.25,1.02-0.49,1.53-0.74
		C286.19,687.03,286.93,687.06,287.67,687.08z"/>
	<path class="st0" d="M173.6,316.54c-1.18-2.2-0.8-4,1.36-5.35C174.5,312.97,174.05,314.75,173.6,316.54z"/>
	<path class="st0" d="M175.08,309.79c-1.17-2.2-0.78-4,1.37-5.35C176,306.22,175.54,308,175.08,309.79z"/>
	<path class="st7" d="M430.96,196.97c2.62-1.27,3.87,0.04,4.55,2.41C433.99,198.57,432.47,197.77,430.96,196.97z"/>
	<path class="st3" d="M174.49,647.22c1.75,0.98,3.51,1.97,5.26,2.95C178,649.19,176.25,648.2,174.49,647.22z"/>
	<path class="st0" d="M326.73,174.07c0.72,0.23,1.44,0.45,2.16,0.68c-1.79,0.17-3.58,0.34-5.37,0.51
		C324.59,174.86,325.66,174.47,326.73,174.07z"/>
	<path class="st0" d="M360.43,174.75c0.72-0.23,1.44-0.46,2.17-0.68c1.07,0.39,2.14,0.79,3.21,1.18
		C364.01,175.08,362.22,174.92,360.43,174.75z"/>
	<path class="st2" d="M422.89,310.12c0.57,2.54-0.43,3.48-2.93,2.89C420.93,312.04,421.91,311.08,422.89,310.12z"/>
	<path class="st2" d="M307.91,690.06c1.24,0.05,2.48,0.1,3.72,0.15c-0.49,0.42-0.98,0.85-1.46,1.27c-0.72-0.06-1.45-0.12-2.17-0.19
		C307.97,690.89,307.94,690.47,307.91,690.06z"/>
	<path class="st7" d="M505.16,148.54c1.25-1.25,2.5-2.5,3.75-3.75C507.66,146.04,506.41,147.29,505.16,148.54z"/>
	<path class="st3" d="M307.91,690.06c0.03,0.41,0.06,0.82,0.09,1.23c-1.53-0.19-3.06-0.37-4.58-0.56c0.76-0.24,1.51-0.48,2.27-0.73
		C306.43,690.03,307.17,690.05,307.91,690.06z"/>
	<path class="st3" d="M145.26,628.45c1.49,1,2.98,2,4.47,3.01C148.24,630.46,146.75,629.45,145.26,628.45z"/>
	<path class="st3" d="M232.13,672.84c0.26,0.48,0.53,0.95,0.79,1.43c-1.5-0.56-3-1.12-4.49-1.69c0.74-0.14,1.49-0.29,2.23-0.43
		c0.48,0.23,0.97,0.46,1.45,0.68L232.13,672.84z"/>
	<path class="st3" d="M135.43,621.03c0.27-0.03,0.54-0.07,0.81-0.1c1.01,1,2.01,1.99,3.02,2.99
		C137.98,622.95,136.71,621.99,135.43,621.03z"/>
	<path class="st7" d="M400.89,8.43c0.01,0.41,0.01,0.82,0.02,1.24c-0.99-0.21-1.98-0.43-2.97-0.64c0.49-0.25,0.99-0.5,1.48-0.75
		C399.91,8.33,400.4,8.38,400.89,8.43z"/>
	<path class="st3" d="M310.17,691.48c0.49-0.42,0.98-0.85,1.46-1.27c0.47,0.01,0.93,0.01,1.4,0.02c0.08,0.6,0.15,1.19,0.23,1.78
		C312.23,691.84,311.2,691.66,310.17,691.48z"/>
	<path class="st7" d="M427.16,195.04c0.02-0.29,0.05-0.57,0.07-0.86c1.17,0.38,3.42-0.49,2.59,2.22
		C428.94,195.94,428.05,195.49,427.16,195.04z"/>
	<path class="st2" d="M296.66,688.59c0.77,0.2,1.54,0.41,2.31,0.61c-0.27,0.27-0.54,0.54-0.8,0.81c-0.47-0.06-0.95-0.12-1.42-0.18
		C296.71,689.42,296.69,689,296.66,688.59z"/>
	<path class="st3" d="M296.66,688.59c0.03,0.41,0.05,0.83,0.08,1.24c-1.02-0.2-2.05-0.4-3.07-0.59c0.51-0.24,1.01-0.49,1.52-0.73
		C295.68,688.53,296.17,688.56,296.66,688.59z"/>
	<path class="st7" d="M437.66,200.78c0.78,0.54,1.56,1.07,2.34,1.61C439.22,201.85,438.44,201.31,437.66,200.78z"/>
	<path class="st2" d="M431.04,301.94c-0.29,0.84,0.63,2.9-1.7,1.68C429.91,303.06,430.47,302.5,431.04,301.94z"/>
	<path class="st3" d="M256.92,681.71c0.27-0.25,0.53-0.51,0.8-0.76c0.48,0.04,0.96,0.07,1.44,0.11c0.03,0.42,0.06,0.84,0.08,1.27
		C258.47,682.12,257.7,681.92,256.92,681.71z"/>
	<path class="st1" d="M3.72,392.91c0.19,0.79,0.39,1.57,0.58,2.36C4.11,394.49,3.91,393.7,3.72,392.91z"/>
	<path class="st3" d="M276.42,686.24c0.77,0.19,1.55,0.38,2.32,0.56C277.97,686.61,277.2,686.42,276.42,686.24z"/>
	<path class="st3" d="M298.17,690.01c0.27-0.27,0.54-0.54,0.8-0.81c0.48,0.03,0.96,0.05,1.44,0.08c0.03,0.41,0.07,0.83,0.1,1.24
		C299.73,690.35,298.95,690.18,298.17,690.01z"/>
	<path class="st3" d="M169.25,644.21c0.75,0.48,1.51,0.97,2.26,1.45C170.75,645.18,170,644.7,169.25,644.21z"/>
	<path class="st1" d="M74.74,560.99c0.51,0.72,1.02,1.43,1.53,2.15C75.76,562.42,75.25,561.7,74.74,560.99z"/>
	<path class="st3" d="M151.99,632.97c0.75,0.49,1.51,0.97,2.26,1.46C153.5,633.94,152.75,633.45,151.99,632.97z"/>
	<path class="st3" d="M149.74,631.47c0.75,0.5,1.49,0.99,2.24,1.49C151.23,632.46,150.49,631.96,149.74,631.47z"/>
	<path class="st3" d="M269.67,684.74c0.52,0.18,1.05,0.37,1.57,0.55C270.72,685.11,270.2,684.93,269.67,684.74z"/>
	<path class="st1" d="M3.14,388.38c0.13,0.55,0.26,1.1,0.39,1.65C3.4,389.48,3.27,388.93,3.14,388.38z"/>
	<path class="st3" d="M272.67,685.49c0.53,0.17,1.05,0.34,1.58,0.52C273.73,685.83,273.2,685.66,272.67,685.49z"/>
	<path class="st3" d="M172.92,646.41c0.52,0.27,1.04,0.53,1.56,0.8C173.96,646.94,173.44,646.67,172.92,646.41z"/>
	<path class="st3" d="M262.92,683.25c0.52,0.19,1.05,0.37,1.57,0.56C263.97,683.62,263.44,683.43,262.92,683.25z"/>
	<path class="st0" d="M468.3,186.52c0.16-0.19,0.33-0.39,0.49-0.58C468.63,186.13,468.46,186.32,468.3,186.52z"/>
	<path class="st0" d="M466.05,188.68c0.19-0.17,0.39-0.33,0.58-0.5C466.44,188.35,466.25,188.52,466.05,188.68z"/>
	<path class="st0" d="M466.81,188.01c0.19-0.19,0.39-0.38,0.58-0.58C467.19,187.63,467,187.82,466.81,188.01z"/>
	<path class="st0" d="M279.41,11.18c-12.71,3.28-25.52,6.22-38.09,9.97c-9.5,2.83-18.96,6.1-27.97,10.22
		c-14.4,6.58-28.4,14.04-42.59,21.09c-1.42,0.71-2.99,1.13-4.49,1.68c5.32-3.31,10.41-7.1,16.01-9.84
		c13.35-6.54,26.74-13.1,40.51-18.66c10.16-4.1,20.91-6.78,31.47-9.82c7.22-2.08,14.58-3.69,21.89-5.47
		c1.06-0.26,2.18-0.27,3.28-0.39C279.43,10.37,279.42,10.77,279.41,11.18z"/>
	<path class="st7" d="M110.07,96.82c-0.43,0.98-0.63,2.21-1.34,2.91c-14.77,14.32-28.17,29.86-40.7,46.15
		c-4.01,5.21-7.39,10.89-11.16,16.29c-0.8,1.15-2.06,1.97-3.1,2.95c4.26-6.65,8.15-13.58,12.86-19.89
		c6.67-8.94,13.61-17.74,21.07-26.04C94.73,111.35,102.58,104.25,110.07,96.82z"/>
	<path class="st7" d="M53.74,165.14c-2.03,4.06-3.86,8.24-6.12,12.16c-8.79,15.27-16.69,30.94-22.59,47.57
		c-2.57,7.26-4.99,14.57-7.58,21.83c-0.25,0.69-1.18,1.13-1.8,1.69c1.63-5.39,2.84-10.96,4.98-16.14
		c5.83-14.14,11.73-28.27,18.23-42.11c3.82-8.13,8.83-15.7,13.35-23.5C52.56,166.05,53.22,165.64,53.74,165.14z"/>
	<path class="st7" d="M10.98,266.31c-0.31,2.82-0.47,5.67-0.95,8.47c-1.19,6.92-2.47,13.83-3.83,20.72
		c-0.22,1.12-1.07,2.12-1.62,3.18C6.71,287.88,8.85,277.09,10.98,266.31z"/>
	<path class="st0" d="M298.95,8.16c-1.01,0.05-2.02,0.09-3.04,0.14c-0.74,0.21-1.48,0.42-2.21,0.63c-1.01,0.04-2.03,0.08-3.04,0.12
		c0-0.26-0.01-0.53-0.01-0.79c7.01-0.94,14.02-1.89,21.03-2.84c-0.01,0.41-0.01,0.82-0.02,1.22c-1,0.05-2,0.1-3,0.15
		c-1.49,0.21-2.97,0.42-4.46,0.63c-1.26,0.04-2.52,0.09-3.78,0.13C299.94,7.76,299.45,7.96,298.95,8.16z"/>
	<path class="st0" d="M160.24,57.9c-1.51,1.34-2.89,2.9-4.57,3.99c-3.9,2.53-7.94,4.83-11.93,7.22c3.49-2.63,6.92-5.34,10.5-7.85
		C156.11,59.96,158.23,59.01,160.24,57.9z"/>
	<path class="st7" d="M15.5,249.81c0.52,3.49-0.55,6.48-2.85,9.08C13.6,255.86,14.55,252.84,15.5,249.81z"/>
	<path class="st0" d="M321.41,5.91c-2.25,0.04-4.49,0.09-6.74,0.13c-0.5-0.25-1-0.5-1.51-0.75c2.76-0.2,5.51-0.39,8.27-0.59
		C321.42,5.11,321.42,5.51,321.41,5.91z"/>
	<path class="st7" d="M321.41,5.91c0.01-0.4,0.01-0.81,0.02-1.21c0.5-0.04,1-0.09,1.5-0.13c1.74,0.23,3.47,0.47,5.21,0.7
		C326.12,7.9,323.76,6.84,321.41,5.91z"/>
	<path class="st0" d="M288.41,9.69c-0.73,0.05-1.46,0.1-2.19,0.14c-0.51,0.2-1.02,0.4-1.53,0.6c-1.01,0.04-2.02,0.08-3.04,0.12
		c0-0.26-0.01-0.52-0.01-0.79c2.26-0.44,4.52-0.87,6.78-1.31C288.42,8.86,288.42,9.27,288.41,9.69z"/>
	<path class="st7" d="M4.34,300.83c0.21,1.87,2.06,4.01-0.89,5.36C3.75,304.41,4.05,302.62,4.34,300.83z"/>
	<path class="st0" d="M166.24,54.16c-1.99,1.24-3.99,2.48-5.98,3.72C162.26,56.64,164.25,55.4,166.24,54.16z"/>
	<path class="st0" d="M143.72,69.13c-1.74,1.25-3.47,2.5-5.21,3.75C140.25,71.63,141.99,70.38,143.72,69.13z"/>
	<path class="st0" d="M130.21,79.62c-1.49,1.25-2.99,2.49-4.48,3.74C127.23,82.11,128.72,80.86,130.21,79.62z"/>
	<path class="st7" d="M12.49,260.31c1.22,2.02,0.49,3.46-1.34,4.58C11.59,263.36,12.04,261.83,12.49,260.31z"/>
	<path class="st0" d="M125.72,83.37c-1.23,1-2.47,2.01-3.7,3.01C123.25,85.38,124.49,84.38,125.72,83.37z"/>
	<path class="st0" d="M120.47,87.88c-1.23,1-2.47,2-3.7,3.01C118.01,89.88,119.24,88.88,120.47,87.88z"/>
	<path class="st0" d="M115.98,91.63c-1.23,1-2.46,2-3.69,3.01C113.51,93.64,114.74,92.64,115.98,91.63z"/>
	<path class="st7" d="M313.16,5.3c0.5,0.25,1,0.5,1.51,0.75c-1,0.2-2.01,0.4-3.01,0.6c0.01-0.41,0.01-0.82,0.02-1.22
		C312.17,5.38,312.67,5.34,313.16,5.3z"/>
	<path class="st7" d="M281.65,9.76c0,0.26,0.01,0.52,0.01,0.79c-0.75,0.21-1.5,0.42-2.25,0.63c0.01-0.41,0.01-0.81,0.02-1.22
		C280.17,9.89,280.91,9.83,281.65,9.76z"/>
	<path class="st7" d="M288.41,9.69c0.01-0.41,0.01-0.82,0.02-1.23c0.74-0.06,1.48-0.13,2.22-0.19c0,0.26,0.01,0.53,0.01,0.79
		C289.91,9.26,289.16,9.47,288.41,9.69z"/>
	<path class="st0" d="M138.49,72.91c-1,0.74-1.99,1.48-2.98,2.22C136.5,74.39,137.5,73.65,138.49,72.91z"/>
	<path class="st0" d="M135.49,75.15c-0.98,0.75-1.97,1.49-2.95,2.24C133.52,76.65,134.5,75.9,135.49,75.15z"/>
	<path class="st3" d="M435.44,680.37c14.65-5.2,29.41-10.11,43.9-15.73c8.12-3.15,16-7.08,23.59-11.37
		c13.2-7.46,26.45-14.93,38.99-23.42c10.3-6.97,20.09-14.89,29.2-23.35c12.74-11.83,24.91-24.31,36.78-37.02
		c5.98-6.41,11-13.77,16.03-21c6.37-9.17,12.74-18.4,18.33-28.06c6.03-10.42,11.15-21.36,16.68-32.07c0.17-0.32,0.45-0.58,0.67-0.87
		c0.33,0.07,0.66,0.15,0.99,0.22c-3.46,7.43-6.33,15.21-10.5,22.22c-9.31,15.64-18.85,31.16-29.11,46.18
		c-5.92,8.67-13.12,16.54-20.26,24.29c-7.56,8.21-15.32,16.32-23.72,23.65c-10.53,9.21-21.46,18.06-32.84,26.18
		c-11.29,8.05-23.05,15.59-35.2,22.28c-11.18,6.15-22.92,11.46-34.84,16.06c-14.08,5.44-28.6,9.71-42.94,14.47
		c-0.33,0.11-0.73-0.03-1.1-0.05C431.87,682.12,433.66,681.25,435.44,680.37z"/>
	<path class="st2" d="M665.28,476.21c-0.15-0.97-0.66-2.07-0.39-2.91c2.98-9.22,6.05-18.41,9.2-27.57c0.17-0.49,1.16-0.69,1.77-1.03
		c-2.43,7.97-4.79,15.97-7.33,23.9C667.7,471.22,666.38,473.68,665.28,476.21z"/>
	<path class="st2" d="M435.44,680.37c-1.79,0.88-3.57,1.75-5.36,2.62c-0.48,0.08-0.96,0.16-1.43,0.24
		c-0.52,0.19-1.05,0.38-1.57,0.57c-0.73,0.06-1.45,0.12-2.18,0.18c-0.53,0.18-1.05,0.35-1.58,0.53c-0.47,0.07-0.95,0.14-1.42,0.22
		c-1.52,0.43-3.05,0.85-4.57,1.28c-0.72,0.08-1.45,0.15-2.17,0.23c-0.51-0.25-1.02-0.49-1.53-0.74c1.57-0.63,3.1-1.43,4.73-1.86
		c4.98-1.33,9.99-2.56,15.02-3.73C433.99,679.76,434.75,680.2,435.44,680.37z"/>
	<path class="st2" d="M368.63,691.51c2.55-2.68,5.43-1.46,8.28-0.72c-0.03,0.41-0.07,0.82-0.1,1.23c-2.22,0.08-4.44,0.16-6.66,0.25
		C369.65,692.01,369.14,691.76,368.63,691.51z"/>
	<path class="st2" d="M385.89,690.02c2.44-2.31,5.29-2.22,8.27-1.43c-0.03,0.41-0.05,0.83-0.08,1.24c-0.48,0.06-0.95,0.12-1.43,0.18
		c-0.78,0.17-1.55,0.33-2.33,0.5c-0.97,0.08-1.95,0.16-2.92,0.24C386.9,690.52,386.4,690.27,385.89,690.02z"/>
	<path class="st2" d="M396.38,688.51c2.16-2.34,4.84-1.88,7.53-1.4c-0.03,0.41-0.05,0.82-0.08,1.23c-0.48,0.05-0.95,0.11-1.43,0.17
		c-0.53,0.16-1.06,0.33-1.58,0.49c-0.97,0.08-1.95,0.16-2.92,0.24C397.4,689,396.89,688.76,396.38,688.51z"/>
	<path class="st2" d="M405.39,687.01c2.26-0.48,4.52-0.96,6.77-1.44c-0.03,0.42-0.05,0.84-0.08,1.26c-0.48,0.06-0.95,0.12-1.43,0.18
		c-0.53,0.16-1.06,0.32-1.59,0.48c-0.97,0.09-1.94,0.18-2.91,0.28C405.9,687.52,405.65,687.27,405.39,687.01z"/>
	<path class="st2" d="M678.09,437.36c-2.37-2.37-1.02-3.68,1.35-4.68C678.99,434.24,678.54,435.8,678.09,437.36z"/>
	<path class="st2" d="M681.14,424.53c-1.74-1.66-2.15-3.07,0.75-3.82C681.64,421.99,681.39,423.26,681.14,424.53z"/>
	<path class="st2" d="M679.59,431.36c-1.94-1.77-2.02-3.15,0.84-3.88C680.14,428.77,679.87,430.06,679.59,431.36z"/>
	<path class="st3" d="M385.89,690.02c0.5,0.25,1.01,0.49,1.51,0.74c-1.52,0.19-3.05,0.38-4.57,0.57c0.03-0.41,0.06-0.82,0.09-1.23
		C383.91,690.08,384.9,690.05,385.89,690.02z"/>
	<path class="st3" d="M376.81,692.02c0.03-0.41,0.07-0.82,0.1-1.23c0.98-0.02,1.96-0.05,2.94-0.07c0.52,0.27,1.03,0.53,1.55,0.8
		C379.87,691.68,378.34,691.85,376.81,692.02z"/>
	<path class="st3" d="M417.32,686.01c1.52-0.43,3.05-0.85,4.57-1.28C420.37,685.15,418.85,685.58,417.32,686.01z"/>
	<path class="st2" d="M660.6,487.7c-0.33-0.07-0.66-0.15-0.99-0.22c0.66-0.97,1.32-1.95,1.98-2.92
		C661.26,485.61,660.93,486.66,660.6,487.7z"/>
	<path class="st2" d="M381.4,691.51c-0.52-0.27-1.03-0.53-1.55-0.8c1.02-0.21,2.05-0.41,3.07-0.61c-0.03,0.41-0.06,0.82-0.09,1.23
		C382.36,691.39,381.88,691.45,381.4,691.51z"/>
	<path class="st3" d="M396.38,688.51c0.51,0.24,1.01,0.49,1.52,0.73c-1.27,0.2-2.55,0.4-3.82,0.59c0.03-0.42,0.05-0.83,0.08-1.24
		C394.9,688.57,395.64,688.54,396.38,688.51z"/>
	<path class="st2" d="M661.71,483.59c-0.84-1.66-0.62-2.76,1.5-2.86C662.7,481.68,662.2,482.64,661.71,483.59z"/>
	<path class="st2" d="M676.58,441.92c-2.22-1.66-1.07-2.19,0.83-2.45C677.14,440.29,676.86,441.1,676.58,441.92z"/>
	<path class="st3" d="M412.08,686.84c0.03-0.42,0.05-0.84,0.08-1.26c0.49-0.02,0.98-0.05,1.47-0.07c0.51,0.25,1.02,0.49,1.52,0.74
		C414.13,686.44,413.11,686.64,412.08,686.84z"/>
	<path class="st3" d="M405.39,687.01c0.26,0.25,0.51,0.51,0.77,0.76c-0.77,0.19-1.55,0.38-2.32,0.57c0.03-0.41,0.05-0.82,0.08-1.23
		C404.41,687.08,404.9,687.04,405.39,687.01z"/>
	<path class="st3" d="M390.33,690.52c0.78-0.17,1.55-0.33,2.33-0.5C391.88,690.18,391.1,690.35,390.33,690.52z"/>
	<path class="st2" d="M663.77,479.4c-0.27-0.35-0.53-0.69-0.8-1.04c0.54-0.23,1.08-0.46,1.63-0.7
		C664.32,478.25,664.04,478.83,663.77,479.4z"/>
	<path class="st3" d="M423.32,684.51c0.53-0.18,1.05-0.35,1.58-0.53C424.37,684.16,423.85,684.34,423.32,684.51z"/>
	<path class="st3" d="M427.08,683.81c0.52-0.19,1.05-0.38,1.57-0.57C428.13,683.43,427.6,683.62,427.08,683.81z"/>
	<path class="st3" d="M409.07,687.5c0.53-0.16,1.06-0.32,1.59-0.48C410.13,687.18,409.6,687.34,409.07,687.5z"/>
	<path class="st3" d="M400.82,689c0.53-0.16,1.06-0.33,1.58-0.49C401.88,688.67,401.35,688.84,400.82,689z"/>
	<path class="st8" d="M172.84,380.32c-0.47-1.02-0.94-2.04-1.4-3.06C171.9,378.28,172.37,379.3,172.84,380.32z"/>
	<path class="st7" d="M346.87,5.19c-1.73,0.01-3.46,0.02-5.19,0.03C343.42,5.21,345.15,5.2,346.87,5.19z"/>
	<path class="st7" d="M365.63,5.96c-1.65,0.87-3.31,1.82-4.45-0.68C362.67,5.51,364.15,5.74,365.63,5.96z"/>
	<path class="st7" d="M390.39,8.21c-0.73-0.23-1.46-0.46-2.19-0.69C388.93,7.76,389.66,7.98,390.39,8.21z"/>
	<path class="st7" d="M377.63,6.69c-0.74-0.21-1.49-0.43-2.23-0.64C376.14,6.26,376.88,6.48,377.63,6.69z"/>
	<path class="st7" d="M394.89,8.96c-0.48-0.23-0.97-0.45-1.45-0.68C393.92,8.51,394.4,8.73,394.89,8.96z"/>
	<path class="st2" d="M354.42,691.7c3.25-0.04,6.5-0.08,9.74-0.11C360.91,691.62,357.67,691.66,354.42,691.7z"/>
	<path class="st2" d="M326.66,691.59c3.25,0.04,6.5,0.07,9.74,0.11C333.16,691.66,329.91,691.62,326.66,691.59z"/>
	<path class="st2" d="M232.11,672.84c-0.48-0.23-0.97-0.46-1.45-0.68C231.15,672.38,231.63,672.61,232.11,672.84z"/>
	<path class="st7" d="M304.21,7.42c1.49-0.21,2.97-0.42,4.46-0.63C307.49,9.24,305.86,8.42,304.21,7.42z"/>
	<path class="st7" d="M293.7,8.92c0.74-0.21,1.48-0.42,2.21-0.63C295.18,8.51,294.44,8.71,293.7,8.92z"/>
	<path class="st7" d="M298.95,8.16c0.49-0.2,0.98-0.41,1.47-0.61C299.94,7.76,299.45,7.96,298.95,8.16z"/>
	<path class="st7" d="M284.7,10.43c0.51-0.2,1.02-0.4,1.53-0.6C285.72,10.03,285.21,10.23,284.7,10.43z"/>
</g>
</svg>
