<svg id="Cleaned_up_layer" data-name="Cleaned up layer" xmlns="http://www.w3.org/2000/svg" viewBox="0 0 687.88 688.55"><defs><style>.cls-1{fill:#37b5fe;}.cls-2{fill:#fe5758;}.cls-3{fill:#7fd758;}</style></defs><path id="Blue_part" data-name="Blue part" class="cls-1" d="M1.91,321l169.35-.11c14.32-69.36,64.6-124.36,129.45-141.17,74.54-19.31,137.9,22.06,147.46,28.59,40.66-40.2,78.33-81.95,119-122.16C466.34.94,325.69-19.77,205.82,33,90.59,83.74,12.16,194.64,1.91,321Z" transform="translate(-1.91 -4.15)"/><path id="red_part" data-name="red part" class="cls-2" d="M123.54,610.53,607.06,125.41l23.53,30.35c92.42,136.05,75,320.19-41,436.41C473.82,708.06,288.1,725.94,152,634.44" transform="translate(-1.91 -4.15)"/><path id="green_part" data-name="green part" class="cls-3" d="M172.53,375.29c2.9,12.37,6.3,27.37,13.38,43.2A230.78,230.78,0,0,0,203.27,450c-40.05,39.59-80.05,81.29-120.09,120.89-17.77-20.93-41-52.47-59.94-100.35C7.29,430.35,4.14,400.33,1.91,375.79" transform="translate(-1.91 -4.15)"/></svg>